<?xml version="1.0" encoding="utf-8" standalone="no"?>
<!DOCTYPE svg PUBLIC "-//W3C//DTD SVG 1.1//EN"
  "http://www.w3.org/Graphics/SVG/1.1/DTD/svg11.dtd">
<!-- Created with matplotlib (https://matplotlib.org/) -->
<svg height="345.6pt" version="1.1" viewBox="0 0 460.8 345.6" width="460.8pt" xmlns="http://www.w3.org/2000/svg" xmlns:xlink="http://www.w3.org/1999/xlink">
 <metadata>
  <rdf:RDF xmlns:cc="http://creativecommons.org/ns#" xmlns:dc="http://purl.org/dc/elements/1.1/" xmlns:rdf="http://www.w3.org/1999/02/22-rdf-syntax-ns#">
   <cc:Work>
    <dc:type rdf:resource="http://purl.org/dc/dcmitype/StillImage"/>
    <dc:date>2021-04-16T22:06:24.477313</dc:date>
    <dc:format>image/svg+xml</dc:format>
    <dc:creator>
     <cc:Agent>
      <dc:title>Matplotlib v3.3.3, https://matplotlib.org/</dc:title>
     </cc:Agent>
    </dc:creator>
   </cc:Work>
  </rdf:RDF>
 </metadata>
 <defs>
  <style type="text/css">*{stroke-linecap:butt;stroke-linejoin:round;}</style>
 </defs>
 <g id="figure_1">
  <g id="patch_1">
   <path d="M 0 345.6 
L 460.8 345.6 
L 460.8 0 
L 0 0 
z
" style="fill:#ffffff;"/>
  </g>
  <g id="axes_1">
   <g id="patch_2">
    <path d="M 57.6 307.584 
L 414.72 307.584 
L 414.72 41.472 
L 57.6 41.472 
z
" style="fill:#ffffff;"/>
   </g>
   <g id="matplotlib.axis_1">
    <g id="xtick_1">
     <g id="line2d_1">
      <defs>
       <path d="M 0 0 
L 0 3.5 
" id="m5df67d5267" style="stroke:#000000;stroke-width:0.8;"/>
      </defs>
      <g>
       <use style="stroke:#000000;stroke-width:0.8;" x="73.832727" xlink:href="#m5df67d5267" y="307.584"/>
      </g>
     </g>
     <g id="text_1">
      <!-- 0 -->
      <g transform="translate(70.651477 322.182437)scale(0.1 -0.1)">
       <defs>
        <path d="M 31.78125 66.40625 
Q 24.171875 66.40625 20.328125 58.90625 
Q 16.5 51.421875 16.5 36.375 
Q 16.5 21.390625 20.328125 13.890625 
Q 24.171875 6.390625 31.78125 6.390625 
Q 39.453125 6.390625 43.28125 13.890625 
Q 47.125 21.390625 47.125 36.375 
Q 47.125 51.421875 43.28125 58.90625 
Q 39.453125 66.40625 31.78125 66.40625 
z
M 31.78125 74.21875 
Q 44.046875 74.21875 50.515625 64.515625 
Q 56.984375 54.828125 56.984375 36.375 
Q 56.984375 17.96875 50.515625 8.265625 
Q 44.046875 -1.421875 31.78125 -1.421875 
Q 19.53125 -1.421875 13.0625 8.265625 
Q 6.59375 17.96875 6.59375 36.375 
Q 6.59375 54.828125 13.0625 64.515625 
Q 19.53125 74.21875 31.78125 74.21875 
z
" id="DejaVuSans-48"/>
       </defs>
       <use xlink:href="#DejaVuSans-48"/>
      </g>
     </g>
    </g>
    <g id="xtick_2">
     <g id="line2d_2">
      <g>
       <use style="stroke:#000000;stroke-width:0.8;" x="138.893758" xlink:href="#m5df67d5267" y="307.584"/>
      </g>
     </g>
     <g id="text_2">
      <!-- 100 -->
      <g transform="translate(129.350008 322.182437)scale(0.1 -0.1)">
       <defs>
        <path d="M 12.40625 8.296875 
L 28.515625 8.296875 
L 28.515625 63.921875 
L 10.984375 60.40625 
L 10.984375 69.390625 
L 28.421875 72.90625 
L 38.28125 72.90625 
L 38.28125 8.296875 
L 54.390625 8.296875 
L 54.390625 0 
L 12.40625 0 
z
" id="DejaVuSans-49"/>
       </defs>
       <use xlink:href="#DejaVuSans-49"/>
       <use x="63.623047" xlink:href="#DejaVuSans-48"/>
       <use x="127.246094" xlink:href="#DejaVuSans-48"/>
      </g>
     </g>
    </g>
    <g id="xtick_3">
     <g id="line2d_3">
      <g>
       <use style="stroke:#000000;stroke-width:0.8;" x="203.95479" xlink:href="#m5df67d5267" y="307.584"/>
      </g>
     </g>
     <g id="text_3">
      <!-- 200 -->
      <g transform="translate(194.41104 322.182437)scale(0.1 -0.1)">
       <defs>
        <path d="M 19.1875 8.296875 
L 53.609375 8.296875 
L 53.609375 0 
L 7.328125 0 
L 7.328125 8.296875 
Q 12.9375 14.109375 22.625 23.890625 
Q 32.328125 33.6875 34.8125 36.53125 
Q 39.546875 41.84375 41.421875 45.53125 
Q 43.3125 49.21875 43.3125 52.78125 
Q 43.3125 58.59375 39.234375 62.25 
Q 35.15625 65.921875 28.609375 65.921875 
Q 23.96875 65.921875 18.8125 64.3125 
Q 13.671875 62.703125 7.8125 59.421875 
L 7.8125 69.390625 
Q 13.765625 71.78125 18.9375 73 
Q 24.125 74.21875 28.421875 74.21875 
Q 39.75 74.21875 46.484375 68.546875 
Q 53.21875 62.890625 53.21875 53.421875 
Q 53.21875 48.921875 51.53125 44.890625 
Q 49.859375 40.875 45.40625 35.40625 
Q 44.1875 33.984375 37.640625 27.21875 
Q 31.109375 20.453125 19.1875 8.296875 
z
" id="DejaVuSans-50"/>
       </defs>
       <use xlink:href="#DejaVuSans-50"/>
       <use x="63.623047" xlink:href="#DejaVuSans-48"/>
       <use x="127.246094" xlink:href="#DejaVuSans-48"/>
      </g>
     </g>
    </g>
    <g id="xtick_4">
     <g id="line2d_4">
      <g>
       <use style="stroke:#000000;stroke-width:0.8;" x="269.015821" xlink:href="#m5df67d5267" y="307.584"/>
      </g>
     </g>
     <g id="text_4">
      <!-- 300 -->
      <g transform="translate(259.472071 322.182437)scale(0.1 -0.1)">
       <defs>
        <path d="M 40.578125 39.3125 
Q 47.65625 37.796875 51.625 33 
Q 55.609375 28.21875 55.609375 21.1875 
Q 55.609375 10.40625 48.1875 4.484375 
Q 40.765625 -1.421875 27.09375 -1.421875 
Q 22.515625 -1.421875 17.65625 -0.515625 
Q 12.796875 0.390625 7.625 2.203125 
L 7.625 11.71875 
Q 11.71875 9.328125 16.59375 8.109375 
Q 21.484375 6.890625 26.8125 6.890625 
Q 36.078125 6.890625 40.9375 10.546875 
Q 45.796875 14.203125 45.796875 21.1875 
Q 45.796875 27.640625 41.28125 31.265625 
Q 36.765625 34.90625 28.71875 34.90625 
L 20.21875 34.90625 
L 20.21875 43.015625 
L 29.109375 43.015625 
Q 36.375 43.015625 40.234375 45.921875 
Q 44.09375 48.828125 44.09375 54.296875 
Q 44.09375 59.90625 40.109375 62.90625 
Q 36.140625 65.921875 28.71875 65.921875 
Q 24.65625 65.921875 20.015625 65.03125 
Q 15.375 64.15625 9.8125 62.3125 
L 9.8125 71.09375 
Q 15.4375 72.65625 20.34375 73.4375 
Q 25.25 74.21875 29.59375 74.21875 
Q 40.828125 74.21875 47.359375 69.109375 
Q 53.90625 64.015625 53.90625 55.328125 
Q 53.90625 49.265625 50.4375 45.09375 
Q 46.96875 40.921875 40.578125 39.3125 
z
" id="DejaVuSans-51"/>
       </defs>
       <use xlink:href="#DejaVuSans-51"/>
       <use x="63.623047" xlink:href="#DejaVuSans-48"/>
       <use x="127.246094" xlink:href="#DejaVuSans-48"/>
      </g>
     </g>
    </g>
    <g id="xtick_5">
     <g id="line2d_5">
      <g>
       <use style="stroke:#000000;stroke-width:0.8;" x="334.076852" xlink:href="#m5df67d5267" y="307.584"/>
      </g>
     </g>
     <g id="text_5">
      <!-- 400 -->
      <g transform="translate(324.533102 322.182437)scale(0.1 -0.1)">
       <defs>
        <path d="M 37.796875 64.3125 
L 12.890625 25.390625 
L 37.796875 25.390625 
z
M 35.203125 72.90625 
L 47.609375 72.90625 
L 47.609375 25.390625 
L 58.015625 25.390625 
L 58.015625 17.1875 
L 47.609375 17.1875 
L 47.609375 0 
L 37.796875 0 
L 37.796875 17.1875 
L 4.890625 17.1875 
L 4.890625 26.703125 
z
" id="DejaVuSans-52"/>
       </defs>
       <use xlink:href="#DejaVuSans-52"/>
       <use x="63.623047" xlink:href="#DejaVuSans-48"/>
       <use x="127.246094" xlink:href="#DejaVuSans-48"/>
      </g>
     </g>
    </g>
    <g id="xtick_6">
     <g id="line2d_6">
      <g>
       <use style="stroke:#000000;stroke-width:0.8;" x="399.137883" xlink:href="#m5df67d5267" y="307.584"/>
      </g>
     </g>
     <g id="text_6">
      <!-- 500 -->
      <g transform="translate(389.594133 322.182437)scale(0.1 -0.1)">
       <defs>
        <path d="M 10.796875 72.90625 
L 49.515625 72.90625 
L 49.515625 64.59375 
L 19.828125 64.59375 
L 19.828125 46.734375 
Q 21.96875 47.46875 24.109375 47.828125 
Q 26.265625 48.1875 28.421875 48.1875 
Q 40.625 48.1875 47.75 41.5 
Q 54.890625 34.8125 54.890625 23.390625 
Q 54.890625 11.625 47.5625 5.09375 
Q 40.234375 -1.421875 26.90625 -1.421875 
Q 22.3125 -1.421875 17.546875 -0.640625 
Q 12.796875 0.140625 7.71875 1.703125 
L 7.71875 11.625 
Q 12.109375 9.234375 16.796875 8.0625 
Q 21.484375 6.890625 26.703125 6.890625 
Q 35.15625 6.890625 40.078125 11.328125 
Q 45.015625 15.765625 45.015625 23.390625 
Q 45.015625 31 40.078125 35.4375 
Q 35.15625 39.890625 26.703125 39.890625 
Q 22.75 39.890625 18.8125 39.015625 
Q 14.890625 38.140625 10.796875 36.28125 
z
" id="DejaVuSans-53"/>
       </defs>
       <use xlink:href="#DejaVuSans-53"/>
       <use x="63.623047" xlink:href="#DejaVuSans-48"/>
       <use x="127.246094" xlink:href="#DejaVuSans-48"/>
      </g>
     </g>
    </g>
   </g>
   <g id="matplotlib.axis_2">
    <g id="ytick_1">
     <g id="line2d_7">
      <defs>
       <path d="M 0 0 
L -3.5 0 
" id="md8425b526b" style="stroke:#000000;stroke-width:0.8;"/>
      </defs>
      <g>
       <use style="stroke:#000000;stroke-width:0.8;" x="57.6" xlink:href="#md8425b526b" y="269.480851"/>
      </g>
     </g>
     <g id="text_7">
      <!-- −0.0004 -->
      <g transform="translate(7.229687 273.28007)scale(0.1 -0.1)">
       <defs>
        <path d="M 10.59375 35.5 
L 73.1875 35.5 
L 73.1875 27.203125 
L 10.59375 27.203125 
z
" id="DejaVuSans-8722"/>
        <path d="M 10.6875 12.40625 
L 21 12.40625 
L 21 0 
L 10.6875 0 
z
" id="DejaVuSans-46"/>
       </defs>
       <use xlink:href="#DejaVuSans-8722"/>
       <use x="83.789062" xlink:href="#DejaVuSans-48"/>
       <use x="147.412109" xlink:href="#DejaVuSans-46"/>
       <use x="179.199219" xlink:href="#DejaVuSans-48"/>
       <use x="242.822266" xlink:href="#DejaVuSans-48"/>
       <use x="306.445312" xlink:href="#DejaVuSans-48"/>
       <use x="370.068359" xlink:href="#DejaVuSans-52"/>
      </g>
     </g>
    </g>
    <g id="ytick_2">
     <g id="line2d_8">
      <g>
       <use style="stroke:#000000;stroke-width:0.8;" x="57.6" xlink:href="#md8425b526b" y="212.527251"/>
      </g>
     </g>
     <g id="text_8">
      <!-- −0.0002 -->
      <g transform="translate(7.229687 216.326469)scale(0.1 -0.1)">
       <use xlink:href="#DejaVuSans-8722"/>
       <use x="83.789062" xlink:href="#DejaVuSans-48"/>
       <use x="147.412109" xlink:href="#DejaVuSans-46"/>
       <use x="179.199219" xlink:href="#DejaVuSans-48"/>
       <use x="242.822266" xlink:href="#DejaVuSans-48"/>
       <use x="306.445312" xlink:href="#DejaVuSans-48"/>
       <use x="370.068359" xlink:href="#DejaVuSans-50"/>
      </g>
     </g>
    </g>
    <g id="ytick_3">
     <g id="line2d_9">
      <g>
       <use style="stroke:#000000;stroke-width:0.8;" x="57.6" xlink:href="#md8425b526b" y="155.57365"/>
      </g>
     </g>
     <g id="text_9">
      <!-- 0.0000 -->
      <g transform="translate(15.609375 159.372869)scale(0.1 -0.1)">
       <use xlink:href="#DejaVuSans-48"/>
       <use x="63.623047" xlink:href="#DejaVuSans-46"/>
       <use x="95.410156" xlink:href="#DejaVuSans-48"/>
       <use x="159.033203" xlink:href="#DejaVuSans-48"/>
       <use x="222.65625" xlink:href="#DejaVuSans-48"/>
       <use x="286.279297" xlink:href="#DejaVuSans-48"/>
      </g>
     </g>
    </g>
    <g id="ytick_4">
     <g id="line2d_10">
      <g>
       <use style="stroke:#000000;stroke-width:0.8;" x="57.6" xlink:href="#md8425b526b" y="98.62005"/>
      </g>
     </g>
     <g id="text_10">
      <!-- 0.0002 -->
      <g transform="translate(15.609375 102.419269)scale(0.1 -0.1)">
       <use xlink:href="#DejaVuSans-48"/>
       <use x="63.623047" xlink:href="#DejaVuSans-46"/>
       <use x="95.410156" xlink:href="#DejaVuSans-48"/>
       <use x="159.033203" xlink:href="#DejaVuSans-48"/>
       <use x="222.65625" xlink:href="#DejaVuSans-48"/>
       <use x="286.279297" xlink:href="#DejaVuSans-50"/>
      </g>
     </g>
    </g>
    <g id="ytick_5">
     <g id="line2d_11">
      <g>
       <use style="stroke:#000000;stroke-width:0.8;" x="57.6" xlink:href="#md8425b526b" y="41.66645"/>
      </g>
     </g>
     <g id="text_11">
      <!-- 0.0004 -->
      <g transform="translate(15.609375 45.465668)scale(0.1 -0.1)">
       <use xlink:href="#DejaVuSans-48"/>
       <use x="63.623047" xlink:href="#DejaVuSans-46"/>
       <use x="95.410156" xlink:href="#DejaVuSans-48"/>
       <use x="159.033203" xlink:href="#DejaVuSans-48"/>
       <use x="222.65625" xlink:href="#DejaVuSans-48"/>
       <use x="286.279297" xlink:href="#DejaVuSans-52"/>
      </g>
     </g>
    </g>
   </g>
   <g id="line2d_12">
    <path clip-path="url(#p3bf4e7a2f4)" d="M 73.832727 127.883612 
L 74.483338 127.783161 
L 75.133948 128.36823 
L 75.784558 130.330432 
L 76.435169 131.494677 
L 77.085779 131.017144 
L 77.736389 130.363843 
L 78.386999 130.193555 
L 79.68822 131.691307 
L 80.33883 132.818023 
L 80.989441 132.841535 
L 81.640051 133.462762 
L 82.290661 136.22635 
L 82.941272 136.112029 
L 83.591882 134.055264 
L 84.242492 135.132953 
L 84.893103 135.870168 
L 85.543713 136.330392 
L 86.194323 136.963984 
L 86.844934 136.288776 
L 87.495544 137.922147 
L 88.146154 138.798789 
L 89.447375 138.458504 
L 90.097985 136.883182 
L 90.748595 139.193532 
L 91.399206 140.673019 
L 92.049816 140.689054 
L 92.700426 143.229427 
L 93.351037 148.601482 
L 94.001647 150.870277 
L 94.652257 151.555303 
L 95.302868 154.975115 
L 95.953478 157.402367 
L 96.604088 158.055424 
L 97.254698 160.08179 
L 97.905309 164.435109 
L 98.555919 170.199234 
L 99.206529 172.061571 
L 99.85714 168.464332 
L 101.15836 157.486398 
L 101.808971 155.45591 
L 102.459581 155.708535 
L 103.110191 155.154809 
L 103.760802 150.60159 
L 105.062022 145.145104 
L 106.363243 138.478481 
L 107.013853 136.560313 
L 107.664463 136.307039 
L 108.315074 136.329031 
L 108.965684 137.464642 
L 109.616294 138.3758 
L 110.266905 138.770289 
L 110.917515 138.111777 
L 111.568125 138.846764 
L 112.218736 138.935795 
L 112.869346 141.865667 
L 113.519956 141.005305 
L 114.170567 140.581488 
L 115.471787 144.701138 
L 116.122398 145.090322 
L 116.773008 145.296043 
L 117.423618 153.407588 
L 118.074228 165.753866 
L 118.724839 169.828516 
L 119.375449 168.331795 
L 120.026059 188.240959 
L 121.32728 262.640202 
L 121.97789 274.504528 
L 122.628501 223.401547 
L 123.279111 147.701366 
L 123.929721 97.918319 
L 125.230942 55.32861 
L 125.881552 53.568 
L 126.532163 67.650956 
L 127.182773 77.430075 
L 127.833383 82.456414 
L 128.483993 97.355401 
L 129.134604 130.792888 
L 129.785214 154.643089 
L 130.435824 157.215604 
L 131.086435 150.715414 
L 131.737045 151.762505 
L 132.387655 166.992553 
L 133.038266 178.526671 
L 133.688876 175.223395 
L 134.339486 164.146213 
L 134.990097 162.082956 
L 135.640707 175.632459 
L 136.291317 183.125457 
L 136.941927 180.383332 
L 137.592538 172.940978 
L 138.243148 169.339685 
L 139.544369 186.398095 
L 140.194979 184.466338 
L 140.845589 176.063356 
L 141.4962 172.657491 
L 142.79742 185.278208 
L 143.448031 184.920266 
L 144.098641 179.103689 
L 144.749251 177.49614 
L 145.399862 182.959791 
L 146.050472 187.024151 
L 146.701082 184.877032 
L 147.351692 180.808708 
L 148.002303 184.326892 
L 148.652913 190.880624 
L 149.303523 193.342865 
L 149.954134 193.014028 
L 150.604744 191.762751 
L 151.255354 191.600924 
L 152.556575 199.855051 
L 153.207185 200.04477 
L 153.857796 199.297417 
L 154.508406 198.792422 
L 155.159016 201.270796 
L 155.809627 204.370383 
L 156.460237 205.752858 
L 157.110847 206.281219 
L 157.761457 205.305411 
L 158.412068 205.804311 
L 159.062678 210.840002 
L 159.713288 213.674909 
L 160.363899 217.762575 
L 161.014509 218.830859 
L 161.665119 218.063522 
L 162.31573 218.858506 
L 162.96634 222.281531 
L 163.61695 226.973057 
L 164.267561 229.986908 
L 164.918171 228.228632 
L 165.568781 227.339145 
L 166.219392 230.463938 
L 166.870002 232.780004 
L 167.520612 232.616859 
L 168.171222 228.724879 
L 168.821833 225.723432 
L 169.472443 224.502352 
L 170.773664 221.007536 
L 172.074884 207.576722 
L 172.725495 203.481312 
L 173.376105 200.67643 
L 174.026715 195.437684 
L 175.327936 183.845801 
L 175.978546 181.883262 
L 176.629156 182.090104 
L 177.279767 177.179514 
L 177.930377 170.924494 
L 178.580987 168.225293 
L 179.231598 167.859239 
L 179.882208 170.406899 
L 180.532818 172.033452 
L 181.183429 167.638658 
L 181.834039 164.310708 
L 182.484649 165.308435 
L 183.13526 168.423368 
L 183.78587 169.555202 
L 185.087091 165.222001 
L 185.737701 166.42045 
L 186.388311 170.339045 
L 187.038921 171.33848 
L 187.689532 167.16244 
L 188.340142 167.41087 
L 189.641363 174.745133 
L 190.291973 175.46852 
L 190.942583 175.959758 
L 191.593194 174.661734 
L 192.894414 180.525667 
L 193.545025 182.186719 
L 194.195635 180.314864 
L 194.846245 179.93548 
L 196.147466 184.65285 
L 196.798076 186.957064 
L 197.448686 183.123744 
L 198.099297 180.623873 
L 198.749907 181.218576 
L 199.400517 183.268168 
L 200.051128 187.524783 
L 200.701738 187.074109 
L 201.352348 186.066762 
L 202.002959 185.942919 
L 203.304179 189.858563 
L 203.95479 189.260173 
L 204.6054 188.0607 
L 205.25601 188.290346 
L 205.906621 187.558442 
L 206.557231 189.719778 
L 207.858451 186.893312 
L 208.509062 187.287475 
L 209.159672 187.07873 
L 209.810282 185.604051 
L 210.460893 185.785589 
L 211.111503 184.550412 
L 211.762113 183.837166 
L 212.412724 183.917251 
L 213.063334 183.057413 
L 213.713944 182.834756 
L 214.364555 181.381416 
L 215.015165 182.247934 
L 215.665775 183.649111 
L 216.316385 183.43685 
L 216.966996 184.553878 
L 217.617606 183.577493 
L 218.268216 181.981051 
L 218.918827 181.048534 
L 219.569437 182.267906 
L 220.220047 182.562312 
L 220.870658 181.876569 
L 221.521268 181.979761 
L 222.171878 182.723499 
L 223.473099 180.539693 
L 224.123709 181.048002 
L 224.77432 181.710401 
L 225.42493 181.375075 
L 226.07554 180.779711 
L 226.72615 182.171213 
L 227.376761 182.437617 
L 228.027371 182.337551 
L 228.677981 182.108248 
L 229.328592 181.020192 
L 229.979202 181.771248 
L 230.629812 181.049257 
L 231.280423 180.562808 
L 231.931033 181.175345 
L 232.581643 179.849073 
L 233.232254 181.056409 
L 233.882864 182.567776 
L 234.533474 182.018014 
L 235.184085 179.356551 
L 235.834695 180.241031 
L 236.485305 179.827581 
L 237.135915 182.195082 
L 237.786526 181.739067 
L 238.437136 180.786351 
L 239.087746 178.327535 
L 239.738357 178.84675 
L 240.388967 180.683276 
L 241.039577 181.14721 
L 241.690188 179.857593 
L 242.340798 179.500981 
L 242.991408 179.306292 
L 244.292629 181.510559 
L 244.943239 180.496462 
L 245.59385 179.903439 
L 246.24446 182.275494 
L 246.89507 181.980474 
L 247.54568 180.943353 
L 248.196291 180.266063 
L 248.846901 180.056039 
L 249.497511 180.174875 
L 250.148122 181.91302 
L 250.798732 179.866725 
L 251.449342 180.358807 
L 252.099953 181.958415 
L 252.750563 182.604065 
L 253.401173 182.534481 
L 254.051784 181.596532 
L 254.702394 178.792916 
L 255.353004 177.323208 
L 256.003615 178.02404 
L 257.304835 180.266651 
L 257.955445 179.144275 
L 259.256666 181.185043 
L 259.907276 180.197229 
L 260.557887 179.883928 
L 261.208497 180.662369 
L 261.859107 179.81282 
L 262.509718 180.828799 
L 263.160328 183.717535 
L 263.810938 187.627748 
L 264.461549 189.160402 
L 265.112159 189.128114 
L 266.413379 194.540225 
L 267.06399 194.976725 
L 268.36521 199.972774 
L 269.015821 203.549004 
L 269.666431 203.549944 
L 270.317041 199.883188 
L 270.967652 195.363335 
L 271.618262 189.747677 
L 272.268872 185.138003 
L 272.919483 185.238078 
L 273.570093 184.170368 
L 274.871314 179.858999 
L 275.521924 177.967769 
L 276.823144 169.446953 
L 277.473755 166.215568 
L 278.124365 164.968104 
L 279.425586 164.825961 
L 280.076196 164.098021 
L 280.726806 165.098882 
L 281.377417 163.763235 
L 282.028027 164.697257 
L 282.678637 165.093645 
L 283.329248 164.432694 
L 283.979858 163.461374 
L 284.630468 165.576159 
L 285.281079 165.50056 
L 285.931689 166.962741 
L 286.582299 169.411995 
L 287.232909 171.146894 
L 287.88352 180.123221 
L 288.53413 193.17586 
L 289.18474 198.926839 
L 289.835351 199.439407 
L 290.485961 219.71418 
L 291.787182 287.522113 
L 292.437792 295.488 
L 293.088402 240.281126 
L 293.739013 162.664392 
L 294.389623 110.364318 
L 295.690844 65.504799 
L 296.341454 64.557604 
L 296.992064 82.921357 
L 297.642674 95.831524 
L 298.293285 102.7947 
L 298.943895 115.365685 
L 299.594505 145.931002 
L 300.245116 167.252984 
L 300.895726 171.111923 
L 301.546336 164.395529 
L 302.196947 162.778386 
L 303.498167 189.315989 
L 304.148778 184.366738 
L 304.799388 173.409813 
L 305.449998 172.790395 
L 306.100608 182.494742 
L 306.751219 189.763498 
L 307.401829 186.593739 
L 308.052439 176.158135 
L 308.70305 174.73466 
L 309.35366 183.954692 
L 310.00427 188.798405 
L 310.654881 184.196396 
L 311.305491 178.403749 
L 311.956101 177.846703 
L 312.606712 184.581097 
L 313.257322 187.835933 
L 313.907932 186.604844 
L 314.558543 179.512356 
L 315.209153 176.922808 
L 315.859763 181.604672 
L 316.510373 184.32825 
L 317.160984 183.996254 
L 317.811594 182.085003 
L 318.462204 181.024869 
L 319.112815 184.648928 
L 319.763425 185.868845 
L 320.414035 185.457705 
L 321.064646 186.559491 
L 321.715256 186.627669 
L 322.365866 188.791488 
L 323.016477 190.240793 
L 323.667087 190.346185 
L 324.317697 189.254297 
L 324.968308 190.379685 
L 325.618918 190.34212 
L 326.269528 190.72571 
L 326.920138 192.398868 
L 327.570749 192.508898 
L 328.221359 193.313301 
L 328.871969 194.62671 
L 330.17319 200.486399 
L 330.8238 201.667297 
L 331.474411 204.488389 
L 332.125021 205.267865 
L 332.775631 206.602911 
L 333.426242 209.009986 
L 334.076852 209.679625 
L 334.727462 211.807692 
L 335.378073 211.536997 
L 336.028683 210.664405 
L 337.329903 214.943289 
L 337.980514 214.86933 
L 338.631124 212.305265 
L 339.281734 209.10201 
L 340.582955 204.197631 
L 341.233565 201.31404 
L 342.534786 186.147977 
L 343.185396 180.72093 
L 343.836007 176.568249 
L 344.486617 170.623144 
L 345.787837 155.032698 
L 346.438448 152.076756 
L 347.089058 149.662031 
L 347.739668 145.871014 
L 348.390279 141.39111 
L 349.040889 138.087366 
L 349.691499 137.248307 
L 350.34211 137.889991 
L 350.99272 136.387666 
L 351.64333 131.533008 
L 352.293941 129.387648 
L 352.944551 132.559091 
L 353.595161 133.660155 
L 354.245772 134.203967 
L 354.896382 131.604964 
L 355.546992 130.994379 
L 356.197602 130.986352 
L 356.848213 133.292669 
L 357.498823 133.246135 
L 358.149433 130.723618 
L 358.800044 130.630976 
L 359.450654 131.075902 
L 360.101264 134.455771 
L 360.751875 135.430778 
L 361.402485 134.066525 
L 362.053095 133.604454 
L 362.703706 135.782999 
L 363.354316 140.30615 
L 364.004926 141.287398 
L 365.306147 139.082394 
L 365.956757 139.650633 
L 366.607367 143.089903 
L 367.257978 143.078983 
L 367.908588 143.334243 
L 368.559198 144.306996 
L 369.209809 143.707093 
L 369.860419 143.568144 
L 370.511029 144.432145 
L 371.16164 143.086547 
L 371.81225 142.464959 
L 372.46286 142.55437 
L 373.113471 145.671126 
L 373.764081 145.331714 
L 374.414691 143.516469 
L 375.065302 143.9884 
L 375.715912 145.590106 
L 376.366522 148.432475 
L 377.017132 147.286463 
L 377.667743 144.14227 
L 378.318353 142.650566 
L 378.968963 143.062345 
L 379.619574 142.190153 
L 380.270184 139.560433 
L 380.920794 140.575419 
L 381.571405 138.592161 
L 382.222015 137.332535 
L 382.872625 138.778616 
L 384.824456 134.586467 
L 385.475066 134.267303 
L 386.776287 136.57561 
L 387.426897 134.830871 
L 388.077508 135.611901 
L 388.728118 135.388711 
L 389.378728 134.151031 
L 390.029339 135.163134 
L 390.679949 134.672707 
L 391.330559 134.971687 
L 391.98117 135.679848 
L 392.63178 135.266189 
L 393.28239 134.386472 
L 393.933001 133.233981 
L 394.583611 132.610963 
L 395.884831 134.442855 
L 396.535442 135.048752 
L 397.186052 134.731075 
L 397.836662 133.119185 
L 398.487273 133.11369 
L 398.487273 133.11369 
" style="fill:none;stroke:#1f77b4;stroke-linecap:square;stroke-width:1.5;"/>
   </g>
   <g id="patch_3">
    <path d="M 57.6 307.584 
L 57.6 41.472 
" style="fill:none;stroke:#000000;stroke-linecap:square;stroke-linejoin:miter;stroke-width:0.8;"/>
   </g>
   <g id="patch_4">
    <path d="M 414.72 307.584 
L 414.72 41.472 
" style="fill:none;stroke:#000000;stroke-linecap:square;stroke-linejoin:miter;stroke-width:0.8;"/>
   </g>
   <g id="patch_5">
    <path d="M 57.6 307.584 
L 414.72 307.584 
" style="fill:none;stroke:#000000;stroke-linecap:square;stroke-linejoin:miter;stroke-width:0.8;"/>
   </g>
   <g id="patch_6">
    <path d="M 57.6 41.472 
L 414.72 41.472 
" style="fill:none;stroke:#000000;stroke-linecap:square;stroke-linejoin:miter;stroke-width:0.8;"/>
   </g>
  </g>
 </g>
 <defs>
  <clipPath id="p3bf4e7a2f4">
   <rect height="266.112" width="357.12" x="57.6" y="41.472"/>
  </clipPath>
 </defs>
</svg>
