<?xml version="1.0" encoding="utf-8" standalone="no"?>
<!DOCTYPE svg PUBLIC "-//W3C//DTD SVG 1.1//EN"
  "http://www.w3.org/Graphics/SVG/1.1/DTD/svg11.dtd">
<!-- Created with matplotlib (https://matplotlib.org/) -->
<svg height="345.6pt" version="1.1" viewBox="0 0 460.8 345.6" width="460.8pt" xmlns="http://www.w3.org/2000/svg" xmlns:xlink="http://www.w3.org/1999/xlink">
 <metadata>
  <rdf:RDF xmlns:cc="http://creativecommons.org/ns#" xmlns:dc="http://purl.org/dc/elements/1.1/" xmlns:rdf="http://www.w3.org/1999/02/22-rdf-syntax-ns#">
   <cc:Work>
    <dc:type rdf:resource="http://purl.org/dc/dcmitype/StillImage"/>
    <dc:date>2021-04-17T02:55:25.849992</dc:date>
    <dc:format>image/svg+xml</dc:format>
    <dc:creator>
     <cc:Agent>
      <dc:title>Matplotlib v3.3.3, https://matplotlib.org/</dc:title>
     </cc:Agent>
    </dc:creator>
   </cc:Work>
  </rdf:RDF>
 </metadata>
 <defs>
  <style type="text/css">*{stroke-linecap:butt;stroke-linejoin:round;}</style>
 </defs>
 <g id="figure_1">
  <g id="patch_1">
   <path d="M 0 345.6 
L 460.8 345.6 
L 460.8 0 
L 0 0 
z
" style="fill:#ffffff;"/>
  </g>
  <g id="axes_1">
   <g id="matplotlib.axis_1">
    <g id="xtick_1">
     <g id="line2d_1">
      <path clip-path="url(#pa06aa68958)" d="M 57.6 174.528 
L 57.6 41.472 
" style="fill:none;stroke:#b0b0b0;stroke-linecap:square;stroke-width:0.8;"/>
     </g>
     <g id="line2d_2">
      <defs>
       <path d="M 0 0 
L 0 3.5 
" id="m3e703b0fe4" style="stroke:#000000;stroke-width:0.8;"/>
      </defs>
      <g>
       <use style="stroke:#000000;stroke-width:0.8;" x="57.6" xlink:href="#m3e703b0fe4" y="174.528"/>
      </g>
     </g>
    </g>
    <g id="xtick_2">
     <g id="line2d_3">
      <path clip-path="url(#pa06aa68958)" d="M 129.024 174.528 
L 129.024 41.472 
" style="fill:none;stroke:#b0b0b0;stroke-linecap:square;stroke-width:0.8;"/>
     </g>
     <g id="line2d_4">
      <g>
       <use style="stroke:#000000;stroke-width:0.8;" x="129.024" xlink:href="#m3e703b0fe4" y="174.528"/>
      </g>
     </g>
    </g>
    <g id="xtick_3">
     <g id="line2d_5">
      <path clip-path="url(#pa06aa68958)" d="M 200.448 174.528 
L 200.448 41.472 
" style="fill:none;stroke:#b0b0b0;stroke-linecap:square;stroke-width:0.8;"/>
     </g>
     <g id="line2d_6">
      <g>
       <use style="stroke:#000000;stroke-width:0.8;" x="200.448" xlink:href="#m3e703b0fe4" y="174.528"/>
      </g>
     </g>
    </g>
    <g id="xtick_4">
     <g id="line2d_7">
      <path clip-path="url(#pa06aa68958)" d="M 271.872 174.528 
L 271.872 41.472 
" style="fill:none;stroke:#b0b0b0;stroke-linecap:square;stroke-width:0.8;"/>
     </g>
     <g id="line2d_8">
      <g>
       <use style="stroke:#000000;stroke-width:0.8;" x="271.872" xlink:href="#m3e703b0fe4" y="174.528"/>
      </g>
     </g>
    </g>
    <g id="xtick_5">
     <g id="line2d_9">
      <path clip-path="url(#pa06aa68958)" d="M 343.296 174.528 
L 343.296 41.472 
" style="fill:none;stroke:#b0b0b0;stroke-linecap:square;stroke-width:0.8;"/>
     </g>
     <g id="line2d_10">
      <g>
       <use style="stroke:#000000;stroke-width:0.8;" x="343.296" xlink:href="#m3e703b0fe4" y="174.528"/>
      </g>
     </g>
    </g>
    <g id="xtick_6">
     <g id="line2d_11">
      <path clip-path="url(#pa06aa68958)" d="M 414.72 174.528 
L 414.72 41.472 
" style="fill:none;stroke:#b0b0b0;stroke-linecap:square;stroke-width:0.8;"/>
     </g>
     <g id="line2d_12">
      <g>
       <use style="stroke:#000000;stroke-width:0.8;" x="414.72" xlink:href="#m3e703b0fe4" y="174.528"/>
      </g>
     </g>
    </g>
   </g>
   <g id="matplotlib.axis_2">
    <g id="ytick_1">
     <g id="line2d_13">
      <path clip-path="url(#pa06aa68958)" d="M 57.6 157.596768 
L 414.72 157.596768 
" style="fill:none;stroke:#b0b0b0;stroke-linecap:square;stroke-width:0.8;"/>
     </g>
     <g id="line2d_14">
      <defs>
       <path d="M 0 0 
L -3.5 0 
" id="mbeca348b08" style="stroke:#000000;stroke-width:0.8;"/>
      </defs>
      <g>
       <use style="stroke:#000000;stroke-width:0.8;" x="57.6" xlink:href="#mbeca348b08" y="157.596768"/>
      </g>
     </g>
     <g id="text_1">
      <!-- −0.00050 -->
      <g transform="translate(0.867188 161.395987)scale(0.1 -0.1)">
       <defs>
        <path d="M 10.59375 35.5 
L 73.1875 35.5 
L 73.1875 27.203125 
L 10.59375 27.203125 
z
" id="DejaVuSans-8722"/>
        <path d="M 31.78125 66.40625 
Q 24.171875 66.40625 20.328125 58.90625 
Q 16.5 51.421875 16.5 36.375 
Q 16.5 21.390625 20.328125 13.890625 
Q 24.171875 6.390625 31.78125 6.390625 
Q 39.453125 6.390625 43.28125 13.890625 
Q 47.125 21.390625 47.125 36.375 
Q 47.125 51.421875 43.28125 58.90625 
Q 39.453125 66.40625 31.78125 66.40625 
z
M 31.78125 74.21875 
Q 44.046875 74.21875 50.515625 64.515625 
Q 56.984375 54.828125 56.984375 36.375 
Q 56.984375 17.96875 50.515625 8.265625 
Q 44.046875 -1.421875 31.78125 -1.421875 
Q 19.53125 -1.421875 13.0625 8.265625 
Q 6.59375 17.96875 6.59375 36.375 
Q 6.59375 54.828125 13.0625 64.515625 
Q 19.53125 74.21875 31.78125 74.21875 
z
" id="DejaVuSans-48"/>
        <path d="M 10.6875 12.40625 
L 21 12.40625 
L 21 0 
L 10.6875 0 
z
" id="DejaVuSans-46"/>
        <path d="M 10.796875 72.90625 
L 49.515625 72.90625 
L 49.515625 64.59375 
L 19.828125 64.59375 
L 19.828125 46.734375 
Q 21.96875 47.46875 24.109375 47.828125 
Q 26.265625 48.1875 28.421875 48.1875 
Q 40.625 48.1875 47.75 41.5 
Q 54.890625 34.8125 54.890625 23.390625 
Q 54.890625 11.625 47.5625 5.09375 
Q 40.234375 -1.421875 26.90625 -1.421875 
Q 22.3125 -1.421875 17.546875 -0.640625 
Q 12.796875 0.140625 7.71875 1.703125 
L 7.71875 11.625 
Q 12.109375 9.234375 16.796875 8.0625 
Q 21.484375 6.890625 26.703125 6.890625 
Q 35.15625 6.890625 40.078125 11.328125 
Q 45.015625 15.765625 45.015625 23.390625 
Q 45.015625 31 40.078125 35.4375 
Q 35.15625 39.890625 26.703125 39.890625 
Q 22.75 39.890625 18.8125 39.015625 
Q 14.890625 38.140625 10.796875 36.28125 
z
" id="DejaVuSans-53"/>
       </defs>
       <use xlink:href="#DejaVuSans-8722"/>
       <use x="83.789062" xlink:href="#DejaVuSans-48"/>
       <use x="147.412109" xlink:href="#DejaVuSans-46"/>
       <use x="179.199219" xlink:href="#DejaVuSans-48"/>
       <use x="242.822266" xlink:href="#DejaVuSans-48"/>
       <use x="306.445312" xlink:href="#DejaVuSans-48"/>
       <use x="370.068359" xlink:href="#DejaVuSans-53"/>
       <use x="433.691406" xlink:href="#DejaVuSans-48"/>
      </g>
     </g>
    </g>
    <g id="ytick_2">
     <g id="line2d_15">
      <path clip-path="url(#pa06aa68958)" d="M 57.6 131.709313 
L 414.72 131.709313 
" style="fill:none;stroke:#b0b0b0;stroke-linecap:square;stroke-width:0.8;"/>
     </g>
     <g id="line2d_16">
      <g>
       <use style="stroke:#000000;stroke-width:0.8;" x="57.6" xlink:href="#mbeca348b08" y="131.709313"/>
      </g>
     </g>
     <g id="text_2">
      <!-- −0.00025 -->
      <g transform="translate(0.867188 135.508532)scale(0.1 -0.1)">
       <defs>
        <path d="M 19.1875 8.296875 
L 53.609375 8.296875 
L 53.609375 0 
L 7.328125 0 
L 7.328125 8.296875 
Q 12.9375 14.109375 22.625 23.890625 
Q 32.328125 33.6875 34.8125 36.53125 
Q 39.546875 41.84375 41.421875 45.53125 
Q 43.3125 49.21875 43.3125 52.78125 
Q 43.3125 58.59375 39.234375 62.25 
Q 35.15625 65.921875 28.609375 65.921875 
Q 23.96875 65.921875 18.8125 64.3125 
Q 13.671875 62.703125 7.8125 59.421875 
L 7.8125 69.390625 
Q 13.765625 71.78125 18.9375 73 
Q 24.125 74.21875 28.421875 74.21875 
Q 39.75 74.21875 46.484375 68.546875 
Q 53.21875 62.890625 53.21875 53.421875 
Q 53.21875 48.921875 51.53125 44.890625 
Q 49.859375 40.875 45.40625 35.40625 
Q 44.1875 33.984375 37.640625 27.21875 
Q 31.109375 20.453125 19.1875 8.296875 
z
" id="DejaVuSans-50"/>
       </defs>
       <use xlink:href="#DejaVuSans-8722"/>
       <use x="83.789062" xlink:href="#DejaVuSans-48"/>
       <use x="147.412109" xlink:href="#DejaVuSans-46"/>
       <use x="179.199219" xlink:href="#DejaVuSans-48"/>
       <use x="242.822266" xlink:href="#DejaVuSans-48"/>
       <use x="306.445312" xlink:href="#DejaVuSans-48"/>
       <use x="370.068359" xlink:href="#DejaVuSans-50"/>
       <use x="433.691406" xlink:href="#DejaVuSans-53"/>
      </g>
     </g>
    </g>
    <g id="ytick_3">
     <g id="line2d_17">
      <path clip-path="url(#pa06aa68958)" d="M 57.6 105.821858 
L 414.72 105.821858 
" style="fill:none;stroke:#b0b0b0;stroke-linecap:square;stroke-width:0.8;"/>
     </g>
     <g id="line2d_18">
      <g>
       <use style="stroke:#000000;stroke-width:0.8;" x="57.6" xlink:href="#mbeca348b08" y="105.821858"/>
      </g>
     </g>
     <g id="text_3">
      <!-- 0.00000 -->
      <g transform="translate(9.246875 109.621077)scale(0.1 -0.1)">
       <use xlink:href="#DejaVuSans-48"/>
       <use x="63.623047" xlink:href="#DejaVuSans-46"/>
       <use x="95.410156" xlink:href="#DejaVuSans-48"/>
       <use x="159.033203" xlink:href="#DejaVuSans-48"/>
       <use x="222.65625" xlink:href="#DejaVuSans-48"/>
       <use x="286.279297" xlink:href="#DejaVuSans-48"/>
       <use x="349.902344" xlink:href="#DejaVuSans-48"/>
      </g>
     </g>
    </g>
    <g id="ytick_4">
     <g id="line2d_19">
      <path clip-path="url(#pa06aa68958)" d="M 57.6 79.934404 
L 414.72 79.934404 
" style="fill:none;stroke:#b0b0b0;stroke-linecap:square;stroke-width:0.8;"/>
     </g>
     <g id="line2d_20">
      <g>
       <use style="stroke:#000000;stroke-width:0.8;" x="57.6" xlink:href="#mbeca348b08" y="79.934404"/>
      </g>
     </g>
     <g id="text_4">
      <!-- 0.00025 -->
      <g transform="translate(9.246875 83.733622)scale(0.1 -0.1)">
       <use xlink:href="#DejaVuSans-48"/>
       <use x="63.623047" xlink:href="#DejaVuSans-46"/>
       <use x="95.410156" xlink:href="#DejaVuSans-48"/>
       <use x="159.033203" xlink:href="#DejaVuSans-48"/>
       <use x="222.65625" xlink:href="#DejaVuSans-48"/>
       <use x="286.279297" xlink:href="#DejaVuSans-50"/>
       <use x="349.902344" xlink:href="#DejaVuSans-53"/>
      </g>
     </g>
    </g>
    <g id="ytick_5">
     <g id="line2d_21">
      <path clip-path="url(#pa06aa68958)" d="M 57.6 54.046949 
L 414.72 54.046949 
" style="fill:none;stroke:#b0b0b0;stroke-linecap:square;stroke-width:0.8;"/>
     </g>
     <g id="line2d_22">
      <g>
       <use style="stroke:#000000;stroke-width:0.8;" x="57.6" xlink:href="#mbeca348b08" y="54.046949"/>
      </g>
     </g>
     <g id="text_5">
      <!-- 0.00050 -->
      <g transform="translate(9.246875 57.846168)scale(0.1 -0.1)">
       <use xlink:href="#DejaVuSans-48"/>
       <use x="63.623047" xlink:href="#DejaVuSans-46"/>
       <use x="95.410156" xlink:href="#DejaVuSans-48"/>
       <use x="159.033203" xlink:href="#DejaVuSans-48"/>
       <use x="222.65625" xlink:href="#DejaVuSans-48"/>
       <use x="286.279297" xlink:href="#DejaVuSans-53"/>
       <use x="349.902344" xlink:href="#DejaVuSans-48"/>
      </g>
     </g>
    </g>
   </g>
   <g id="line2d_23">
    <path clip-path="url(#pa06aa68958)" d="M 57.314304 100.50275 
L 57.885696 101.829187 
L 58.171392 98.032128 
L 58.457088 97.253463 
L 58.742784 98.854407 
L 59.02848 98.608561 
L 59.314176 99.820521 
L 59.885568 96.530301 
L 60.171264 96.937661 
L 60.45696 99.192558 
L 60.742656 99.686574 
L 61.028352 99.327054 
L 61.314048 102.756153 
L 61.599744 101.647967 
L 61.88544 94.486021 
L 62.171136 95.493513 
L 62.742528 101.718871 
L 63.028224 101.800385 
L 63.599616 98.224398 
L 63.885312 102.536054 
L 64.171008 104.191397 
L 64.456704 100.710759 
L 64.7424 98.645023 
L 65.028096 98.97251 
L 65.313792 95.702708 
L 65.599488 95.191317 
L 65.885184 100.793378 
L 66.17088 102.579055 
L 66.456576 100.213915 
L 66.742272 99.742072 
L 67.313664 95.740395 
L 67.59936 95.574154 
L 67.885056 97.940598 
L 68.170752 101.631429 
L 68.456448 100.479712 
L 68.742144 96.993327 
L 69.02784 97.850812 
L 69.599232 101.766229 
L 69.884928 99.558349 
L 70.45632 104.997654 
L 70.742016 103.954467 
L 71.027712 101.474794 
L 71.313408 97.544781 
L 71.599104 95.379448 
L 71.8848 96.544538 
L 72.170496 99.355454 
L 72.456192 100.642326 
L 72.741888 99.812059 
L 73.31328 96.618571 
L 73.598976 96.832379 
L 74.170368 97.413443 
L 74.456064 98.40854 
L 74.74176 98.468581 
L 75.027456 97.77361 
L 75.313152 98.525765 
L 75.598848 101.171577 
L 75.884544 101.913571 
L 76.17024 99.203705 
L 76.455936 98.983353 
L 76.741632 97.894343 
L 77.313024 99.391058 
L 77.59872 102.845856 
L 77.884416 100.356706 
L 78.170112 101.548593 
L 78.741504 94.958994 
L 79.0272 96.162584 
L 79.598592 107.625899 
L 79.884288 109.340833 
L 80.169984 109.086172 
L 80.45568 106.635213 
L 80.741376 102.045367 
L 81.027072 100.156289 
L 81.312768 100.090722 
L 81.598464 99.858165 
L 81.88416 97.699849 
L 82.169856 97.951433 
L 82.455552 103.203259 
L 82.741248 102.012781 
L 83.026944 95.730373 
L 83.31264 92.575384 
L 83.598336 91.726141 
L 83.884032 91.485781 
L 84.169728 92.773674 
L 84.455424 93.532996 
L 84.74112 91.794641 
L 85.026816 90.992983 
L 85.312512 90.918957 
L 85.883904 97.404376 
L 86.1696 94.770354 
L 86.455296 96.288581 
L 86.740992 95.944217 
L 87.312384 93.755407 
L 87.59808 95.364634 
L 87.883776 97.818706 
L 88.169472 99.022621 
L 88.455168 98.704414 
L 88.740864 103.831928 
L 89.02656 105.586559 
L 89.312256 106.456111 
L 89.597952 116.971257 
L 90.169344 145.052344 
L 90.45504 144.488978 
L 91.312128 79.586533 
L 91.88352 62.080176 
L 92.169216 61.217647 
L 92.454912 69.280414 
L 92.740608 73.218255 
L 93.026304 75.102844 
L 93.883392 96.81601 
L 94.169088 95.337558 
L 94.454784 91.460007 
L 94.74048 96.157569 
L 95.026176 103.935258 
L 95.311872 107.637896 
L 95.597568 108.617968 
L 95.883264 104.579028 
L 96.16896 104.301256 
L 96.740352 108.283841 
L 97.026048 107.76405 
L 97.311744 103.374828 
L 97.59744 104.452511 
L 97.883136 107.482863 
L 98.168832 109.167998 
L 98.454528 104.627301 
L 98.740224 103.182414 
L 99.311616 109.221088 
L 99.883008 103.005987 
L 100.168704 102.541244 
L 100.4544 106.911491 
L 100.740096 108.408233 
L 101.311488 102.517145 
L 101.597184 105.279593 
L 102.168576 116.238446 
L 102.454272 111.694555 
L 102.739968 112.845641 
L 103.025664 112.689912 
L 103.31136 109.657486 
L 103.597056 111.642398 
L 103.882752 115.397911 
L 104.168448 114.382576 
L 104.73984 109.468842 
L 105.025536 109.785779 
L 105.596928 120.676105 
L 105.882624 121.581436 
L 106.16832 118.82245 
L 106.454016 119.185209 
L 106.739712 118.442074 
L 107.025408 117.119065 
L 107.311104 117.740187 
L 107.5968 116.849458 
L 108.453888 128.067111 
L 108.739584 126.317789 
L 109.02528 120.738473 
L 109.310976 122.247319 
L 109.596672 130.242609 
L 109.882368 128.498767 
L 110.168064 129.164288 
L 110.45376 128.422087 
L 110.739456 124.348938 
L 111.025152 124.763876 
L 111.310848 124.025103 
L 111.88224 117.291547 
L 112.167936 111.887815 
L 112.453632 110.006258 
L 112.739328 114.890431 
L 113.025024 112.818751 
L 113.596416 106.091532 
L 113.882112 101.657125 
L 114.167808 100.321928 
L 114.453504 104.413896 
L 114.7392 104.019055 
L 115.024896 100.393158 
L 115.310592 95.039851 
L 115.596288 95.451735 
L 116.16768 102.524261 
L 116.453376 103.184553 
L 116.739072 101.416362 
L 117.024768 96.49538 
L 117.310464 97.425091 
L 117.59616 101.799875 
L 117.881856 101.111382 
L 118.167552 96.937695 
L 118.453248 95.183193 
L 119.02464 102.690634 
L 119.310336 101.516781 
L 119.596032 101.971351 
L 119.881728 100.827588 
L 120.167424 100.870071 
L 120.45312 99.553623 
L 120.738816 99.273519 
L 121.024512 100.429242 
L 121.595904 106.195596 
L 121.8816 106.812938 
L 122.167296 102.493175 
L 122.738688 108.045093 
L 123.024384 105.349617 
L 123.31008 105.023825 
L 123.595776 102.483866 
L 123.881472 97.685981 
L 124.167168 99.879463 
L 124.452864 105.731188 
L 125.024256 103.482799 
L 125.595648 109.84097 
L 125.881344 109.521993 
L 126.16704 106.95951 
L 126.738432 104.943229 
L 127.024128 102.652205 
L 127.309824 105.470025 
L 127.59552 115.325388 
L 127.881216 116.590561 
L 128.166912 107.595872 
L 128.452608 105.533653 
L 128.738304 105.719994 
L 129.024 103.03872 
L 129.309696 102.774046 
L 129.595392 104.80127 
L 129.881088 107.679272 
L 130.166784 108.399221 
L 130.45248 106.398315 
L 130.738176 105.369595 
L 131.309568 98.483793 
L 131.595264 102.380753 
L 131.88096 103.805677 
L 132.166656 105.891784 
L 132.452352 105.686971 
L 133.023744 107.326093 
L 133.30944 109.298566 
L 133.880832 104.881042 
L 134.166528 104.388855 
L 134.452224 101.984355 
L 134.73792 102.776089 
L 135.023616 106.88106 
L 135.309312 107.747078 
L 135.595008 107.114964 
L 135.880704 105.928457 
L 136.1664 105.885686 
L 136.452096 106.291655 
L 136.737792 104.878272 
L 137.023488 106.894368 
L 137.59488 107.759662 
L 138.166272 103.051752 
L 138.451968 106.702526 
L 138.737664 107.52846 
L 139.02336 106.521135 
L 139.594752 102.203242 
L 140.166144 107.896927 
L 140.45184 104.718018 
L 141.023232 100.621687 
L 141.308928 102.806308 
L 141.594624 109.160292 
L 141.88032 109.872668 
L 142.166016 107.895899 
L 142.451712 108.864974 
L 143.023104 105.577165 
L 143.3088 102.544776 
L 143.594496 103.111517 
L 143.880192 107.230007 
L 144.165888 108.002469 
L 144.451584 104.426874 
L 144.73728 105.504584 
L 145.022976 110.63792 
L 145.308672 111.510099 
L 146.16576 104.129947 
L 146.451456 103.579603 
L 146.737152 107.093667 
L 147.022848 107.929307 
L 147.308544 104.883143 
L 147.59424 106.080025 
L 148.165632 110.275284 
L 148.451328 111.511265 
L 148.737024 109.110861 
L 149.02272 105.216954 
L 149.308416 104.396162 
L 149.594112 110.65433 
L 149.879808 114.186465 
L 150.165504 115.130124 
L 150.4512 113.831626 
L 150.736896 113.850443 
L 151.022592 114.976071 
L 151.308288 114.143969 
L 151.593984 110.944784 
L 152.165376 121.498072 
L 152.451072 121.100781 
L 153.022464 113.984947 
L 153.30816 112.004414 
L 153.593856 118.270028 
L 153.879552 120.428696 
L 154.450944 106.406561 
L 154.73664 108.790682 
L 155.022336 112.995319 
L 155.308032 112.184454 
L 155.593728 108.582759 
L 155.879424 107.236603 
L 156.450816 99.151932 
L 156.736512 106.352686 
L 157.307904 111.453574 
L 157.879296 104.838558 
L 158.736384 108.971142 
L 159.02208 108.310035 
L 159.307776 110.640533 
L 159.593472 111.662213 
L 160.164864 105.912316 
L 160.45056 110.327374 
L 161.307648 126.970118 
L 161.87904 156.859993 
L 162.164736 161.052449 
L 163.021824 94.153276 
L 163.593216 78.808285 
L 163.878912 74.573398 
L 164.164608 80.554438 
L 164.736 88.054755 
L 165.593088 109.690089 
L 165.878784 111.952146 
L 166.16448 106.070043 
L 166.450176 106.597795 
L 166.735872 117.211406 
L 167.021568 122.342591 
L 167.307264 122.153047 
L 167.59296 118.501276 
L 167.878656 111.536465 
L 168.164352 114.11685 
L 168.450048 119.601331 
L 168.735744 121.429111 
L 169.307136 114.521217 
L 169.592832 118.249961 
L 170.164224 120.749367 
L 170.44992 120.663503 
L 170.735616 116.35427 
L 171.021312 117.272288 
L 171.307008 121.423877 
L 171.592704 121.633024 
L 171.8784 122.341294 
L 172.164096 120.59646 
L 172.449792 120.605956 
L 172.735488 123.34989 
L 173.021184 122.22476 
L 173.30688 122.022242 
L 173.878272 120.778622 
L 174.449664 125.758263 
L 174.73536 127.058432 
L 175.021056 125.636133 
L 175.592448 121.75481 
L 175.878144 124.160873 
L 176.16384 123.470554 
L 176.449536 126.446567 
L 177.020928 128.338377 
L 177.306624 126.831708 
L 177.59232 126.385013 
L 177.878016 126.845544 
L 178.449408 133.866465 
L 178.735104 135.661126 
L 179.0208 136.577566 
L 179.306496 135.249721 
L 179.592192 131.190412 
L 179.877888 133.224339 
L 180.163584 136.702549 
L 180.734976 138.107716 
L 181.020672 136.626209 
L 181.306368 135.746408 
L 181.592064 136.50132 
L 181.87776 137.953989 
L 182.163456 137.720427 
L 182.449152 135.329918 
L 182.734848 131.628485 
L 183.020544 131.446016 
L 183.30624 131.464793 
L 183.591936 129.993073 
L 184.163328 118.058042 
L 184.449024 121.225593 
L 184.73472 121.16466 
L 185.020416 121.492142 
L 185.591808 116.606449 
L 185.877504 112.530635 
L 186.1632 111.722253 
L 186.448896 112.711747 
L 186.734592 112.590301 
L 187.020288 107.83952 
L 187.305984 108.206094 
L 187.59168 108.197089 
L 188.163072 101.849003 
L 188.448768 106.006696 
L 188.734464 106.097043 
L 189.02016 102.570636 
L 189.305856 103.640066 
L 189.591552 107.151044 
L 189.877248 106.302041 
L 190.162944 109.13233 
L 190.44864 110.292389 
L 190.734336 108.838184 
L 191.305728 103.306824 
L 191.87712 100.630661 
L 192.162816 102.193317 
L 192.448512 108.428954 
L 192.734208 108.681259 
L 193.019904 106.422207 
L 193.3056 111.730738 
L 193.591296 109.998083 
L 193.876992 107.302641 
L 194.162688 107.627464 
L 194.448384 108.283559 
L 194.73408 104.849401 
L 195.019776 103.393719 
L 195.305472 104.81461 
L 195.591168 108.393749 
L 195.876864 110.371647 
L 196.16256 110.907629 
L 196.448256 110.694885 
L 196.733952 108.149736 
L 197.019648 103.928037 
L 197.305344 101.927093 
L 197.59104 103.035345 
L 197.876736 107.961399 
L 198.162432 115.225436 
L 198.448128 115.98359 
L 198.733824 111.252328 
L 199.01952 108.529337 
L 199.305216 108.673198 
L 199.590912 105.439658 
L 199.876608 106.168429 
L 200.162304 104.322918 
L 200.448 105.055229 
L 200.733696 106.177283 
L 201.019392 103.35569 
L 201.305088 103.649424 
L 201.590784 108.059883 
L 201.87648 110.432257 
L 202.162176 105.96634 
L 202.447872 97.831815 
L 203.019264 108.697683 
L 203.30496 109.774981 
L 203.590656 108.362051 
L 203.876352 104.47991 
L 204.162048 103.703462 
L 204.447744 101.859469 
L 204.73344 101.916405 
L 205.019136 105.723526 
L 205.304832 107.539285 
L 205.590528 106.144091 
L 205.876224 103.260665 
L 206.16192 105.534475 
L 206.733312 105.047533 
L 207.019008 104.553102 
L 207.304704 102.869598 
L 207.5904 104.271581 
L 207.876096 107.391134 
L 208.161792 106.666276 
L 208.447488 102.352859 
L 208.733184 101.336537 
L 209.01888 101.425691 
L 209.304576 100.654442 
L 209.875968 104.83781 
L 210.44736 101.65768 
L 210.733056 103.000682 
L 211.018752 102.992761 
L 211.304448 101.040766 
L 211.590144 100.444958 
L 211.87584 103.809653 
L 212.161536 104.390796 
L 212.447232 105.565883 
L 212.732928 100.426348 
L 213.018624 103.135652 
L 213.30432 101.87216 
L 213.875712 106.663289 
L 214.447104 99.901665 
L 214.7328 102.439574 
L 215.018496 101.762298 
L 215.304192 101.872868 
L 215.589888 105.527054 
L 215.875584 101.317939 
L 216.446976 97.507201 
L 217.018368 99.826392 
L 217.304064 102.91569 
L 217.58976 102.960624 
L 217.875456 101.341505 
L 218.161152 103.939664 
L 218.446848 103.78399 
L 218.732544 101.393051 
L 219.01824 103.018462 
L 219.303936 103.725045 
L 219.589632 106.559318 
L 219.875328 107.263328 
L 220.44672 101.533207 
L 221.589504 109.884418 
L 221.8752 108.430903 
L 222.446592 114.664163 
L 222.732288 114.097276 
L 223.30368 106.240158 
L 223.589376 105.444912 
L 223.875072 103.074372 
L 224.160768 104.222774 
L 224.446464 108.194676 
L 224.73216 108.80865 
L 225.303552 101.520738 
L 225.589248 101.453512 
L 225.874944 101.515417 
L 226.16064 98.249731 
L 226.446336 99.61643 
L 227.017728 94.244967 
L 227.58912 98.397684 
L 227.874816 100.641932 
L 228.446208 99.356603 
L 228.731904 100.957781 
L 229.0176 96.676921 
L 229.303296 90.499285 
L 229.588992 91.228646 
L 230.160384 102.232899 
L 230.731776 112.490026 
L 231.303168 108.472318 
L 231.588864 111.46603 
L 232.445952 152.090452 
L 232.731648 133.351439 
L 233.30304 79.968568 
L 233.588736 69.102163 
L 233.874432 65.178219 
L 234.160128 67.931147 
L 234.445824 72.017922 
L 234.73152 72.747759 
L 235.017216 72.700181 
L 235.302912 77.666831 
L 235.874304 98.758394 
L 236.16 101.926649 
L 236.731392 97.135491 
L 237.017088 103.550628 
L 237.302784 107.417755 
L 237.58848 107.141868 
L 238.159872 99.37297 
L 238.445568 103.252787 
L 238.731264 105.432615 
L 239.01696 103.38741 
L 239.302656 98.549332 
L 239.588352 99.212745 
L 239.874048 103.605874 
L 240.159744 110.058189 
L 240.44544 109.128474 
L 240.731136 101.556081 
L 241.016832 100.544718 
L 241.302528 103.562904 
L 241.588224 110.210149 
L 241.87392 111.310307 
L 242.159616 104.998399 
L 242.445312 103.88257 
L 243.016704 108.790348 
L 243.3024 107.103766 
L 243.588096 103.12361 
L 243.873792 104.0612 
L 244.159488 106.156931 
L 244.73088 108.456726 
L 245.302272 104.116216 
L 245.873664 110.176402 
L 246.15936 108.006201 
L 246.445056 109.261971 
L 246.730752 111.567274 
L 247.016448 112.345865 
L 247.302144 112.786857 
L 247.58784 115.767111 
L 248.159232 111.69202 
L 248.444928 111.291193 
L 249.302016 120.17535 
L 249.587712 122.195915 
L 249.873408 117.277997 
L 250.159104 114.692788 
L 250.730496 120.798965 
L 251.301888 119.334599 
L 251.587584 122.191664 
L 251.87328 121.504154 
L 252.158976 121.628649 
L 252.444672 121.536781 
L 252.730368 119.29026 
L 253.016064 118.865603 
L 253.30176 115.793532 
L 253.587456 115.629174 
L 253.873152 114.773239 
L 255.015936 101.684951 
L 255.301632 102.463537 
L 255.587328 98.156138 
L 255.873024 97.339252 
L 256.15872 98.663599 
L 256.444416 98.634468 
L 256.730112 94.15131 
L 257.015808 94.260864 
L 257.301504 91.513887 
L 257.5872 90.6752 
L 257.872896 90.192564 
L 258.158592 90.576787 
L 258.444288 88.694316 
L 258.729984 89.404559 
L 259.01568 89.011184 
L 259.301376 91.643575 
L 259.587072 97.038854 
L 259.872768 97.348811 
L 260.158464 87.217927 
L 260.44416 85.734282 
L 260.729856 91.172123 
L 261.015552 90.758514 
L 261.301248 88.757087 
L 261.586944 90.147027 
L 261.87264 92.354433 
L 262.158336 93.250249 
L 262.444032 91.345306 
L 262.729728 94.268706 
L 263.015424 91.059094 
L 263.30112 90.657645 
L 263.586816 96.816911 
L 263.872512 96.455835 
L 264.443904 90.843161 
L 264.7296 94.042039 
L 265.015296 95.84728 
L 265.586688 91.008841 
L 266.15808 99.937529 
L 266.443776 99.999523 
L 266.729472 98.9722 
L 267.300864 92.40999 
L 267.58656 95.008375 
L 268.157952 97.765025 
L 268.443648 97.464362 
L 268.729344 95.695665 
L 269.01504 96.128542 
L 269.300736 97.344987 
L 269.586432 97.770013 
L 269.872128 96.869319 
L 270.157824 95.345403 
L 270.44352 94.885651 
L 270.729216 96.96538 
L 271.014912 96.38138 
L 271.300608 93.831408 
L 271.586304 93.897354 
L 271.872 98.337473 
L 272.157696 97.861746 
L 272.443392 95.922004 
L 272.729088 96.712931 
L 273.014784 92.876459 
L 273.30048 91.40434 
L 273.586176 96.685763 
L 273.871872 98.154937 
L 274.157568 98.056381 
L 274.72896 95.228022 
L 275.014656 92.464196 
L 275.300352 93.089647 
L 275.586048 95.816388 
L 275.871744 96.757881 
L 276.15744 94.545207 
L 276.443136 93.274012 
L 276.728832 94.39023 
L 277.014528 96.641884 
L 277.300224 97.387546 
L 277.871616 92.998843 
L 278.157312 96.382607 
L 278.443008 94.444697 
L 278.728704 94.577107 
L 279.0144 95.524816 
L 279.300096 95.005963 
L 279.585792 99.424717 
L 279.871488 99.55754 
L 280.157184 97.452923 
L 280.44288 96.552911 
L 280.728576 95.241117 
L 281.014272 97.658077 
L 281.299968 101.669288 
L 281.87136 90.413801 
L 282.157056 93.419702 
L 282.442752 98.218594 
L 282.728448 100.268322 
L 283.29984 94.833294 
L 283.585536 94.287204 
L 284.156928 97.343248 
L 284.442624 97.857739 
L 284.72832 99.253565 
L 285.014016 97.729583 
L 285.299712 95.283117 
L 285.585408 94.689633 
L 285.871104 95.199118 
L 286.1568 98.218788 
L 286.442496 99.111265 
L 287.013888 97.586054 
L 287.299584 98.700875 
L 287.58528 98.553514 
L 287.870976 96.624027 
L 288.156672 97.067223 
L 288.728064 104.311243 
L 289.01376 99.194742 
L 289.299456 99.120161 
L 289.870848 93.662083 
L 290.156544 96.1216 
L 290.727936 105.843392 
L 291.013632 102.190383 
L 291.299328 100.162751 
L 291.87072 103.793493 
L 292.156416 99.522605 
L 292.727808 101.81439 
L 293.013504 100.581694 
L 293.2992 103.437947 
L 293.584896 104.915748 
L 293.870592 103.326923 
L 294.72768 108.387892 
L 295.013376 109.191697 
L 295.299072 107.900934 
L 295.584768 107.536949 
L 296.15616 107.665415 
L 296.441856 105.782348 
L 296.727552 105.001112 
L 297.013248 102.973912 
L 297.298944 104.585068 
L 297.58464 100.952772 
L 297.870336 99.12599 
L 298.156032 99.202052 
L 298.441728 98.951385 
L 298.727424 96.989312 
L 299.01312 93.618135 
L 299.298816 92.567011 
L 299.584512 94.507376 
L 300.155904 100.386045 
L 300.4416 99.754159 
L 300.727296 94.6511 
L 301.012992 94.661323 
L 301.584384 101.274848 
L 301.87008 101.578488 
L 302.441472 98.402738 
L 302.727168 95.375341 
L 303.012864 98.992119 
L 303.584256 110.166475 
L 304.155648 110.37383 
L 304.441344 124.287754 
L 304.72704 143.850573 
L 305.012736 153.197863 
L 305.298432 145.360001 
L 305.869824 90.244499 
L 306.441216 63.335739 
L 306.726912 57.811378 
L 307.298304 75.312961 
L 307.584 75.625158 
L 307.869696 78.945843 
L 308.441088 98.78711 
L 308.726784 100.775795 
L 309.01248 97.286847 
L 309.298176 98.110501 
L 309.869568 107.742121 
L 310.155264 109.180154 
L 310.726656 99.575267 
L 311.298048 107.249679 
L 311.583744 108.8251 
L 311.86944 107.913963 
L 312.155136 104.979446 
L 312.440832 104.639757 
L 313.012224 115.286493 
L 313.29792 115.276853 
L 313.869312 106.938764 
L 314.155008 108.028249 
L 314.440704 107.72734 
L 314.7264 105.619125 
L 315.012096 106.054858 
L 315.297792 105.101627 
L 315.583488 107.615684 
L 315.869184 109.043415 
L 316.15488 109.569957 
L 316.440576 107.746695 
L 316.726272 108.278508 
L 317.011968 111.411925 
L 317.297664 112.442684 
L 317.58336 109.559834 
L 317.869056 107.893734 
L 318.154752 107.526437 
L 318.440448 109.024182 
L 318.726144 108.716705 
L 319.01184 111.500859 
L 319.297536 119.217517 
L 319.583232 117.64571 
L 319.868928 114.879305 
L 320.154624 115.328728 
L 320.44032 116.022785 
L 320.726016 117.431572 
L 321.011712 115.983841 
L 321.297408 115.417358 
L 321.8688 121.459128 
L 322.154496 122.029155 
L 322.440192 118.409086 
L 322.725888 118.837842 
L 323.011584 122.726028 
L 323.582976 124.49174 
L 323.868672 126.358209 
L 324.440064 123.893293 
L 324.72576 122.815041 
L 325.011456 124.401837 
L 325.297152 124.200345 
L 325.582848 121.745089 
L 325.868544 124.454768 
L 326.15424 124.740284 
L 326.439936 123.688753 
L 326.725632 122.074268 
L 327.297024 110.234896 
L 327.58272 110.202559 
L 327.868416 108.213931 
L 328.154112 104.514891 
L 328.439808 102.838102 
L 328.725504 100.150303 
L 329.0112 96.068232 
L 329.582592 103.631612 
L 329.868288 101.968346 
L 330.153984 96.118757 
L 330.43968 96.591101 
L 330.725376 97.797443 
L 331.011072 101.165304 
L 331.296768 100.202744 
L 331.582464 95.50959 
L 331.86816 94.366239 
L 332.153856 95.311272 
L 332.439552 93.954702 
L 332.725248 93.828639 
L 333.010944 94.852812 
L 333.29664 98.094177 
L 333.582336 97.056045 
L 333.868032 98.801182 
L 334.153728 98.714723 
L 334.439424 94.51413 
L 334.72512 92.034085 
L 335.010816 93.600657 
L 335.582208 99.556887 
L 335.867904 98.227391 
L 336.1536 95.950337 
L 336.439296 99.47475 
L 336.724992 99.101116 
L 337.010688 96.173339 
L 337.296384 97.459542 
L 337.58208 100.721902 
L 337.867776 101.95184 
L 338.153472 99.748985 
L 338.439168 100.424446 
L 338.724864 100.010621 
L 339.01056 101.148208 
L 339.296256 104.068855 
L 339.581952 103.804512 
L 339.867648 101.445195 
L 340.153344 104.112188 
L 340.724736 98.354495 
L 341.010432 100.883736 
L 341.296128 105.584384 
L 341.86752 101.106554 
L 342.153216 102.49465 
L 342.438912 98.011473 
L 342.724608 97.692971 
L 343.010304 100.263642 
L 343.296 104.275865 
L 343.581696 103.56508 
L 343.867392 101.425496 
L 344.153088 98.097742 
L 344.438784 98.836475 
L 344.72448 104.826465 
L 345.295872 104.227914 
L 345.581568 103.656428 
L 345.867264 102.02013 
L 346.438656 103.602832 
L 346.724352 100.840953 
L 347.295744 98.611606 
L 347.58144 101.316879 
L 347.867136 97.833259 
L 348.152832 98.584181 
L 348.438528 102.015247 
L 348.724224 103.362611 
L 349.00992 102.394935 
L 349.295616 100.732962 
L 349.581312 104.060585 
L 349.867008 105.924667 
L 350.724096 101.859353 
L 351.009792 102.216355 
L 351.295488 102.947277 
L 351.581184 102.374586 
L 351.86688 103.357311 
L 352.152576 101.944018 
L 352.438272 103.334678 
L 352.723968 100.830636 
L 353.009664 97.102388 
L 353.581056 103.195887 
L 353.866752 100.681142 
L 354.152448 99.615566 
L 354.438144 101.62556 
L 354.72384 101.044296 
L 355.009536 101.226256 
L 355.295232 103.26046 
L 355.580928 104.347057 
L 355.866624 101.534116 
L 356.438016 98.821719 
L 356.723712 99.428744 
L 357.009408 99.245167 
L 357.295104 100.832917 
L 357.5808 100.173845 
L 357.866496 97.440834 
L 358.152192 97.349283 
L 358.437888 99.759164 
L 358.723584 99.339022 
L 359.294976 104.46315 
L 359.866368 96.088898 
L 360.152064 97.887942 
L 360.43776 98.6727 
L 360.723456 102.993566 
L 361.009152 104.686655 
L 361.294848 101.138952 
L 361.580544 100.862399 
L 361.86624 98.626232 
L 362.151936 98.808273 
L 362.437632 97.927225 
L 363.009024 104.902441 
L 363.580416 98.862944 
L 363.866112 99.706673 
L 364.151808 99.210887 
L 364.437504 98.263572 
L 364.7232 99.57851 
L 365.294592 107.958814 
L 365.580288 104.308598 
L 365.865984 103.990623 
L 366.15168 106.102842 
L 366.723072 107.662194 
L 367.008768 110.840395 
L 367.294464 109.650827 
L 367.58016 105.616483 
L 367.865856 107.117315 
L 368.151552 109.492091 
L 368.437248 108.756814 
L 368.722944 109.757149 
L 369.00864 110.170805 
L 369.294336 105.037113 
L 369.580032 102.265101 
L 369.865728 101.750374 
L 370.151424 106.284561 
L 370.722816 102.377047 
L 371.008512 99.409717 
L 371.294208 99.56868 
L 371.579904 101.675942 
L 371.8656 100.554965 
L 372.151296 98.643607 
L 372.436992 99.532899 
L 373.008384 93.606878 
L 373.29408 93.68496 
L 373.579776 96.047898 
L 373.865472 101.231529 
L 374.72256 106.901692 
L 375.008256 100.35451 
L 375.293952 98.925864 
L 375.865344 106.933271 
L 376.15104 106.643961 
L 376.436736 106.178797 
L 376.722432 107.521207 
L 377.008128 112.678637 
L 377.865216 153.029964 
L 378.150912 152.226894 
L 379.008 76.457657 
L 379.579392 67.944159 
L 380.150784 76.050838 
L 380.43648 74.499246 
L 380.722176 75.414931 
L 381.007872 83.63122 
L 381.293568 97.316956 
L 381.579264 105.301089 
L 381.86496 105.214618 
L 382.150656 105.643403 
L 382.436352 107.738218 
L 383.007744 116.334857 
L 383.29344 115.267752 
L 383.579136 108.433984 
L 383.864832 105.703972 
L 384.150528 115.980147 
L 384.436224 118.291233 
L 385.007616 110.671815 
L 385.293312 108.123399 
L 385.579008 109.003618 
L 386.1504 115.715985 
L 386.436096 114.93227 
L 386.721792 110.206433 
L 387.007488 113.956932 
L 387.293184 114.788812 
L 387.57888 114.625284 
L 388.150272 112.326029 
L 388.435968 113.399772 
L 388.721664 115.352071 
L 389.293056 114.323483 
L 389.578752 115.064169 
L 389.864448 114.457507 
L 390.150144 115.601953 
L 390.43584 116.093806 
L 390.721536 119.521837 
L 391.007232 118.993278 
L 391.292928 119.578072 
L 391.578624 117.56795 
L 391.86432 114.28225 
L 392.150016 115.689999 
L 392.721408 121.917179 
L 393.007104 125.292589 
L 393.2928 125.236812 
L 393.578496 122.716555 
L 394.149888 121.260473 
L 394.435584 122.651112 
L 394.72128 127.989364 
L 395.006976 130.117457 
L 395.292672 130.437435 
L 395.578368 131.477945 
L 396.14976 127.889461 
L 396.435456 128.095244 
L 397.006848 130.689977 
L 397.292544 130.61911 
L 397.863936 132.205644 
L 398.149632 133.798055 
L 398.435328 129.587448 
L 398.721024 128.658522 
L 399.00672 128.347041 
L 399.292416 126.527406 
L 399.578112 123.701225 
L 399.863808 122.539664 
L 400.149504 118.428445 
L 400.4352 116.464736 
L 400.720896 115.863039 
L 401.577984 104.29689 
L 401.86368 108.773568 
L 402.149376 109.723735 
L 402.435072 108.048631 
L 402.720768 104.849363 
L 403.006464 103.685984 
L 403.29216 103.19634 
L 403.577856 103.708432 
L 403.863552 104.966617 
L 404.149248 102.720902 
L 404.434944 99.18239 
L 404.72064 101.661271 
L 405.006336 108.693073 
L 405.292032 106.279808 
L 405.577728 102.656708 
L 406.14912 105.204083 
L 406.434816 102.344267 
L 406.720512 103.484686 
L 407.006208 102.189054 
L 407.291904 99.392346 
L 407.863296 105.762646 
L 408.148992 107.458978 
L 408.434688 105.861643 
L 409.291776 109.497269 
L 409.577472 108.903779 
L 409.863168 105.161971 
L 410.148864 106.288781 
L 410.43456 105.77264 
L 410.720256 107.261969 
L 411.005952 109.674378 
L 411.577344 105.095052 
L 411.86304 105.830579 
L 412.148736 105.201681 
L 412.434432 106.744615 
L 412.720128 110.464837 
L 413.005824 110.136321 
L 413.29152 104.687709 
L 413.862912 116.472282 
L 414.148608 113.932235 
L 414.434304 108.835343 
L 414.72 111.144345 
L 415.005696 111.606202 
L 415.005696 111.606202 
" style="fill:none;stroke:#7f7f7f;stroke-linecap:square;stroke-width:1.5;"/>
   </g>
  </g>
  <g id="axes_2">
   <g id="matplotlib.axis_3">
    <g id="xtick_7">
     <g id="line2d_24">
      <path clip-path="url(#p01b85adb7b)" d="M 57.6 307.584 
L 57.6 174.528 
" style="fill:none;stroke:#b0b0b0;stroke-linecap:square;stroke-width:0.8;"/>
     </g>
     <g id="line2d_25">
      <g>
       <use style="stroke:#000000;stroke-width:0.8;" x="57.6" xlink:href="#m3e703b0fe4" y="307.584"/>
      </g>
     </g>
     <g id="text_6">
      <!-- 70 -->
      <g transform="translate(51.2375 322.182437)scale(0.1 -0.1)">
       <defs>
        <path d="M 8.203125 72.90625 
L 55.078125 72.90625 
L 55.078125 68.703125 
L 28.609375 0 
L 18.3125 0 
L 43.21875 64.59375 
L 8.203125 64.59375 
z
" id="DejaVuSans-55"/>
       </defs>
       <use xlink:href="#DejaVuSans-55"/>
       <use x="63.623047" xlink:href="#DejaVuSans-48"/>
      </g>
     </g>
    </g>
    <g id="xtick_8">
     <g id="line2d_26">
      <path clip-path="url(#p01b85adb7b)" d="M 129.024 307.584 
L 129.024 174.528 
" style="fill:none;stroke:#b0b0b0;stroke-linecap:square;stroke-width:0.8;"/>
     </g>
     <g id="line2d_27">
      <g>
       <use style="stroke:#000000;stroke-width:0.8;" x="129.024" xlink:href="#m3e703b0fe4" y="307.584"/>
      </g>
     </g>
     <g id="text_7">
      <!-- 71 -->
      <g transform="translate(122.6615 322.182437)scale(0.1 -0.1)">
       <defs>
        <path d="M 12.40625 8.296875 
L 28.515625 8.296875 
L 28.515625 63.921875 
L 10.984375 60.40625 
L 10.984375 69.390625 
L 28.421875 72.90625 
L 38.28125 72.90625 
L 38.28125 8.296875 
L 54.390625 8.296875 
L 54.390625 0 
L 12.40625 0 
z
" id="DejaVuSans-49"/>
       </defs>
       <use xlink:href="#DejaVuSans-55"/>
       <use x="63.623047" xlink:href="#DejaVuSans-49"/>
      </g>
     </g>
    </g>
    <g id="xtick_9">
     <g id="line2d_28">
      <path clip-path="url(#p01b85adb7b)" d="M 200.448 307.584 
L 200.448 174.528 
" style="fill:none;stroke:#b0b0b0;stroke-linecap:square;stroke-width:0.8;"/>
     </g>
     <g id="line2d_29">
      <g>
       <use style="stroke:#000000;stroke-width:0.8;" x="200.448" xlink:href="#m3e703b0fe4" y="307.584"/>
      </g>
     </g>
     <g id="text_8">
      <!-- 72 -->
      <g transform="translate(194.0855 322.182437)scale(0.1 -0.1)">
       <use xlink:href="#DejaVuSans-55"/>
       <use x="63.623047" xlink:href="#DejaVuSans-50"/>
      </g>
     </g>
    </g>
    <g id="xtick_10">
     <g id="line2d_30">
      <path clip-path="url(#p01b85adb7b)" d="M 271.872 307.584 
L 271.872 174.528 
" style="fill:none;stroke:#b0b0b0;stroke-linecap:square;stroke-width:0.8;"/>
     </g>
     <g id="line2d_31">
      <g>
       <use style="stroke:#000000;stroke-width:0.8;" x="271.872" xlink:href="#m3e703b0fe4" y="307.584"/>
      </g>
     </g>
     <g id="text_9">
      <!-- 73 -->
      <g transform="translate(265.5095 322.182437)scale(0.1 -0.1)">
       <defs>
        <path d="M 40.578125 39.3125 
Q 47.65625 37.796875 51.625 33 
Q 55.609375 28.21875 55.609375 21.1875 
Q 55.609375 10.40625 48.1875 4.484375 
Q 40.765625 -1.421875 27.09375 -1.421875 
Q 22.515625 -1.421875 17.65625 -0.515625 
Q 12.796875 0.390625 7.625 2.203125 
L 7.625 11.71875 
Q 11.71875 9.328125 16.59375 8.109375 
Q 21.484375 6.890625 26.8125 6.890625 
Q 36.078125 6.890625 40.9375 10.546875 
Q 45.796875 14.203125 45.796875 21.1875 
Q 45.796875 27.640625 41.28125 31.265625 
Q 36.765625 34.90625 28.71875 34.90625 
L 20.21875 34.90625 
L 20.21875 43.015625 
L 29.109375 43.015625 
Q 36.375 43.015625 40.234375 45.921875 
Q 44.09375 48.828125 44.09375 54.296875 
Q 44.09375 59.90625 40.109375 62.90625 
Q 36.140625 65.921875 28.71875 65.921875 
Q 24.65625 65.921875 20.015625 65.03125 
Q 15.375 64.15625 9.8125 62.3125 
L 9.8125 71.09375 
Q 15.4375 72.65625 20.34375 73.4375 
Q 25.25 74.21875 29.59375 74.21875 
Q 40.828125 74.21875 47.359375 69.109375 
Q 53.90625 64.015625 53.90625 55.328125 
Q 53.90625 49.265625 50.4375 45.09375 
Q 46.96875 40.921875 40.578125 39.3125 
z
" id="DejaVuSans-51"/>
       </defs>
       <use xlink:href="#DejaVuSans-55"/>
       <use x="63.623047" xlink:href="#DejaVuSans-51"/>
      </g>
     </g>
    </g>
    <g id="xtick_11">
     <g id="line2d_32">
      <path clip-path="url(#p01b85adb7b)" d="M 343.296 307.584 
L 343.296 174.528 
" style="fill:none;stroke:#b0b0b0;stroke-linecap:square;stroke-width:0.8;"/>
     </g>
     <g id="line2d_33">
      <g>
       <use style="stroke:#000000;stroke-width:0.8;" x="343.296" xlink:href="#m3e703b0fe4" y="307.584"/>
      </g>
     </g>
     <g id="text_10">
      <!-- 74 -->
      <g transform="translate(336.9335 322.182437)scale(0.1 -0.1)">
       <defs>
        <path d="M 37.796875 64.3125 
L 12.890625 25.390625 
L 37.796875 25.390625 
z
M 35.203125 72.90625 
L 47.609375 72.90625 
L 47.609375 25.390625 
L 58.015625 25.390625 
L 58.015625 17.1875 
L 47.609375 17.1875 
L 47.609375 0 
L 37.796875 0 
L 37.796875 17.1875 
L 4.890625 17.1875 
L 4.890625 26.703125 
z
" id="DejaVuSans-52"/>
       </defs>
       <use xlink:href="#DejaVuSans-55"/>
       <use x="63.623047" xlink:href="#DejaVuSans-52"/>
      </g>
     </g>
    </g>
    <g id="xtick_12">
     <g id="line2d_34">
      <path clip-path="url(#p01b85adb7b)" d="M 414.72 307.584 
L 414.72 174.528 
" style="fill:none;stroke:#b0b0b0;stroke-linecap:square;stroke-width:0.8;"/>
     </g>
     <g id="line2d_35">
      <g>
       <use style="stroke:#000000;stroke-width:0.8;" x="414.72" xlink:href="#m3e703b0fe4" y="307.584"/>
      </g>
     </g>
     <g id="text_11">
      <!-- 75 -->
      <g transform="translate(408.3575 322.182437)scale(0.1 -0.1)">
       <use xlink:href="#DejaVuSans-55"/>
       <use x="63.623047" xlink:href="#DejaVuSans-53"/>
      </g>
     </g>
    </g>
   </g>
   <g id="matplotlib.axis_4">
    <g id="ytick_6">
     <g id="line2d_36">
      <path clip-path="url(#p01b85adb7b)" d="M 57.6 286.242304 
L 414.72 286.242304 
" style="fill:none;stroke:#b0b0b0;stroke-linecap:square;stroke-width:0.8;"/>
     </g>
     <g id="line2d_37">
      <g>
       <use style="stroke:#000000;stroke-width:0.8;" x="57.6" xlink:href="#mbeca348b08" y="286.242304"/>
      </g>
     </g>
     <g id="text_12">
      <!-- −0.00010 -->
      <g transform="translate(0.867188 290.041523)scale(0.1 -0.1)">
       <use xlink:href="#DejaVuSans-8722"/>
       <use x="83.789062" xlink:href="#DejaVuSans-48"/>
       <use x="147.412109" xlink:href="#DejaVuSans-46"/>
       <use x="179.199219" xlink:href="#DejaVuSans-48"/>
       <use x="242.822266" xlink:href="#DejaVuSans-48"/>
       <use x="306.445312" xlink:href="#DejaVuSans-48"/>
       <use x="370.068359" xlink:href="#DejaVuSans-49"/>
       <use x="433.691406" xlink:href="#DejaVuSans-48"/>
      </g>
     </g>
    </g>
    <g id="ytick_7">
     <g id="line2d_38">
      <path clip-path="url(#p01b85adb7b)" d="M 57.6 263.744671 
L 414.72 263.744671 
" style="fill:none;stroke:#b0b0b0;stroke-linecap:square;stroke-width:0.8;"/>
     </g>
     <g id="line2d_39">
      <g>
       <use style="stroke:#000000;stroke-width:0.8;" x="57.6" xlink:href="#mbeca348b08" y="263.744671"/>
      </g>
     </g>
     <g id="text_13">
      <!-- −0.00005 -->
      <g transform="translate(0.867188 267.54389)scale(0.1 -0.1)">
       <use xlink:href="#DejaVuSans-8722"/>
       <use x="83.789062" xlink:href="#DejaVuSans-48"/>
       <use x="147.412109" xlink:href="#DejaVuSans-46"/>
       <use x="179.199219" xlink:href="#DejaVuSans-48"/>
       <use x="242.822266" xlink:href="#DejaVuSans-48"/>
       <use x="306.445312" xlink:href="#DejaVuSans-48"/>
       <use x="370.068359" xlink:href="#DejaVuSans-48"/>
       <use x="433.691406" xlink:href="#DejaVuSans-53"/>
      </g>
     </g>
    </g>
    <g id="ytick_8">
     <g id="line2d_40">
      <path clip-path="url(#p01b85adb7b)" d="M 57.6 241.247037 
L 414.72 241.247037 
" style="fill:none;stroke:#b0b0b0;stroke-linecap:square;stroke-width:0.8;"/>
     </g>
     <g id="line2d_41">
      <g>
       <use style="stroke:#000000;stroke-width:0.8;" x="57.6" xlink:href="#mbeca348b08" y="241.247037"/>
      </g>
     </g>
     <g id="text_14">
      <!-- 0.00000 -->
      <g transform="translate(9.246875 245.046256)scale(0.1 -0.1)">
       <use xlink:href="#DejaVuSans-48"/>
       <use x="63.623047" xlink:href="#DejaVuSans-46"/>
       <use x="95.410156" xlink:href="#DejaVuSans-48"/>
       <use x="159.033203" xlink:href="#DejaVuSans-48"/>
       <use x="222.65625" xlink:href="#DejaVuSans-48"/>
       <use x="286.279297" xlink:href="#DejaVuSans-48"/>
       <use x="349.902344" xlink:href="#DejaVuSans-48"/>
      </g>
     </g>
    </g>
    <g id="ytick_9">
     <g id="line2d_42">
      <path clip-path="url(#p01b85adb7b)" d="M 57.6 218.749404 
L 414.72 218.749404 
" style="fill:none;stroke:#b0b0b0;stroke-linecap:square;stroke-width:0.8;"/>
     </g>
     <g id="line2d_43">
      <g>
       <use style="stroke:#000000;stroke-width:0.8;" x="57.6" xlink:href="#mbeca348b08" y="218.749404"/>
      </g>
     </g>
     <g id="text_15">
      <!-- 0.00005 -->
      <g transform="translate(9.246875 222.548623)scale(0.1 -0.1)">
       <use xlink:href="#DejaVuSans-48"/>
       <use x="63.623047" xlink:href="#DejaVuSans-46"/>
       <use x="95.410156" xlink:href="#DejaVuSans-48"/>
       <use x="159.033203" xlink:href="#DejaVuSans-48"/>
       <use x="222.65625" xlink:href="#DejaVuSans-48"/>
       <use x="286.279297" xlink:href="#DejaVuSans-48"/>
       <use x="349.902344" xlink:href="#DejaVuSans-53"/>
      </g>
     </g>
    </g>
    <g id="ytick_10">
     <g id="line2d_44">
      <path clip-path="url(#p01b85adb7b)" d="M 57.6 196.251771 
L 414.72 196.251771 
" style="fill:none;stroke:#b0b0b0;stroke-linecap:square;stroke-width:0.8;"/>
     </g>
     <g id="line2d_45">
      <g>
       <use style="stroke:#000000;stroke-width:0.8;" x="57.6" xlink:href="#mbeca348b08" y="196.251771"/>
      </g>
     </g>
     <g id="text_16">
      <!-- 0.00010 -->
      <g transform="translate(9.246875 200.050989)scale(0.1 -0.1)">
       <use xlink:href="#DejaVuSans-48"/>
       <use x="63.623047" xlink:href="#DejaVuSans-46"/>
       <use x="95.410156" xlink:href="#DejaVuSans-48"/>
       <use x="159.033203" xlink:href="#DejaVuSans-48"/>
       <use x="222.65625" xlink:href="#DejaVuSans-48"/>
       <use x="286.279297" xlink:href="#DejaVuSans-49"/>
       <use x="349.902344" xlink:href="#DejaVuSans-48"/>
      </g>
     </g>
    </g>
   </g>
   <g id="line2d_46">
    <path clip-path="url(#p01b85adb7b)" d="M 57.314304 250.907438 
L 57.6 245.48167 
L 57.885696 245.517516 
L 58.171392 235.843528 
L 58.457088 236.931477 
L 58.742784 245.456019 
L 59.02848 247.554419 
L 59.314176 243.537389 
L 59.599872 231.681097 
L 59.885568 232.226823 
L 60.171264 237.026903 
L 60.45696 233.085386 
L 60.742656 225.127633 
L 61.028352 224.353283 
L 61.599744 266.788112 
L 61.88544 245.53506 
L 62.171136 244.013167 
L 62.456832 257.977872 
L 62.742528 264.184491 
L 63.31392 231.016015 
L 63.599616 234.263636 
L 63.885312 240.452592 
L 64.171008 240.441442 
L 64.456704 240.84741 
L 64.7424 243.997908 
L 65.028096 236.832674 
L 65.313792 213.926868 
L 65.599488 208.254918 
L 66.17088 249.62353 
L 66.456576 246.007064 
L 66.742272 251.388189 
L 67.313664 224.923153 
L 67.59936 227.483732 
L 68.170752 265.751969 
L 68.742144 219.850856 
L 69.02784 219.62632 
L 69.313536 228.376853 
L 69.599232 231.849187 
L 69.884928 246.938763 
L 70.170624 270.645985 
L 70.45632 271.651428 
L 70.742016 279.38271 
L 71.027712 271.774538 
L 71.313408 236.664067 
L 71.599104 223.555796 
L 72.170496 241.775134 
L 72.456192 237.150887 
L 72.741888 224.033276 
L 73.027584 226.342529 
L 73.31328 231.735381 
L 73.598976 234.571884 
L 73.884672 232.123634 
L 74.170368 233.800119 
L 74.456064 244.767514 
L 74.74176 248.998574 
L 75.027456 237.179166 
L 75.313152 236.728461 
L 75.884544 265.459617 
L 76.17024 257.328918 
L 76.455936 243.892672 
L 76.741632 221.233097 
L 77.027328 215.860139 
L 77.313024 227.482494 
L 77.59872 261.915311 
L 77.884416 248.499388 
L 78.170112 249.85957 
L 78.455808 241.963479 
L 78.741504 223.881 
L 79.0272 228.243224 
L 79.312896 247.225099 
L 79.598592 254.800252 
L 79.884288 249.59748 
L 80.45568 235.028224 
L 80.741376 224.440717 
L 81.027072 226.42694 
L 81.312768 240.607934 
L 81.598464 246.935424 
L 81.88416 232.260197 
L 82.169856 233.464598 
L 82.455552 266.15614 
L 82.741248 272.648736 
L 83.026944 247.077909 
L 83.31264 232.210467 
L 83.598336 225.843059 
L 83.884032 222.715506 
L 84.455424 249.789168 
L 84.74112 240.146604 
L 85.026816 224.926077 
L 85.312512 233.612571 
L 85.598208 269.061495 
L 85.883904 284.344362 
L 86.1696 269.110397 
L 86.455296 272.645107 
L 86.740992 261.477801 
L 87.312384 223.231294 
L 87.59808 222.751072 
L 87.883776 241.57815 
L 88.169472 250.376176 
L 88.455168 237.684902 
L 88.740864 241.868935 
L 89.02656 243.297726 
L 89.312256 240.142967 
L 89.883648 257.984465 
L 90.45504 234.26281 
L 90.740736 226.801259 
L 91.026432 229.936289 
L 91.312128 241.900385 
L 91.597824 242.906636 
L 91.88352 227.405231 
L 92.169216 221.737527 
L 92.454912 240.942125 
L 92.740608 249.437312 
L 93.026304 240.043966 
L 93.312 237.547793 
L 93.597696 238.360626 
L 93.883392 238.744993 
L 94.454784 208.628393 
L 95.311872 241.929251 
L 95.597568 257.982898 
L 95.883264 256.044856 
L 96.16896 252.780765 
L 96.454656 245.457675 
L 96.740352 242.308087 
L 97.026048 247.614789 
L 97.311744 247.831119 
L 97.59744 255.194084 
L 98.168832 237.114092 
L 98.454528 228.708913 
L 98.740224 230.32133 
L 99.311616 247.507872 
L 99.883008 210.181265 
L 100.168704 215.668326 
L 100.4544 239.666814 
L 100.740096 240.145033 
L 101.311488 218.535794 
L 101.88288 280.339125 
L 102.168576 291.723474 
L 102.454272 266.921946 
L 103.025664 249.012068 
L 103.31136 233.474968 
L 103.597056 227.671487 
L 103.882752 227.301012 
L 104.168448 225.306791 
L 104.454144 232.354105 
L 104.73984 228.513597 
L 105.025536 222.40761 
L 105.311232 234.118381 
L 105.596928 254.809499 
L 105.882624 256.027642 
L 106.16832 247.171305 
L 106.454016 258.929466 
L 106.739712 262.902654 
L 107.311104 221.749814 
L 107.5968 214.580998 
L 107.882496 233.635401 
L 108.168192 262.467502 
L 108.453888 262.087552 
L 109.02528 212.313447 
L 109.310976 220.766171 
L 109.596672 259.500917 
L 109.882368 260.44463 
L 110.168064 255.423047 
L 110.739456 232.914058 
L 111.025152 243.197331 
L 111.310848 235.599136 
L 111.596544 222.175056 
L 112.167936 215.614838 
L 112.453632 230.626558 
L 112.739328 274.34652 
L 113.025024 276.913907 
L 113.31072 258.77242 
L 113.882112 208.94806 
L 114.167808 212.325741 
L 114.453504 249.759051 
L 114.7392 269.427315 
L 115.310592 222.452198 
L 115.596288 228.211684 
L 115.881984 240.1341 
L 116.16768 267.566615 
L 116.453376 277.141 
L 117.024768 219.033829 
L 117.310464 226.345459 
L 117.59616 249.069122 
L 117.881856 259.290951 
L 118.453248 222.488114 
L 118.738944 220.651474 
L 119.02464 245.054361 
L 119.310336 256.184416 
L 119.596032 262.549846 
L 120.167424 224.656887 
L 120.45312 220.358042 
L 120.738816 232.421519 
L 121.024512 237.287687 
L 121.310208 260.073056 
L 121.595904 264.560598 
L 122.167296 230.767814 
L 122.738688 262.153793 
L 123.024384 257.598601 
L 123.31008 262.879801 
L 123.595776 247.74054 
L 123.881472 220.853509 
L 124.167168 220.580014 
L 124.452864 243.526402 
L 124.73856 237.979447 
L 125.024256 224.9283 
L 125.309952 233.267066 
L 125.595648 248.937449 
L 126.16704 230.64951 
L 126.452736 236.560098 
L 126.738432 232.669317 
L 127.024128 227.087388 
L 127.309824 240.658192 
L 127.59552 270.760088 
L 127.881216 269.970181 
L 128.166912 246.283337 
L 129.024 224.804018 
L 129.309696 223.558317 
L 129.595392 227.279602 
L 130.166784 265.938702 
L 130.738176 250.583886 
L 131.309568 191.359173 
L 131.88096 234.669025 
L 132.166656 262.440113 
L 132.738048 244.079601 
L 133.023744 248.995375 
L 133.30944 259.531724 
L 133.595136 249.030676 
L 133.880832 248.502991 
L 134.166528 246.867572 
L 134.452224 225.119918 
L 134.73792 220.19308 
L 135.023616 232.273818 
L 135.309312 232.609803 
L 135.595008 240.302419 
L 135.880704 239.037653 
L 136.1664 226.634644 
L 137.023488 274.137645 
L 137.309184 266.948887 
L 137.59488 264.806186 
L 137.880576 248.878347 
L 138.166272 218.40166 
L 139.309056 256.637882 
L 139.594752 242.705089 
L 139.880448 246.515531 
L 140.166144 255.825608 
L 140.737536 217.621986 
L 141.023232 203.584276 
L 141.308928 199.793938 
L 141.88032 259.669593 
L 142.166016 261.389674 
L 142.451712 259.97552 
L 142.737408 271.259742 
L 143.023104 268.644474 
L 143.3088 240.962235 
L 143.594496 230.896655 
L 143.880192 247.649785 
L 144.165888 242.878601 
L 144.451584 227.448286 
L 144.73728 224.119888 
L 145.308672 254.210442 
L 145.880064 241.49768 
L 146.16576 226.796999 
L 146.451456 219.105078 
L 146.737152 241.424563 
L 147.022848 251.402718 
L 147.308544 242.478035 
L 147.59424 238.462031 
L 147.879936 249.447974 
L 148.165632 255.390294 
L 148.451328 236.139323 
L 148.737024 225.826016 
L 149.02272 224.289801 
L 149.308416 219.600983 
L 149.879808 276.087651 
L 150.4512 241.75665 
L 150.736896 235.803198 
L 151.022592 238.304504 
L 151.308288 232.483756 
L 151.593984 220.094512 
L 151.87968 240.911387 
L 152.165376 245.630421 
L 152.451072 239.374314 
L 152.736768 240.357231 
L 153.022464 232.981053 
L 153.30816 222.476123 
L 153.879552 267.413607 
L 154.450944 227.743288 
L 155.022336 253.378337 
L 155.593728 236.326867 
L 155.879424 244.034424 
L 156.16512 231.260661 
L 156.450816 212.125604 
L 157.307904 265.87142 
L 157.5936 255.857447 
L 157.879296 232.595998 
L 158.164992 231.049639 
L 158.450688 244.050195 
L 158.736384 248.702501 
L 159.02208 243.592605 
L 159.593472 250.934112 
L 160.45056 201.834252 
L 160.736256 223.251851 
L 161.021952 263.931551 
L 161.307648 272.571281 
L 161.593344 275.634653 
L 161.87904 266.937976 
L 162.450432 223.943202 
L 162.736128 227.148813 
L 163.021824 237.695838 
L 163.30752 239.050368 
L 163.593216 242.37532 
L 163.878912 232.54545 
L 164.164608 227.15276 
L 164.450304 233.117721 
L 165.021696 257.680642 
L 165.307392 259.913667 
L 165.593088 257.425547 
L 166.16448 225.770387 
L 166.735872 259.699457 
L 167.021568 258.325283 
L 167.307264 253.110944 
L 167.59296 242.758024 
L 167.878656 215.19846 
L 168.164352 206.847538 
L 168.735744 241.210446 
L 169.02144 250.113164 
L 169.592832 236.358613 
L 169.878528 230.05294 
L 170.44992 255.275814 
L 170.735616 254.832186 
L 171.021312 245.631748 
L 171.592704 219.287318 
L 172.164096 258.297781 
L 172.449792 252.629767 
L 172.735488 254.479084 
L 173.021184 252.377869 
L 173.30688 247.922453 
L 173.592576 240.008691 
L 173.878272 226.529215 
L 174.449664 247.706214 
L 174.73536 248.436312 
L 175.306752 241.912306 
L 175.592448 235.199206 
L 175.878144 237.466882 
L 176.16384 230.977143 
L 176.449536 239.562214 
L 176.735232 240.995807 
L 177.020928 240.051812 
L 177.59232 221.346528 
L 177.878016 223.325961 
L 178.163712 244.68493 
L 178.449408 257.375053 
L 178.735104 256.411463 
L 179.0208 254.625418 
L 179.592192 238.222782 
L 179.877888 235.69925 
L 180.163584 244.542632 
L 180.44928 249.091258 
L 180.734976 246.209742 
L 181.020672 230.273564 
L 181.306368 235.132598 
L 181.87776 252.303537 
L 182.163456 242.710705 
L 182.449152 220.754078 
L 182.734848 210.896304 
L 183.591936 254.723819 
L 184.163328 208.321226 
L 184.73472 255.344254 
L 185.020416 258.551111 
L 185.306112 250.488994 
L 185.877504 220.143042 
L 186.448896 257.895843 
L 186.734592 254.971101 
L 187.020288 248.148072 
L 187.305984 247.839768 
L 187.877376 228.989335 
L 188.448768 255.676308 
L 188.734464 240.030799 
L 189.02016 207.512757 
L 189.305856 211.31244 
L 190.162944 277.668287 
L 190.44864 276.908806 
L 191.020032 246.148057 
L 191.87712 208.145007 
L 192.162816 225.835898 
L 192.448512 257.825869 
L 192.734208 261.263199 
L 193.019904 240.815862 
L 193.876992 251.296644 
L 194.162688 249.492193 
L 194.448384 249.401857 
L 195.019776 227.312275 
L 195.305472 229.141066 
L 195.876864 261.739132 
L 196.16256 266.797163 
L 196.733952 233.537897 
L 197.305344 223.674006 
L 197.59104 217.279058 
L 197.876736 231.694992 
L 198.162432 266.389219 
L 198.448128 269.788541 
L 199.01952 245.471915 
L 199.305216 244.708827 
L 199.590912 234.774609 
L 199.876608 238.663217 
L 200.162304 240.783752 
L 200.448 253.158074 
L 200.733696 248.486327 
L 201.019392 230.54419 
L 201.305088 227.524463 
L 201.590784 246.799801 
L 201.87648 255.941889 
L 202.447872 213.431697 
L 203.019264 257.100954 
L 203.30496 259.225351 
L 203.876352 236.720152 
L 204.162048 236.447062 
L 204.447744 217.319403 
L 204.73344 212.49233 
L 205.019136 237.435965 
L 205.304832 252.000716 
L 205.590528 257.75905 
L 205.876224 253.214498 
L 206.16192 245.576602 
L 206.447616 230.371158 
L 206.733312 238.94315 
L 207.019008 244.04268 
L 207.304704 237.897971 
L 207.5904 236.358847 
L 207.876096 244.151902 
L 208.161792 247.372381 
L 208.447488 236.018028 
L 208.733184 233.875835 
L 209.01888 237.657508 
L 209.304576 238.151039 
L 209.590272 242.450849 
L 209.875968 240.369048 
L 210.161664 235.386964 
L 210.44736 236.351823 
L 210.733056 249.162954 
L 211.018752 242.549218 
L 211.304448 232.344299 
L 211.590144 230.609373 
L 211.87584 242.816132 
L 212.447232 230.169253 
L 212.732928 229.138544 
L 213.018624 253.308795 
L 213.30432 245.012386 
L 213.590016 264.908241 
L 213.875712 268.379044 
L 214.447104 224.897806 
L 214.7328 236.261724 
L 215.018496 242.802904 
L 215.304192 243.136343 
L 215.589888 251.234078 
L 215.875584 231.725271 
L 216.16128 227.382747 
L 216.446976 231.792673 
L 216.732672 240.976241 
L 217.018368 240.496679 
L 217.304064 249.774466 
L 217.58976 248.233922 
L 217.875456 236.224826 
L 218.446848 245.491697 
L 218.732544 238.290593 
L 219.01824 236.830469 
L 219.303936 238.772513 
L 219.589632 252.494697 
L 219.875328 249.814563 
L 220.161024 237.995883 
L 220.44672 231.561602 
L 220.732416 236.945497 
L 221.018112 236.34973 
L 221.303808 228.827135 
L 221.589504 240.357874 
L 221.8752 236.41373 
L 222.446592 261.916118 
L 222.732288 257.970497 
L 223.017984 235.639485 
L 223.30368 240.982343 
L 223.589376 251.999039 
L 224.160768 233.763659 
L 224.446464 239.582068 
L 224.73216 248.981641 
L 225.303552 225.407796 
L 225.589248 235.185902 
L 225.874944 248.880172 
L 226.16064 240.14822 
L 226.446336 245.20263 
L 226.732032 238.567708 
L 227.017728 226.544391 
L 227.303424 229.748641 
L 227.58912 235.452929 
L 227.874816 237.119734 
L 228.160512 235.347356 
L 228.446208 245.107046 
L 228.731904 266.700833 
L 229.303296 221.133423 
L 229.588992 229.238017 
L 229.874688 251.891729 
L 230.160384 246.919668 
L 230.731776 258.955078 
L 231.303168 232.651555 
L 231.588864 229.906058 
L 232.160256 262.490974 
L 232.445952 256.102816 
L 233.017344 218.443767 
L 233.30304 218.493269 
L 233.588736 223.590428 
L 234.160128 247.255094 
L 234.445824 237.778295 
L 234.73152 237.915772 
L 235.017216 244.057982 
L 235.302912 261.750434 
L 235.588608 249.182432 
L 235.874304 248.820827 
L 236.16 254.106205 
L 236.445696 256.424633 
L 236.731392 251.106483 
L 237.017088 248.722729 
L 237.302784 241.480161 
L 237.58848 239.175187 
L 237.874176 242.895648 
L 238.159872 231.38486 
L 238.445568 238.259425 
L 238.731264 240.170229 
L 239.302656 224.197293 
L 239.588352 227.176399 
L 240.159744 255.008973 
L 240.44544 248.183818 
L 240.731136 223.351801 
L 241.016832 208.938105 
L 241.302528 233.795558 
L 241.588224 274.774496 
L 241.87392 276.943408 
L 242.159616 249.373398 
L 242.445312 241.273229 
L 242.731008 241.759619 
L 243.016704 238.573083 
L 243.3024 233.69535 
L 243.588096 230.979848 
L 243.873792 241.497022 
L 244.159488 239.384373 
L 244.445184 232.501116 
L 244.73088 243.479035 
L 245.016576 238.720908 
L 245.302272 224.414532 
L 245.587968 234.395841 
L 245.873664 237.732083 
L 246.15936 233.559433 
L 246.730752 255.163901 
L 247.016448 249.228527 
L 247.302144 234.736959 
L 247.58784 238.223399 
L 247.873536 244.359428 
L 248.159232 247.015302 
L 248.444928 243.723992 
L 248.730624 248.707012 
L 249.01632 256.498714 
L 249.302016 255.851435 
L 249.587712 243.986062 
L 249.873408 225.861332 
L 250.159104 221.229313 
L 251.587584 269.693329 
L 252.444672 228.525337 
L 252.730368 227.08329 
L 253.016064 235.168572 
L 253.30176 232.912549 
L 253.587456 237.967984 
L 253.873152 238.79273 
L 254.158848 236.507418 
L 254.444544 231.671243 
L 254.73024 235.594682 
L 255.301632 260.533455 
L 255.587328 244.956386 
L 256.15872 256.768342 
L 256.444416 247.113722 
L 256.730112 230.880101 
L 257.301504 241.73622 
L 257.872896 239.844356 
L 258.444288 252.276713 
L 258.729984 253.437754 
L 259.301376 200.858731 
L 259.872768 262.163663 
L 260.158464 259.826713 
L 260.44416 243.651563 
L 261.015552 225.519529 
L 261.586944 249.649529 
L 261.87264 251.264681 
L 262.158336 247.828855 
L 262.444032 241.014014 
L 262.729728 254.607754 
L 263.30112 225.02888 
L 263.586816 241.292449 
L 263.872512 240.017229 
L 264.158208 231.962297 
L 264.443904 232.491845 
L 264.7296 250.17079 
L 265.015296 250.011899 
L 265.586688 204.43625 
L 266.15808 266.434951 
L 266.443776 264.980471 
L 266.729472 258.378097 
L 267.300864 230.791316 
L 267.872256 237.578131 
L 268.157952 236.938052 
L 268.443648 234.123679 
L 268.729344 229.647097 
L 269.01504 241.149372 
L 269.300736 243.16929 
L 269.586432 238.291035 
L 269.872128 247.158526 
L 270.157824 247.062484 
L 270.44352 234.109325 
L 271.014912 244.3473 
L 271.300608 234.129004 
L 271.586304 231.245726 
L 271.872 252.680318 
L 272.157696 261.988068 
L 272.443392 253.727739 
L 273.014784 212.269548 
L 273.30048 222.55757 
L 273.586176 259.112932 
L 273.871872 272.530258 
L 274.157568 259.376636 
L 274.72896 223.825955 
L 275.014656 212.310792 
L 275.871744 256.587502 
L 276.15744 243.633812 
L 276.443136 239.026865 
L 277.014528 255.924058 
L 277.300224 250.938047 
L 277.58592 236.45377 
L 277.871616 235.673456 
L 278.157312 250.068858 
L 278.443008 237.917181 
L 278.728704 219.863304 
L 279.0144 230.023058 
L 279.585792 272.465263 
L 279.871488 263.282054 
L 280.44288 232.364675 
L 280.728576 228.0812 
L 281.014272 237.416691 
L 281.299968 252.391678 
L 281.585664 245.792847 
L 281.87136 220.039324 
L 282.157056 216.859379 
L 282.728448 239.146645 
L 283.014144 238.195375 
L 283.29984 246.517135 
L 283.585536 248.262182 
L 283.871232 249.30476 
L 284.156928 251.054654 
L 284.442624 251.829652 
L 284.72832 245.81311 
L 285.014016 232.081584 
L 285.585408 216.897419 
L 285.871104 223.56484 
L 286.1568 250.594833 
L 286.442496 254.460209 
L 286.728192 245.29178 
L 287.299584 252.065982 
L 287.58528 251.414072 
L 288.156672 229.02405 
L 288.442368 240.7609 
L 288.728064 266.685022 
L 289.585152 228.570781 
L 289.870848 222.5537 
L 290.156544 227.375379 
L 290.727936 259.793745 
L 291.013632 244.502282 
L 291.299328 235.624989 
L 291.585024 236.856578 
L 291.87072 253.394259 
L 292.442112 245.471313 
L 292.727808 245.397986 
L 293.013504 231.347613 
L 293.2992 230.902681 
L 293.870592 240.575969 
L 294.156288 245.119036 
L 294.72768 223.945993 
L 295.013376 224.139606 
L 295.870464 246.074939 
L 296.15616 251.65089 
L 296.441856 259.876549 
L 296.727552 261.929599 
L 297.013248 245.907137 
L 297.298944 255.057081 
L 297.870336 217.441324 
L 298.156032 234.791966 
L 298.441728 260.224575 
L 298.727424 249.98534 
L 299.01312 233.051373 
L 299.298816 232.093479 
L 299.584512 230.033713 
L 299.870208 234.87739 
L 300.155904 245.713715 
L 300.4416 249.663901 
L 300.727296 234.901919 
L 301.012992 234.608385 
L 301.298688 243.579264 
L 301.584384 257.552683 
L 301.87008 258.214315 
L 302.155776 252.598507 
L 302.441472 240.336417 
L 302.727168 214.760382 
L 303.012864 213.652909 
L 303.584256 248.050453 
L 303.869952 255.875996 
L 304.155648 239.498754 
L 304.441344 233.329936 
L 305.012736 262.129744 
L 305.298432 255.307963 
L 305.584128 239.814934 
L 305.869824 237.459729 
L 306.15552 245.357941 
L 306.441216 228.952347 
L 306.726912 224.853738 
L 307.298304 254.827797 
L 307.584 249.898879 
L 307.869696 247.739765 
L 308.155392 252.98008 
L 308.441088 250.655628 
L 308.726784 239.291095 
L 309.01248 233.93832 
L 309.298176 234.473084 
L 309.583872 237.141413 
L 309.869568 226.923666 
L 310.155264 228.001642 
L 310.726656 226.702051 
L 311.012352 243.930605 
L 311.298048 236.687106 
L 311.583744 232.597546 
L 311.86944 247.537781 
L 312.155136 248.226324 
L 312.440832 242.314191 
L 312.726528 240.634291 
L 313.29792 265.658009 
L 313.583616 256.320838 
L 313.869312 231.899596 
L 314.155008 231.004069 
L 314.440704 242.11533 
L 314.7264 242.925115 
L 315.012096 243.37887 
L 315.297792 232.645788 
L 315.583488 227.795159 
L 315.869184 227.451698 
L 316.440576 247.868947 
L 316.726272 250.869946 
L 317.011968 255.697223 
L 317.297664 257.298067 
L 317.869056 218.695285 
L 318.154752 223.02361 
L 318.440448 242.153872 
L 318.726144 244.836725 
L 319.01184 251.102963 
L 319.297536 265.274319 
L 319.583232 260.238903 
L 320.154624 229.454958 
L 320.726016 243.145988 
L 321.011712 229.747032 
L 321.297408 226.411151 
L 321.8688 249.47694 
L 322.154496 248.381959 
L 322.440192 229.353797 
L 323.011584 255.943738 
L 323.582976 233.309571 
L 324.154368 252.060959 
L 324.72576 237.111557 
L 325.297152 247.776834 
L 325.582848 246.574625 
L 325.868544 260.607902 
L 326.15424 248.436166 
L 326.439936 244.828639 
L 326.725632 248.671034 
L 327.011328 234.226228 
L 327.297024 227.376115 
L 327.58272 241.504244 
L 327.868416 241.106006 
L 328.154112 237.304983 
L 328.439808 249.834766 
L 328.725504 247.976003 
L 329.0112 229.363644 
L 329.296896 233.919992 
L 329.582592 248.296234 
L 329.868288 248.780711 
L 330.153984 225.68122 
L 330.43968 218.941464 
L 330.725376 228.276308 
L 331.011072 249.544252 
L 331.296768 255.003243 
L 331.86816 227.742189 
L 332.153856 227.434434 
L 332.439552 229.976333 
L 332.725248 247.338528 
L 333.29664 259.2752 
L 334.153728 236.616102 
L 334.439424 236.856058 
L 335.010816 213.339238 
L 335.296512 218.615813 
L 335.867904 254.99294 
L 336.1536 240.352812 
L 336.724992 243.690211 
L 337.010688 232.102293 
L 337.296384 235.743445 
L 337.58208 246.412344 
L 337.867776 249.922597 
L 338.439168 229.56555 
L 338.724864 218.643664 
L 339.01056 224.85831 
L 339.296256 243.618599 
L 339.581952 249.666563 
L 339.867648 250.074321 
L 340.153344 259.880412 
L 340.724736 238.480585 
L 341.010432 237.532736 
L 341.296128 248.954259 
L 341.581824 254.884479 
L 341.86752 252.028745 
L 342.153216 255.234286 
L 342.438912 241.944264 
L 342.724608 235.607027 
L 343.010304 239.000704 
L 343.296 252.260745 
L 343.581696 252.160415 
L 343.867392 245.730326 
L 344.153088 229.704873 
L 344.438784 228.164543 
L 344.72448 247.291305 
L 345.010176 243.4273 
L 345.295872 250.686897 
L 345.581568 252.244676 
L 345.867264 234.859614 
L 346.15296 232.165226 
L 346.438656 243.836133 
L 347.010048 225.670692 
L 347.295744 226.378969 
L 347.58144 242.707946 
L 347.867136 238.722261 
L 348.152832 248.349202 
L 348.438528 268.884863 
L 349.00992 234.984494 
L 349.295616 238.929763 
L 349.867008 261.644584 
L 350.152704 257.011526 
L 351.009792 236.661947 
L 351.295488 235.225588 
L 351.581184 234.648709 
L 351.86688 235.042629 
L 352.152576 230.055721 
L 352.438272 241.4509 
L 352.723968 233.193204 
L 353.009664 214.642333 
L 353.29536 220.728651 
L 353.581056 239.034088 
L 353.866752 239.670874 
L 354.152448 236.787954 
L 354.438144 251.463729 
L 354.72384 244.882891 
L 355.009536 228.400799 
L 355.580928 257.512109 
L 355.866624 258.1022 
L 356.723712 246.655771 
L 357.009408 225.98922 
L 357.295104 215.787948 
L 357.866496 240.571572 
L 358.723584 246.399348 
L 359.00928 260.234802 
L 359.294976 263.928388 
L 359.866368 212.137515 
L 360.152064 215.176867 
L 360.43776 227.179851 
L 360.723456 257.866077 
L 361.009152 268.055741 
L 361.294848 253.392411 
L 361.86624 235.506574 
L 362.151936 238.061231 
L 362.437632 221.692748 
L 362.723328 222.951502 
L 363.009024 252.662018 
L 363.29472 261.136408 
L 363.580416 241.824722 
L 363.866112 236.058057 
L 364.151808 236.385248 
L 364.7232 237.392184 
L 365.008896 242.69357 
L 365.294592 258.224462 
L 365.865984 228.181316 
L 366.15168 233.801743 
L 366.723072 273.153184 
L 367.008768 263.468353 
L 367.294464 248.412512 
L 367.58016 225.174838 
L 367.865856 217.377217 
L 368.151552 223.490703 
L 368.437248 232.387728 
L 369.00864 269.894786 
L 369.865728 226.118189 
L 370.151424 252.164755 
L 370.43712 259.094415 
L 370.722816 240.612362 
L 371.008512 229.871238 
L 371.579904 262.811922 
L 371.8656 248.125368 
L 372.151296 243.393975 
L 372.436992 253.174898 
L 372.722688 242.644222 
L 373.008384 218.837566 
L 373.29408 216.824277 
L 373.865472 247.552077 
L 374.151168 247.631117 
L 374.436864 245.920848 
L 374.72256 257.794575 
L 375.008256 242.132384 
L 375.293952 237.143745 
L 375.865344 260.905433 
L 376.15104 249.080557 
L 376.436736 221.348195 
L 376.722432 226.859742 
L 377.008128 249.197094 
L 377.293824 249.271872 
L 377.57952 240.125665 
L 377.865216 240.097798 
L 378.150912 246.610607 
L 378.436608 237.222757 
L 378.722304 209.481804 
L 379.008 209.1204 
L 379.293696 230.971455 
L 379.865088 258.001049 
L 380.722176 223.697886 
L 381.007872 227.553691 
L 381.579264 252.682024 
L 381.86496 242.816093 
L 382.150656 240.849156 
L 382.722048 266.370864 
L 383.007744 259.090431 
L 383.579136 215.999781 
L 383.864832 212.558088 
L 384.150528 247.651221 
L 384.436224 261.536804 
L 384.72192 256.535935 
L 385.007616 247.65139 
L 385.293312 218.390684 
L 385.579008 207.272335 
L 385.864704 218.424896 
L 386.436096 267.571802 
L 387.007488 238.623896 
L 387.293184 233.57115 
L 387.864576 242.980789 
L 388.150272 243.444962 
L 388.435968 238.00048 
L 388.721664 234.905829 
L 389.00736 238.636837 
L 389.293056 239.730387 
L 389.578752 239.641271 
L 389.864448 224.231813 
L 390.150144 222.648447 
L 390.43584 230.311641 
L 390.721536 256.076449 
L 391.007232 262.348626 
L 391.292928 255.357127 
L 391.578624 241.227261 
L 392.150016 229.533001 
L 392.435712 233.823644 
L 392.721408 246.383806 
L 393.007104 263.895124 
L 393.2928 257.858505 
L 393.864192 229.208321 
L 394.149888 226.228283 
L 394.435584 227.731528 
L 394.72128 242.067866 
L 395.292672 240.963523 
L 395.578368 253.242484 
L 395.864064 254.933699 
L 396.14976 250.703687 
L 396.435456 244.247227 
L 396.721152 232.601394 
L 397.006848 231.86309 
L 397.292544 232.574218 
L 397.57824 229.903193 
L 397.863936 239.50772 
L 398.149632 252.874168 
L 398.435328 243.871628 
L 398.721024 250.93369 
L 399.00672 250.694497 
L 399.292416 245.646176 
L 399.578112 237.094584 
L 400.149504 244.432609 
L 400.720896 245.825635 
L 401.292288 204.385764 
L 401.577984 215.699181 
L 401.86368 258.05272 
L 402.149376 263.584715 
L 402.435072 256.46614 
L 403.006464 265.915423 
L 403.577856 247.790873 
L 403.863552 251.793147 
L 404.149248 245.519932 
L 404.434944 224.04906 
L 404.72064 225.870623 
L 405.006336 256.864672 
L 405.292032 258.317216 
L 405.577728 236.324672 
L 405.863424 236.109147 
L 406.14912 242.735856 
L 406.434816 240.258187 
L 406.720512 243.784342 
L 407.291904 233.820777 
L 407.5776 240.715535 
L 407.863296 241.7143 
L 408.148992 248.541337 
L 408.434688 248.853634 
L 408.720384 244.610992 
L 409.00608 233.410707 
L 409.291776 232.937902 
L 409.577472 247.783318 
L 409.863168 248.309917 
L 410.43456 237.483522 
L 410.720256 241.162356 
L 411.005952 233.595193 
L 411.291648 216.881481 
L 411.86304 231.811073 
L 412.434432 220.075513 
L 413.005824 262.563198 
L 413.29152 243.554296 
L 413.577216 247.115358 
L 413.862912 264.948905 
L 414.148608 254.070716 
L 414.434304 236.690776 
L 414.72 242.886387 
L 415.005696 246.631004 
L 415.005696 246.631004 
" style="fill:none;stroke:#1f77b4;stroke-linecap:square;stroke-width:1.5;"/>
   </g>
  </g>
 </g>
 <defs>
  <clipPath id="pa06aa68958">
   <rect height="133.056" width="357.12" x="57.6" y="41.472"/>
  </clipPath>
  <clipPath id="p01b85adb7b">
   <rect height="133.056" width="357.12" x="57.6" y="174.528"/>
  </clipPath>
 </defs>
</svg>
