<?xml version="1.0" encoding="UTF-8" standalone="no"?>
<svg
   xmlns:dc="http://purl.org/dc/elements/1.1/"
   xmlns:cc="http://creativecommons.org/ns#"
   xmlns:rdf="http://www.w3.org/1999/02/22-rdf-syntax-ns#"
   xmlns:svg="http://www.w3.org/2000/svg"
   xmlns="http://www.w3.org/2000/svg"
   xmlns:sodipodi="http://sodipodi.sourceforge.net/DTD/sodipodi-0.dtd"
   xmlns:inkscape="http://www.inkscape.org/namespaces/inkscape"
   width="210mm"
   height="297mm"
   viewBox="0 0 210 297"
   version="1.1"
   id="svg8"
   inkscape:version="1.0.2 (1.0.2+r75+1)"
   sodipodi:docname="dnfvslms.svg"
   inkscape:export-filename="/home/natalia/disertation/datarecordings/plots/dnfvslms.png"
   inkscape:export-xdpi="96"
   inkscape:export-ydpi="96">
  <defs
     id="defs2" />
  <sodipodi:namedview
     id="base"
     pagecolor="#ffffff"
     bordercolor="#666666"
     borderopacity="1.0"
     inkscape:pageopacity="0.0"
     inkscape:pageshadow="2"
     inkscape:zoom="2.13"
     inkscape:cx="400"
     inkscape:cy="337.14286"
     inkscape:document-units="mm"
     inkscape:current-layer="g78"
     inkscape:document-rotation="0"
     showgrid="false"
     inkscape:window-width="1920"
     inkscape:window-height="1043"
     inkscape:window-x="1366"
     inkscape:window-y="0"
     inkscape:window-maximized="1" />
  <metadata
     id="metadata5">
    <rdf:RDF>
      <cc:Work
         rdf:about="">
        <dc:format>image/svg+xml</dc:format>
        <dc:type
           rdf:resource="http://purl.org/dc/dcmitype/StillImage" />
        <dc:title></dc:title>
      </cc:Work>
    </rdf:RDF>
  </metadata>
  <g
     inkscape:label="Layer 1"
     inkscape:groupmode="layer"
     id="layer1">
    <g
       style="fill:none;stroke:none;stroke-linecap:square;stroke-miterlimit:10"
       id="g78"
       transform="matrix(0.26458333,0,0,0.26458333,26.458334,40.122173)">
      <path
         stroke="#333333"
         stroke-width="1"
         stroke-linecap="butt"
         d="m 80.5,332.5 h 501"
         fill-rule="nonzero"
         id="path12" />
      <path
         stroke="#cccccc"
         stroke-width="1"
         stroke-linecap="butt"
         d="m 80.5,264.5 h 501"
         fill-rule="nonzero"
         id="path14" />
      <path
         stroke="#cccccc"
         stroke-width="1"
         stroke-linecap="butt"
         d="m 80.5,197.5 h 501"
         fill-rule="nonzero"
         id="path16" />
      <path
         stroke="#cccccc"
         stroke-width="1"
         stroke-linecap="butt"
         d="m 80.5,129.5 h 501"
         fill-rule="nonzero"
         id="path18" />
      <path
         stroke="#cccccc"
         stroke-width="1"
         stroke-linecap="butt"
         d="m 80.5,61.5 h 501"
         fill-rule="nonzero"
         id="path20" />
      <path
         stroke="#000000"
         stroke-width="2"
         stroke-linecap="butt"
         stroke-opacity="0"
         clip-path="url(#id_0)"
         d="M 294,332 H 155 V 107 c 0,-1.10457 0.89543,-2 2,-2 h 135 c 1.10458,0 2,0.89543 2,2 z"
         fill-rule="nonzero"
         id="path25" />
      <path
         fill="#4285f4"
         clip-path="url(#id_0)"
         d="M 294,332 H 155 V 107 c 0,-1.10457 0.89543,-2 2,-2 h 135 c 1.10458,0 2,0.89543 2,2 z"
         fill-rule="nonzero"
         id="path27"
         style="fill:#666666" />
      <path
         stroke="#000000"
         stroke-width="2"
         stroke-linecap="butt"
         stroke-opacity="0"
         clip-path="url(#id_0)"
         d="M 508,332 H 369 v -36 c 0,-1.10458 0.89542,-2 2,-2 h 135 c 1.10458,0 2,0.89542 2,2 z"
         fill-rule="nonzero"
         id="path29" />
      <path
         fill="#4285f4"
         clip-path="url(#id_0)"
         d="M 508,332 H 369 v -36 c 0,-1.10458 0.89542,-2 2,-2 h 135 c 1.10458,0 2,0.89542 2,2 z"
         fill-rule="nonzero"
         id="path31"
         style="fill:#1a1a1a" />
      <path
         fill="#000000"
         d="m 51.05,332.21564 q 0,-1.53124 0.3125,-2.45314 0.3125,-0.9375 0.921874,-1.4375 0.625,-0.5 1.5625,-0.5 0.6875,0 1.203126,0.28126 0.53125,0.28124 0.875,0.8125 0.34375,0.51564 0.53125,1.26564 0.1875,0.75 0.1875,2.03124 0,1.51562 -0.3125,2.4375 -0.296876,0.92186 -0.921876,1.4375 -0.609374,0.5 -1.5625,0.5 -1.234374,0 -1.953124,-0.89064 Q 51.05,334.6375 51.05,332.21564 Z m 1.078124,0 q 0,2.10936 0.5,2.8125 0.5,0.70312 1.21875,0.70312 0.734376,0 1.21875,-0.70312 0.5,-0.70314 0.5,-2.8125 0,-2.125 -0.5,-2.8125 Q 54.58125,328.7 53.83125,328.7 q -0.71875,0 -1.15625,0.6094 -0.546876,0.78124 -0.546876,2.90624 z M 58.64375,336.45 v -1.2031 h 1.203124 V 336.45 Z M 61.05,332.21564 q 0,-1.53124 0.3125,-2.45314 0.3125,-0.9375 0.921874,-1.4375 0.625,-0.5 1.5625,-0.5 0.687506,0 1.203126,0.28126 0.53125,0.28124 0.875,0.8125 0.34375,0.51564 0.53125,1.26564 0.1875,0.75 0.1875,2.03124 0,1.51562 -0.3125,2.4375 -0.29687,0.92186 -0.92187,1.4375 -0.60938,0.5 -1.562506,0.5 -1.234374,0 -1.953124,-0.89064 Q 61.05,334.6375 61.05,332.21564 Z m 1.078124,0 q 0,2.10936 0.5,2.8125 0.5,0.70312 1.21875,0.70312 0.734376,0 1.218756,-0.70312 0.5,-0.70314 0.5,-2.8125 0,-2.125 -0.5,-2.8125 Q 64.58125,328.7 63.83125,328.7 q -0.71875,0 -1.15625,0.6094 -0.546876,0.78124 -0.546876,2.90624 z m 5.921876,0 q 0,-1.53124 0.3125,-2.45314 0.3125,-0.9375 0.92188,-1.4375 0.625,-0.5 1.5625,-0.5 0.6875,0 1.20312,0.28126 0.53125,0.28124 0.875,0.8125 0.34375,0.51564 0.53125,1.26564 0.1875,0.75 0.1875,2.03124 0,1.51562 -0.3125,2.4375 -0.29687,0.92186 -0.92187,1.4375 -0.60938,0.5 -1.5625,0.5 -1.23438,0 -1.95313,-0.89064 Q 68.05,334.6375 68.05,332.21564 Z m 1.07813,0 q 0,2.10936 0.5,2.8125 0.5,0.70312 1.21875,0.70312 0.73437,0 1.21875,-0.70312 0.5,-0.70314 0.5,-2.8125 0,-2.125 -0.5,-2.8125 Q 71.58125,328.7 70.83125,328.7 q -0.71875,0 -1.15625,0.6094 -0.54687,0.78124 -0.54687,2.90624 z"
         fill-rule="nonzero"
         id="path35" />
      <path
         fill="#000000"
         d="m 51.05,264.5823 q 0,-1.53124 0.3125,-2.45312 0.3125,-0.9375 0.921874,-1.4375 0.625,-0.5 1.5625,-0.5 0.6875,0 1.203126,0.28125 0.53125,0.28125 0.875,0.8125 0.34375,0.51563 0.53125,1.26563 0.1875,0.75 0.1875,2.03124 0,1.51563 -0.3125,2.4375 -0.296876,0.92188 -0.921876,1.4375 -0.609374,0.5 -1.5625,0.5 -1.234374,0 -1.953124,-0.89062 Q 51.05,267.00418 51.05,264.5823 Z m 1.078124,0 q 0,2.10938 0.5,2.8125 0.5,0.70313 1.21875,0.70313 0.734376,0 1.21875,-0.70313 0.5,-0.70312 0.5,-2.8125 0,-2.125 -0.5,-2.8125 -0.484374,-0.70312 -1.234374,-0.70312 -0.71875,0 -1.15625,0.60938 -0.546876,0.78124 -0.546876,2.90624 z m 6.515626,4.23438 v -1.20312 h 1.203124 v 1.20312 z m 7.95313,-1.01562 v 1.01562 h -5.687506 q 0,-0.375 0.125,-0.73438 0.21875,-0.57812 0.6875,-1.14062 0.484376,-0.5625 1.390626,-1.29688 1.40625,-1.15624 1.89063,-1.82812 0.5,-0.67188 0.5,-1.26562 0,-0.625 -0.45313,-1.04688 -0.45312,-0.4375 -1.171876,-0.4375 -0.765624,0 -1.21875,0.45312 -0.453124,0.45313 -0.46875,1.26563 L 61.1125,262.67606 q 0.109374,-1.21876 0.828124,-1.84376 0.734376,-0.64062 1.96875,-0.64062 1.234376,0 1.953126,0.6875 0.71875,0.6875 0.71875,1.70312 0,0.51563 -0.21875,1.01563 -0.20312,0.48437 -0.70312,1.04687 -0.48438,0.54688 -1.60938,1.5 -0.953126,0.79688 -1.234376,1.09376 -0.265624,0.28124 -0.4375,0.5625 z m 1.45312,-1.23438 1.10938,-0.0937 q 0.125,0.8125 0.5625,1.21875 0.45312,0.40625 1.09375,0.40625 0.75,0 1.28125,-0.57813 0.53125,-0.57812 0.53125,-1.51562 0,-0.90625 -0.51563,-1.42188 -0.5,-0.53124 -1.32812,-0.53124 -0.5,0 -0.92188,0.23437 -0.40625,0.23437 -0.64062,0.59375 l -0.98438,-0.125 0.82813,-4.40625 h 4.28125 v 1 h -3.4375 l -0.45313,2.3125 q 0.76563,-0.54687 1.60938,-0.54687 1.125,0 1.89062,0.78124 0.78125,0.78126 0.78125,2.01563 0,1.15625 -0.67187,2.01563 -0.82813,1.03124 -2.25,1.03124 -1.17188,0 -1.92188,-0.65624 -0.73437,-0.65626 -0.84375,-1.73438 z"
         fill-rule="nonzero"
         id="path37" />
      <path
         fill="#000000"
         d="m 51.05,196.94896 q 0,-1.53125 0.3125,-2.45313 0.3125,-0.9375 0.921874,-1.4375 0.625,-0.5 1.5625,-0.5 0.6875,0 1.203126,0.28125 0.53125,0.28125 0.875,0.8125 0.34375,0.51563 0.53125,1.26563 0.1875,0.75 0.1875,2.03125 0,1.51562 -0.3125,2.4375 -0.296876,0.92187 -0.921876,1.4375 -0.609374,0.5 -1.5625,0.5 -1.234374,0 -1.953124,-0.89063 Q 51.05,199.37083 51.05,196.94896 Z m 1.078124,0 q 0,2.10937 0.5,2.8125 0.5,0.70312 1.21875,0.70312 0.734376,0 1.21875,-0.70312 0.5,-0.70313 0.5,-2.8125 0,-2.125 -0.5,-2.8125 -0.484374,-0.70313 -1.234374,-0.70313 -0.71875,0 -1.15625,0.60938 -0.546876,0.78125 -0.546876,2.90625 z m 6.515626,4.23437 v -1.20312 h 1.203124 v 1.20312 z m 2.40625,-2.25 1.109374,-0.0937 q 0.125,0.8125 0.5625,1.21875 0.453126,0.40625 1.09375,0.40625 0.750006,0 1.281256,-0.57812 0.53125,-0.57813 0.53125,-1.51563 0,-0.90625 -0.51563,-1.42187 -0.5,-0.53125 -1.328126,-0.53125 -0.5,0 -0.921874,0.23437 -0.40625,0.23438 -0.640626,0.59375 l -0.984374,-0.125 0.828124,-4.40625 h 4.281256 v 1 h -3.437506 l -0.453124,2.3125 q 0.765624,-0.54687 1.60938,-0.54687 1.125,0 1.89062,0.78125 0.78125,0.78125 0.78125,2.01562 0,1.15625 -0.67187,2.01563 -0.82813,1.03125 -2.250006,1.03125 -1.171874,0 -1.921874,-0.65625 -0.734376,-0.65625 -0.84375,-1.73438 z m 7,-1.98437 q 0,-1.53125 0.3125,-2.45313 0.3125,-0.9375 0.92188,-1.4375 0.625,-0.5 1.5625,-0.5 0.6875,0 1.20312,0.28125 0.53125,0.28125 0.875,0.8125 0.34375,0.51563 0.53125,1.26563 0.1875,0.75 0.1875,2.03125 0,1.51562 -0.3125,2.4375 -0.29687,0.92187 -0.92187,1.4375 -0.60938,0.5 -1.5625,0.5 -1.23438,0 -1.95313,-0.89063 Q 68.05,199.37083 68.05,196.94896 Z m 1.07813,0 q 0,2.10937 0.5,2.8125 0.5,0.70312 1.21875,0.70312 0.73437,0 1.21875,-0.70312 0.5,-0.70313 0.5,-2.8125 0,-2.125 -0.5,-2.8125 -0.48438,-0.70313 -1.23438,-0.70313 -0.71875,0 -1.15625,0.60938 -0.54687,0.78125 -0.54687,2.90625 z"
         fill-rule="nonzero"
         id="path39" />
      <path
         fill="#000000"
         d="m 51.05,129.31563 q 0,-1.53125 0.3125,-2.45313 0.3125,-0.9375 0.921874,-1.4375 0.625,-0.5 1.5625,-0.5 0.6875,0 1.203126,0.28125 0.53125,0.28125 0.875,0.8125 0.34375,0.51563 0.53125,1.26563 0.1875,0.75 0.1875,2.03125 0,1.51562 -0.3125,2.4375 -0.296876,0.92187 -0.921876,1.4375 -0.609374,0.5 -1.5625,0.5 -1.234374,0 -1.953124,-0.89063 Q 51.05,131.7375 51.05,129.31563 Z m 1.078124,0 q 0,2.10937 0.5,2.8125 0.5,0.70312 1.21875,0.70312 0.734376,0 1.21875,-0.70312 0.5,-0.70313 0.5,-2.8125 0,-2.125 -0.5,-2.8125 Q 54.58125,125.8 53.83125,125.8 q -0.71875,0 -1.15625,0.60938 -0.546876,0.78125 -0.546876,2.90625 z M 58.64375,133.55 v -1.20312 h 1.203124 V 133.55 Z m 2.46875,-7.46875 v -1.01562 h 5.5625 v 0.82812 q -0.8125,0.875 -1.625,2.32813 -0.79687,1.4375 -1.234376,2.96875 -0.328124,1.07812 -0.40625,2.35937 h -1.09375 q 0.01563,-1.01562 0.390626,-2.45312 0.390624,-1.4375 1.09375,-2.76563 0.71875,-1.32812 1.53125,-2.25 z M 68.05,131.3 l 1.10938,-0.0937 q 0.125,0.8125 0.5625,1.21875 0.45312,0.40625 1.09375,0.40625 0.75,0 1.28125,-0.57812 0.53125,-0.57813 0.53125,-1.51563 0,-0.90625 -0.51563,-1.42187 -0.5,-0.53125 -1.32812,-0.53125 -0.5,0 -0.92188,0.23437 -0.40625,0.23438 -0.64062,0.59375 l -0.98438,-0.125 0.82813,-4.40625 h 4.28125 v 1 h -3.4375 l -0.45313,2.3125 q 0.76563,-0.54687 1.60938,-0.54687 1.125,0 1.89062,0.78125 0.78125,0.78125 0.78125,2.01562 0,1.15625 -0.67187,2.01563 -0.82813,1.03125 -2.25,1.03125 -1.17188,0 -1.92188,-0.65625 Q 68.15938,132.37813 68.05,131.3 Z"
         fill-rule="nonzero"
         id="path41" />
      <path
         fill="#000000"
         d="m 55.01875,65.916664 h -1.046876 v -6.71875 Q 53.58125,59.55729 52.95625,59.93229 52.346874,60.291664 51.8625,60.46354 v -1.015626 q 0.875,-0.421874 1.53125,-1 0.671874,-0.59375 0.953124,-1.15625 h 0.671876 z m 3.625,0 V 64.71354 h 1.203124 v 1.203124 z M 61.05,61.68229 q 0,-1.53125 0.3125,-2.453126 0.3125,-0.9375 0.921874,-1.4375 0.625,-0.5 1.5625,-0.5 0.687506,0 1.203126,0.28125 0.53125,0.28125 0.875,0.8125 0.34375,0.515626 0.53125,1.265626 0.1875,0.75 0.1875,2.03125 0,1.515624 -0.3125,2.4375 -0.29687,0.921874 -0.92187,1.4375 -0.60938,0.5 -1.562506,0.5 -1.234374,0 -1.953124,-0.890626 Q 61.05,64.104164 61.05,61.68229 Z m 1.078124,0 q 0,2.109374 0.5,2.8125 0.5,0.703124 1.21875,0.703124 0.734376,0 1.218756,-0.703124 0.5,-0.703126 0.5,-2.8125 0,-2.125 -0.5,-2.8125 -0.48438,-0.703126 -1.23438,-0.703126 -0.71875,0 -1.15625,0.609376 -0.546876,0.78125 -0.546876,2.90625 z m 5.921876,0 q 0,-1.53125 0.3125,-2.453126 0.3125,-0.9375 0.92188,-1.4375 0.625,-0.5 1.5625,-0.5 0.6875,0 1.20312,0.28125 0.53125,0.28125 0.875,0.8125 0.34375,0.515626 0.53125,1.265626 0.1875,0.75 0.1875,2.03125 0,1.515624 -0.3125,2.4375 -0.29687,0.921874 -0.92187,1.4375 -0.60938,0.5 -1.5625,0.5 -1.23438,0 -1.95313,-0.890626 Q 68.05,64.104164 68.05,61.68229 Z m 1.07813,0 q 0,2.109374 0.5,2.8125 0.5,0.703124 1.21875,0.703124 0.73437,0 1.21875,-0.703124 0.5,-0.703126 0.5,-2.8125 0,-2.125 -0.5,-2.8125 -0.48438,-0.703126 -1.23438,-0.703126 -0.71875,0 -1.15625,0.609376 -0.54687,0.78125 -0.54687,2.90625 z"
         fill-rule="nonzero"
         id="path43" />
      <text
         xml:space="preserve"
         style="font-size:26.6667px;line-height:1.25;font-family:sans-serif;word-spacing:0px;fill:#4d4d4d"
         x="-338.0986"
         y="35.476391"
         id="text82"
         transform="rotate(-90)"><tspan
           sodipodi:role="line"
           id="tspan80"
           x="-338.0986"
           y="35.476391">SNR Improvement (dB)</tspan></text>
      <text
         xml:space="preserve"
         style="font-size:26.6667px;line-height:1.25;font-family:sans-serif;word-spacing:0px;fill:#4d4d4d"
         x="188.13762"
         y="355.4837"
         id="text86"><tspan
           sodipodi:role="line"
           id="tspan84"
           x="188.13762"
           y="355.4837">DNF</tspan></text>
      <text
         xml:space="preserve"
         style="font-size:26.6667px;line-height:1.25;font-family:sans-serif;word-spacing:0px;fill:#4d4d4d"
         x="408.80978"
         y="354.05157"
         id="text90"><tspan
           sodipodi:role="line"
           id="tspan88"
           x="408.80978"
           y="354.05157">LMS</tspan></text>
    </g>
  </g>
</svg>
