<?xml version="1.0" encoding="UTF-8" standalone="no"?>
<svg
   xmlns:dc="http://purl.org/dc/elements/1.1/"
   xmlns:cc="http://creativecommons.org/ns#"
   xmlns:rdf="http://www.w3.org/1999/02/22-rdf-syntax-ns#"
   xmlns:svg="http://www.w3.org/2000/svg"
   xmlns="http://www.w3.org/2000/svg"
   xmlns:sodipodi="http://sodipodi.sourceforge.net/DTD/sodipodi-0.dtd"
   xmlns:inkscape="http://www.inkscape.org/namespaces/inkscape"
   width="210mm"
   height="297mm"
   viewBox="0 0 210 297"
   version="1.1"
   id="svg8"
   inkscape:version="1.0.2 (1.0.2+r75+1)"
   sodipodi:docname="SNRDNF.svg"
   inkscape:export-filename="/home/natalia/disertation/datarecordings/plots/SNRDNF.png"
   inkscape:export-xdpi="96"
   inkscape:export-ydpi="96">
  <defs
     id="defs2" />
  <sodipodi:namedview
     id="base"
     pagecolor="#ffffff"
     bordercolor="#666666"
     borderopacity="1.0"
     inkscape:pageopacity="0.0"
     inkscape:pageshadow="2"
     inkscape:zoom="0.75900673"
     inkscape:cx="396.85039"
     inkscape:cy="192.35666"
     inkscape:document-units="mm"
     inkscape:current-layer="g192"
     inkscape:document-rotation="0"
     showgrid="false"
     inkscape:window-width="1920"
     inkscape:window-height="1043"
     inkscape:window-x="1366"
     inkscape:window-y="0"
     inkscape:window-maximized="1" />
  <metadata
     id="metadata5">
    <rdf:RDF>
      <cc:Work
         rdf:about="">
        <dc:format>image/svg+xml</dc:format>
        <dc:type
           rdf:resource="http://purl.org/dc/dcmitype/StillImage" />
        <dc:title />
      </cc:Work>
    </rdf:RDF>
  </metadata>
  <g
     inkscape:label="Layer 1"
     inkscape:groupmode="layer"
     id="layer1">
    <g
       style="fill:none;stroke:none;stroke-linecap:square;stroke-miterlimit:10"
       id="g192"
       transform="matrix(0.26458333,0,0,0.26458333,26.436878,37.530675)">
      <path
         fill="#4285f4"
         d="m -11.088166,86.407976 c 0,3.31371 -2.686292,6 -6,6 -3.313708,0 -6,-2.68629 -6,-6 0,-3.31371 2.686292,-6 6,-6 3.313708,0 6,2.68629 6,6 z"
         fill-rule="nonzero"
         id="path115" />
      <path
         fill="#ea4335"
         d="m -11.088166,108.54248 c 0,3.31371 -2.68629,6 -6,6 -3.31371,0 -6,-2.68629 -6,-6 0,-3.31371 2.68629,-6 6,-6 3.31371,0 6,2.68629 6,6 z"
         fill-rule="nonzero"
         id="path117" />
      <path
         fill="#fbbc04"
         d="m -11.088166,131.60887 c 0,3.31371 -2.68629,6 -6,6 -3.31371,0 -6,-2.68629 -6,-6 0,-3.3137 2.68629,-5.99999 6,-5.99999 3.31371,0 6,2.68629 6,5.99999 z"
         fill-rule="nonzero"
         id="path119" />
      <path
         fill="#34a853"
         d="m -11.088166,156.19312 c 0,3.31371 -2.68629,6.00001 -6,6.00001 -3.31371,0 -6,-2.6863 -6,-6.00001 0,-3.31371 2.68629,-6 6,-6 3.31371,0 6,2.68629 6,6 z"
         fill-rule="nonzero"
         id="path121" />
      <text
         xml:space="preserve"
         style="font-size:26.6667px;line-height:1.25;font-family:sans-serif;word-spacing:0px;fill:#4d4d4d"
         x="-37.019279"
         y="306.66251"
         id="text196"><tspan
           sodipodi:role="line"
           id="tspan194"
           x="-37.019279"
           y="306.66251">Raw</tspan></text>
      <text
         xml:space="preserve"
         style="font-size:26.6667px;line-height:1.25;font-family:sans-serif;word-spacing:0px;fill:#4d4d4d"
         x="220.73436"
         y="308.59128"
         id="text200"><tspan
           sodipodi:role="line"
           id="tspan198"
           x="220.73436"
           y="308.59128">DNF</tspan></text>
      <text
         xml:space="preserve"
         style="font-size:26.6667px;line-height:1.25;font-family:sans-serif;word-spacing:0px"
         x="70.413597"
         y="23.425232"
         id="text208"><tspan
           sodipodi:role="line"
           id="tspan206"
           x="70.413597"
           y="23.425232" /></text>
      <text
         xml:space="preserve"
         style="font-size:21.3333px;line-height:1.25;font-family:sans-serif;word-spacing:0px;fill:#000000"
         x="-8.1367216"
         y="94.137001"
         id="text212"><tspan
           sodipodi:role="line"
           id="tspan210"
           x="-8.1367216"
           y="94.137001">Arm</tspan></text>
      <text
         xml:space="preserve"
         style="font-size:21.3333px;line-height:1.25;font-family:sans-serif;word-spacing:0px;fill:#000000"
         x="-8.1367216"
         y="115.73521"
         id="text216"><tspan
           sodipodi:role="line"
           id="tspan214"
           x="-8.1367216"
           y="115.73521">Arm weight</tspan></text>
      <text
         xml:space="preserve"
         style="font-size:21.3333px;line-height:1.25;font-family:sans-serif;word-spacing:0px;fill:#000000"
         x="-10.0638"
         y="139.10551"
         id="text220"><tspan
           sodipodi:role="line"
           id="tspan218"
           x="-10.0638"
           y="139.10551">Bicep weight</tspan></text>
      <text
         xml:space="preserve"
         style="font-size:21.3333px;line-height:1.25;font-family:sans-serif;word-spacing:0px;fill:#000000"
         x="-10.0638"
         y="164.15408"
         id="text224"><tspan
           sodipodi:role="line"
           id="tspan222"
           x="-10.0638"
           y="164.15408">Bicep</tspan></text>
      <g
         style="fill:none;stroke:none;stroke-linecap:square;stroke-miterlimit:10"
         id="g306"
         transform="translate(-196.0009,-14.753444)">
        <path
           stroke="#cccccc"
           stroke-width="0.801128"
           stroke-linecap="butt"
           d="M 134.18508,300.5 H 474.34256"
           fill-rule="nonzero"
           id="path75" />
        <path
           stroke="#cccccc"
           stroke-width="0.801127"
           stroke-linecap="butt"
           d="M 134.18508,229.5 H 474.34256"
           fill-rule="nonzero"
           id="path77-6" />
        <path
           stroke="#cccccc"
           stroke-width="0.801128"
           stroke-linecap="butt"
           d="M 134.18508,159.5 H 474.34256"
           fill-rule="nonzero"
           id="path79" />
        <path
           stroke="#333333"
           stroke-width="0.801129"
           stroke-linecap="butt"
           d="M 134.18508,88.5 H 474.34256"
           fill-rule="nonzero"
           id="path81-7" />
        <path
           stroke="#e6e6e6"
           stroke-width="0.801128"
           stroke-linecap="butt"
           d="M 134.18508,276.5 H 474.34256"
           fill-rule="nonzero"
           id="path83" />
        <path
           stroke="#e6e6e6"
           stroke-width="0.801128"
           stroke-linecap="butt"
           d="M 134.18508,253.5 H 474.34256"
           fill-rule="nonzero"
           id="path85-5" />
        <path
           stroke="#e6e6e6"
           stroke-width="0.801128"
           stroke-linecap="butt"
           d="M 134.18508,206.5 H 474.34256"
           fill-rule="nonzero"
           id="path87" />
        <path
           stroke="#e6e6e6"
           stroke-width="0.801128"
           stroke-linecap="butt"
           d="M 134.18508,182.5 H 474.34256"
           fill-rule="nonzero"
           id="path89-3" />
        <path
           stroke="#e6e6e6"
           stroke-width="0.801128"
           stroke-linecap="butt"
           d="M 134.18508,135.5 H 474.34256"
           fill-rule="nonzero"
           id="path91" />
        <path
           stroke="#e6e6e6"
           stroke-width="0.801128"
           stroke-linecap="butt"
           d="M 134.18508,111.5 H 474.34256"
           fill-rule="nonzero"
           id="path93-5" />
        <path
           stroke="#eeeeee"
           stroke-width="1"
           stroke-linecap="butt"
           d="m 184.025,219.95134 v 16"
           fill-rule="nonzero"
           id="path95-6" />
        <path
           stroke="#eeeeee"
           stroke-width="1"
           stroke-linecap="butt"
           d="m 448.975,209.48445 v 16"
           fill-rule="nonzero"
           id="path97" />
        <path
           stroke="#eeeeee"
           stroke-width="1"
           stroke-linecap="butt"
           d="m 184.025,223.91177 v 16"
           fill-rule="nonzero"
           id="path99-2" />
        <path
           stroke="#eeeeee"
           stroke-width="1"
           stroke-linecap="butt"
           d="m 448.975,217.97112 v 16"
           fill-rule="nonzero"
           id="path101-9" />
        <path
           stroke="#eeeeee"
           stroke-width="1"
           stroke-linecap="butt"
           d="m 184.025,252.20067 v 15.99998"
           fill-rule="nonzero"
           id="path103-1" />
        <path
           stroke="#eeeeee"
           stroke-width="1"
           stroke-linecap="butt"
           d="m 448.975,239.18777 v 16"
           fill-rule="nonzero"
           id="path105-2" />
        <path
           stroke="#eeeeee"
           stroke-width="1"
           stroke-linecap="butt"
           d="m 184.025,250.22044 v 16.00002"
           fill-rule="nonzero"
           id="path107" />
        <path
           stroke="#eeeeee"
           stroke-width="1"
           stroke-linecap="butt"
           d="m 448.975,232.11555 v 16"
           fill-rule="nonzero"
           id="path109" />
        <path
           stroke="#000000"
           stroke-width="1"
           stroke-linecap="butt"
           d="M 141.07536,300.5 V 88.5"
           fill-rule="nonzero"
           id="path111" />
        <path
           stroke="#4285f4"
           stroke-width="0.911343"
           stroke-linecap="butt"
           stroke-opacity="0.4"
           clip-path="url(#id_0)"
           d="m 184.025,235.95134 264.95,-10.46689"
           fill-rule="nonzero"
           id="path116" />
        <path
           stroke="#ea4335"
           stroke-width="0.911342"
           stroke-linecap="butt"
           stroke-opacity="0.4"
           clip-path="url(#id_0)"
           d="m 184.025,239.91177 264.95,-5.94065"
           fill-rule="nonzero"
           id="path118" />
        <path
           stroke="#fbbc04"
           stroke-width="0.911343"
           stroke-linecap="butt"
           stroke-opacity="0.4"
           clip-path="url(#id_0)"
           d="m 184.025,268.20065 264.95,-13.01288"
           fill-rule="nonzero"
           id="path120" />
        <path
           stroke="#34a853"
           stroke-width="0.91134"
           stroke-linecap="butt"
           stroke-opacity="0.4"
           clip-path="url(#id_0)"
           d="m 184.025,266.22046 264.95,-18.10491"
           fill-rule="nonzero"
           id="path122" />
        <path
           fill="#4285f4"
           clip-path="url(#id_0)"
           d="m 188.525,235.95134 c 0,2.48527 -2.01472,4.5 -4.5,4.5 -2.48528,0 -4.5,-2.01473 -4.5,-4.5 0,-2.48529 2.01472,-4.5 4.5,-4.5 2.48528,0 4.5,2.01471 4.5,4.5 z"
           fill-rule="nonzero"
           id="path124" />
        <path
           fill="#4285f4"
           clip-path="url(#id_0)"
           d="m 453.475,225.48445 c 0,2.48528 -2.0147,4.5 -4.5,4.5 -2.48528,0 -4.5,-2.01472 -4.5,-4.5 0,-2.48529 2.01472,-4.5 4.5,-4.5 2.4853,0 4.5,2.01471 4.5,4.5 z"
           fill-rule="nonzero"
           id="path126" />
        <path
           fill="#ea4335"
           clip-path="url(#id_0)"
           d="m 188.525,239.91177 c 0,2.48529 -2.01472,4.5 -4.5,4.5 -2.48528,0 -4.5,-2.01471 -4.5,-4.5 0,-2.48527 2.01472,-4.5 4.5,-4.5 2.48528,0 4.5,2.01473 4.5,4.5 z"
           fill-rule="nonzero"
           id="path128" />
        <path
           fill="#ea4335"
           clip-path="url(#id_0)"
           d="m 453.475,233.97112 c 0,2.48527 -2.0147,4.5 -4.5,4.5 -2.48528,0 -4.5,-2.01473 -4.5,-4.5 0,-2.4853 2.01472,-4.5 4.5,-4.5 2.4853,0 4.5,2.0147 4.5,4.5 z"
           fill-rule="nonzero"
           id="path130" />
        <path
           fill="#fbbc04"
           clip-path="url(#id_0)"
           d="m 188.525,268.20065 c 0,2.48529 -2.01472,4.5 -4.5,4.5 -2.48528,0 -4.5,-2.01471 -4.5,-4.5 0,-2.48525 2.01472,-4.5 4.5,-4.5 2.48528,0 4.5,2.01475 4.5,4.5 z"
           fill-rule="nonzero"
           id="path132" />
        <path
           fill="#fbbc04"
           clip-path="url(#id_0)"
           d="m 453.475,255.18777 c 0,2.4853 -2.0147,4.5 -4.5,4.5 -2.48528,0 -4.5,-2.0147 -4.5,-4.5 0,-2.48527 2.01472,-4.5 4.5,-4.5 2.4853,0 4.5,2.01473 4.5,4.5 z"
           fill-rule="nonzero"
           id="path134" />
        <path
           fill="#34a853"
           clip-path="url(#id_0)"
           d="m 188.525,266.22046 c 0,2.48526 -2,4.5 -4.5,4.5 -2.5,0 -4.5,-2.01474 -4.5,-4.5 0,-2.48529 2,-4.5 4.5,-4.5 2.5,0 4.5,2.01471 4.5,4.5 z"
           fill-rule="nonzero"
           id="path136" />
        <path
           fill="#34a853"
           clip-path="url(#id_0)"
           d="m 453.475,248.11555 c 0,2.48528 -2.0147,4.5 -4.5,4.5 -2.48528,0 -4.5,-2.01472 -4.5,-4.5 0,-2.48527 2.01472,-4.5 4.5,-4.5 2.4853,0 4.5,2.01473 4.5,4.5 z"
           fill-rule="nonzero"
           id="path138" />
        <path
           stroke="#000000"
           stroke-width="1"
           stroke-linecap="butt"
           d="m 138.07536,276.5 h 6.00001"
           fill-rule="nonzero"
           id="path140" />
        <path
           stroke="#000000"
           stroke-width="1"
           stroke-linecap="butt"
           d="m 138.07536,253.5 h 6.00001"
           fill-rule="nonzero"
           id="path142" />
        <path
           stroke="#000000"
           stroke-width="1"
           stroke-linecap="butt"
           d="m 138.07536,206.5 h 6.00001"
           fill-rule="nonzero"
           id="path144" />
        <path
           stroke="#000000"
           stroke-width="1"
           stroke-linecap="butt"
           d="m 138.07536,182.5 h 6.00001"
           fill-rule="nonzero"
           id="path146" />
        <path
           stroke="#000000"
           stroke-width="1"
           stroke-linecap="butt"
           d="m 138.07536,135.5 h 6.00001"
           fill-rule="nonzero"
           id="path148" />
        <path
           stroke="#000000"
           stroke-width="1"
           stroke-linecap="butt"
           d="m 138.07536,111.5 h 6.00001"
           fill-rule="nonzero"
           id="path150" />
        <path
           stroke="#000000"
           stroke-width="1"
           stroke-linecap="butt"
           d="m 135.07536,300.5 h 12.00001"
           fill-rule="nonzero"
           id="path152" />
        <path
           stroke="#000000"
           stroke-width="1"
           stroke-linecap="butt"
           d="m 135.07536,229.5 h 12.00001"
           fill-rule="nonzero"
           id="path154" />
        <path
           stroke="#000000"
           stroke-width="1"
           stroke-linecap="butt"
           d="m 135.07536,159.5 h 12.00001"
           fill-rule="nonzero"
           id="path156" />
        <path
           stroke="#000000"
           stroke-width="1"
           stroke-linecap="butt"
           d="m 135.07536,88.5 h 12.00001"
           fill-rule="nonzero"
           id="path158" />
        <path
           fill="#4285f4"
           d="m 155.9,223.58365 h -2.85938 v -0.875 H 155.9 Z m 4.1875,3.1875 h -1.07812 v -7.21875 l -2.1875,0.79687 v -0.98437 l 3.10937,-1.17188 h 0.15625 z m 8.79688,-3.64063 q 0,1.90625 -0.65626,2.84375 -0.64062,0.92188 -2.03124,0.92188 -1.35938,0 -2.01563,-0.90625 -0.65625,-0.90625 -0.6875,-2.71875 v -1.4375 q 0,-1.89063 0.64063,-2.79688 0.65624,-0.92187 2.04687,-0.92187 1.375,0 2.03125,0.89062 0.65625,0.875 0.67188,2.71875 z m -1.09376,-1.48437 q 0,-1.375 -0.39062,-2 -0.375,-0.64063 -1.21875,-0.64063 -0.82813,0 -1.21875,0.64063 -0.375,0.625 -0.375,1.92187 v 1.73438 q 0,1.375 0.39062,2.04687 0.40626,0.65625 1.21876,0.65625 0.79687,0 1.1875,-0.625 0.39062,-0.625 0.40624,-1.95312 z m 2.875,4.5625 q 0,-0.28125 0.15626,-0.46875 0.17187,-0.1875 0.5,-0.1875 0.34374,0 0.51562,0.1875 0.17188,0.1875 0.17188,0.46875 0,0.26562 -0.17188,0.45312 -0.17188,0.17188 -0.51562,0.17188 -0.32813,0 -0.5,-0.17188 -0.15626,-0.1875 -0.15626,-0.45312 z m 7.4375,-2.29688 h 1.1875 v 0.875 h -1.1875 v 1.98438 H 177.025 v -1.98438 h -3.89062 v -0.64062 l 3.8125,-5.90625 h 1.15624 z m -3.73437,0 h 2.65625 v -4.1875 l -0.14062,0.23438 z m 10.73437,0 h 1.1875 v 0.875 h -1.1875 v 1.98438 H 184.025 v -1.98438 h -3.89062 v -0.64062 l 3.8125,-5.90625 h 1.15624 z m -3.73437,0 h 2.65625 v -4.1875 l -0.14062,0.23438 z"
           fill-rule="nonzero"
           id="path162" />
        <path
           fill="#4285f4"
           d="M 456.33437,225.48445 H 453.475 v -0.875 h 2.85937 z m 4.78125,-0.5625 q -0.32812,0.40625 -0.8125,0.65625 -0.46875,0.23438 -1.03125,0.23438 -0.73437,0 -1.28125,-0.35938 -0.54688,-0.35937 -0.84375,-1.01562 -0.29687,-0.67188 -0.29687,-1.46875 0,-0.84375 0.3125,-1.53125 0.32812,-0.6875 0.92187,-1.04688 0.60937,-0.375 1.40625,-0.375 1.26562,0 1.98438,0.95313 0.73437,0.95312 0.73437,2.57812 v 0.3125 q 0,2.5 -0.98437,3.64063 -0.98438,1.14062 -2.96876,1.17187 h -0.21874 v -0.90625 h 0.23437 q 1.34375,-0.0312 2.0625,-0.70312 0.71875,-0.67188 0.78125,-2.14063 z m -1.67188,0 q 0.54688,0 1,-0.32812 0.46876,-0.34375 0.6875,-0.82813 v -0.4375 q 0,-1.0625 -0.46874,-1.73437 -0.46876,-0.67188 -1.17188,-0.67188 -0.71875,0 -1.15625,0.54688 -0.42187,0.54687 -0.42187,1.45312 0,0.875 0.40624,1.4375 0.42188,0.5625 1.125,0.5625 z m 4.65626,3.1875 q 0,-0.28125 0.15624,-0.46875 0.17188,-0.1875 0.5,-0.1875 0.34376,0 0.51563,0.1875 0.17187,0.1875 0.17187,0.46875 0,0.26563 -0.17187,0.45313 -0.17187,0.17187 -0.51563,0.17187 -0.32812,0 -0.5,-0.17187 Q 464.1,228.37508 464.1,228.10945 Z m 8.375,-7.35937 -3.53126,7.92187 h -1.14062 l 3.51562,-7.64062 h -4.60937 v -0.89063 h 5.76563 z"
           fill-rule="nonzero"
           id="path166" />
        <path
           fill="#ea4335"
           d="m 153.80625,247.92356 h -2.85938 v -0.875 h 2.85938 z m 4.1875,3.1875 h -1.07812 v -7.21875 l -2.1875,0.79688 v -0.98438 l 3.10937,-1.17187 h 0.15625 z m 8.79688,-3.64062 q 0,1.90625 -0.65626,2.84375 -0.64062,0.92187 -2.03124,0.92187 -1.35938,0 -2.01563,-0.90625 -0.65625,-0.90625 -0.6875,-2.71875 v -1.4375 q 0,-1.89062 0.64063,-2.79687 0.65624,-0.92188 2.04687,-0.92188 1.375,0 2.03125,0.89063 0.65625,0.875 0.67188,2.71875 z m -1.09376,-1.48438 q 0,-1.375 -0.39062,-2 -0.375,-0.64062 -1.21875,-0.64062 -0.82813,0 -1.21875,0.64062 -0.375,0.625 -0.375,1.92188 v 1.73437 q 0,1.375 0.39062,2.04688 0.40626,0.65625 1.21876,0.65625 0.79687,0 1.1875,-0.625 0.39062,-0.625 0.40624,-1.95313 z m 2.875,4.5625 q 0,-0.28125 0.15626,-0.46875 0.17187,-0.1875 0.5,-0.1875 0.34374,0 0.51562,0.1875 0.17188,0.1875 0.17188,0.46875 0,0.26563 -0.17188,0.45313 -0.17188,0.17187 -0.51562,0.17187 -0.32813,0 -0.5,-0.17187 -0.15626,-0.1875 -0.15626,-0.45313 z m 8.375,-7.35937 -3.53124,7.92187 H 172.275 l 3.51563,-7.64062 h -4.60938 v -0.89063 h 5.76562 z m 7.07813,7.92187 h -5.59375 v -0.78125 l 2.95312,-3.28125 q 0.65626,-0.75 0.90626,-1.20312 0.25,-0.46875 0.25,-0.96875 0,-0.67188 -0.40626,-1.09375 -0.39062,-0.4375 -1.07812,-0.4375 -0.79688,0 -1.25,0.46875 -0.45312,0.45312 -0.45312,1.28125 H 178.275 q 0,-1.1875 0.75,-1.90625 0.76563,-0.73438 2.03125,-0.73438 1.20312,0 1.89062,0.625 0.6875,0.625 0.6875,1.67188 0,1.25 -1.60937,3 l -2.28125,2.46875 h 4.28125 z"
           fill-rule="nonzero"
           id="path170" />
        <path
           fill="#ea4335"
           d="m 460.06874,233.95321 h -2.85937 v -0.875 h 2.85937 z m 4.1875,3.1875 h -1.07813 v -7.21875 l -2.1875,0.79687 v -0.98437 l 3.10938,-1.17188 h 0.15625 z m 8.79687,-3.64063 q 0,1.90625 -0.65624,2.84375 -0.64063,0.92188 -2.03126,0.92188 -1.35937,0 -2.01562,-0.90625 -0.65625,-0.90625 -0.6875,-2.71875 v -1.4375 q 0,-1.89063 0.64062,-2.79688 0.65626,-0.92187 2.04688,-0.92187 1.375,0 2.03125,0.89062 0.65625,0.875 0.67187,2.71875 z m -1.09374,-1.48437 q 0,-1.375 -0.39063,-2 -0.375,-0.64063 -1.21875,-0.64063 -0.82812,0 -1.21875,0.64063 -0.375,0.625 -0.375,1.92187 v 1.73438 q 0,1.375 0.39063,2.04687 0.40624,0.65625 1.21874,0.65625 0.79688,0 1.1875,-0.625 0.39063,-0.625 0.40626,-1.95312 z m 2.875,4.5625 q 0,-0.28125 0.15624,-0.46875 0.17188,-0.1875 0.5,-0.1875 0.34376,0 0.51563,0.1875 0.17187,0.1875 0.17187,0.46875 0,0.26562 -0.17187,0.45312 -0.17187,0.17188 -0.51563,0.17188 -0.32812,0 -0.5,-0.17188 -0.15624,-0.1875 -0.15624,-0.45312 z m 4.4375,-4.23438 h 0.8125 q 0.78124,-0.0156 1.21874,-0.40625 0.4375,-0.39062 0.4375,-1.0625 0,-1.5 -1.5,-1.5 -0.70312,0 -1.125,0.40625 -0.40624,0.40625 -0.40624,1.0625 h -1.09376 q 0,-1.01562 0.73438,-1.6875 0.75,-0.67187 1.89062,-0.67187 1.20313,0 1.89063,0.64062 0.6875,0.64063 0.6875,1.78125 0,0.5625 -0.35937,1.07813 -0.35938,0.51562 -0.98438,0.78125 0.70312,0.21875 1.07812,0.73437 0.39063,0.51563 0.39063,1.26563 0,1.14062 -0.75,1.82812 -0.75,0.67188 -1.95313,0.67188 -1.1875,0 -1.95312,-0.65625 -0.75,-0.65625 -0.75,-1.71875 h 1.09375 q 0,0.67187 0.4375,1.07812 0.4375,0.40625 1.1875,0.40625 0.78125,0 1.1875,-0.40625 0.42187,-0.42187 0.42187,-1.1875 0,-0.73437 -0.45312,-1.125 -0.45312,-0.40625 -1.32812,-0.42187 h -0.8125 z"
           fill-rule="nonzero"
           id="path174" />
        <path
           fill="#fbbc04"
           d="m 151.25453,283.16375 h -2.85938 v -0.875 h 2.85938 z m 4.1875,3.1875 h -1.07812 v -7.21875 l -2.1875,0.79688 V 278.945 l 3.10937,-1.17188 h 0.15625 z m 9.03125,0 h -5.59375 V 285.57 l 2.95312,-3.28125 q 0.65626,-0.75 0.90626,-1.20313 0.25,-0.46874 0.25,-0.96874 0,-0.67188 -0.40626,-1.09376 -0.39062,-0.4375 -1.07812,-0.4375 -0.79688,0 -1.25,0.46876 -0.45312,0.45312 -0.45312,1.28124 h -1.07813 q 0,-1.1875 0.75,-1.90624 0.76563,-0.73438 2.03125,-0.73438 1.20312,0 1.89062,0.625 0.6875,0.625 0.6875,1.67188 0,1.25 -1.60937,3 l -2.28125,2.46874 h 4.28125 z m 1.54687,-0.5625 q 0,-0.28125 0.15626,-0.46875 0.17187,-0.1875 0.5,-0.1875 0.34374,0 0.51562,0.1875 0.17188,0.1875 0.17188,0.46875 0,0.26563 -0.17188,0.45313 -0.17188,0.17187 -0.51562,0.17187 -0.32813,0 -0.5,-0.17187 -0.15626,-0.1875 -0.15626,-0.45313 z m 8.375,-7.35937 -3.53124,7.92187 h -1.14063 l 3.51563,-7.64063 h -4.60938 V 277.82 h 5.76562 z m 7.07813,7.92187 h -5.59375 V 285.57 l 2.95312,-3.28125 q 0.65626,-0.75 0.90626,-1.20313 0.25,-0.46874 0.25,-0.96874 0,-0.67188 -0.40626,-1.09376 -0.39062,-0.4375 -1.07812,-0.4375 -0.79688,0 -1.25,0.46876 -0.45312,0.45312 -0.45312,1.28124 h -1.07813 q 0,-1.1875 0.75,-1.90624 0.76563,-0.73438 2.03125,-0.73438 1.20312,0 1.89062,0.625 0.6875,0.625 0.6875,1.67188 0,1.25 -1.60937,3 l -2.28125,2.46874 h 4.28125 z"
           fill-rule="nonzero"
           id="path178" />
        <path
           fill="#fbbc04"
           d="M 456.33437,257.56867 H 453.475 v -0.875 h 2.85937 z m 4.1875,3.1875 h -1.07813 v -7.21875 l -2.1875,0.79688 v -0.98438 l 3.10938,-1.17187 h 0.15625 z m 7,0 h -1.07813 v -7.21875 l -2.1875,0.79688 v -0.98438 l 3.10938,-1.17187 h 0.15625 z m 3.57813,-0.5625 q 0,-0.28125 0.15624,-0.46875 0.17188,-0.1875 0.5,-0.1875 0.34376,0 0.51563,0.1875 0.17187,0.1875 0.17187,0.46875 0,0.26563 -0.17187,0.45313 -0.17187,0.17187 -0.51563,0.17187 -0.32812,0 -0.5,-0.17187 Q 471.1,260.4593 471.1,260.19367 Z m 8.04687,-5.75 q 0,0.64063 -0.34375,1.14063 -0.34375,0.5 -0.90625,0.78125 0.65625,0.28125 1.04687,0.84375 0.39063,0.54687 0.39063,1.25 0,1.09375 -0.75,1.76562 -0.73437,0.65625 -1.95313,0.65625 -1.23437,0 -1.98437,-0.65625 -0.73437,-0.67187 -0.73437,-1.76562 0,-0.70313 0.375,-1.25 0.375,-0.5625 1.04687,-0.84375 -0.5625,-0.28125 -0.89063,-0.78125 -0.32812,-0.5 -0.32812,-1.14063 0,-1.07812 0.6875,-1.70312 0.6875,-0.64063 1.82812,-0.64063 1.125,0 1.8125,0.64063 0.70313,0.625 0.70313,1.70312 z m -0.89063,3.98438 q 0,-0.71875 -0.45312,-1.15625 -0.45312,-0.45313 -1.1875,-0.45313 -0.73438,0 -1.1875,0.45313 -0.4375,0.4375 -0.4375,1.17187 0,0.71875 0.4375,1.14063 0.4375,0.40625 1.20312,0.40625 0.75,0 1.1875,-0.42188 0.4375,-0.42187 0.4375,-1.14062 z m -1.625,-5.4375 q -0.64062,0 -1.04687,0.40625 -0.39063,0.39062 -0.39063,1.07812 0,0.64063 0.39063,1.04688 0.39063,0.40625 1.03125,0.40625 0.65625,0 1.04688,-0.40625 0.39062,-0.40625 0.39062,-1.04688 0,-0.65625 -0.40625,-1.0625 -0.40625,-0.42187 -1.01563,-0.42187 z"
           fill-rule="nonzero"
           id="path182" />
        <path
           fill="#34a853"
           d="m 145.95163,265.28968 h -2.85938 v -0.875 h 2.85938 z m 4.1875,3.1875 h -1.07812 v -7.21874 l -2.1875,0.79687 v -0.98437 l 3.10937,-1.17188 h 0.15625 z m 9.03124,0 h -5.59374 v -0.78124 l 2.95311,-3.28126 q 0.65626,-0.75 0.90626,-1.20312 0.25,-0.46875 0.25,-0.96875 0,-0.67187 -0.40626,-1.09375 -0.39062,-0.4375 -1.07812,-0.4375 -0.79688,0 -1.25,0.46875 -0.45311,0.45313 -0.45311,1.28125 h -1.07813 q 0,-1.1875 0.75,-1.90625 0.76562,-0.73437 2.03124,-0.73437 1.20312,0 1.89062,0.625 0.6875,0.625 0.6875,1.67187 0,1.25 -1.60937,3 l -2.28125,2.46875 h 4.28125 z m 1.54687,-0.5625 q 0,-0.28124 0.15626,-0.46874 0.17187,-0.1875 0.5,-0.1875 0.34374,0 0.51562,0.1875 0.17188,0.1875 0.17188,0.46874 0,0.26563 -0.17188,0.45313 -0.17188,0.17187 -0.51562,0.17187 -0.32813,0 -0.5,-0.17187 -0.15626,-0.1875 -0.15626,-0.45313 z m 3.35938,-3.71874 0.4375,-4.25 h 4.375 v 1 H 165.436 l -0.26563,2.32812 q 0.64063,-0.375 1.4375,-0.375 1.15625,0 1.84375,0.78125 0.6875,0.76563 0.6875,2.07813 0,1.3125 -0.71875,2.07812 -0.70313,0.76562 -1.98437,0.76562 -1.125,0 -1.84376,-0.625 -0.71874,-0.64062 -0.8125,-1.75 h 1.01563 q 0.10937,0.73438 0.53125,1.10938 0.42188,0.375 1.10938,0.375 0.75,0 1.1875,-0.51562 0.4375,-0.51563 0.4375,-1.42188 0,-0.85938 -0.46876,-1.375 -0.46874,-0.51562 -1.25,-0.51562 -0.70312,0 -1.10937,0.29687 l -0.28125,0.23437 z m 11.6875,-2.03126 q 0,0.64063 -0.34375,1.14063 -0.34375,0.5 -0.90625,0.78125 0.65625,0.28125 1.04688,0.84375 0.39062,0.54687 0.39062,1.25 0,1.09375 -0.75,1.76563 -0.73438,0.65624 -1.95312,0.65624 -1.23438,0 -1.98438,-0.65624 -0.73438,-0.67188 -0.73438,-1.76563 0,-0.70313 0.375,-1.25 0.375,-0.5625 1.04688,-0.84375 -0.5625,-0.28125 -0.89062,-0.78125 -0.32813,-0.5 -0.32813,-1.14063 0,-1.07812 0.6875,-1.70312 0.6875,-0.64062 1.82813,-0.64062 1.125,0 1.8125,0.64062 0.70312,0.625 0.70312,1.70312 z m -0.89062,3.98438 q 0,-0.71875 -0.45313,-1.15625 -0.45313,-0.45313 -1.1875,-0.45313 -0.73437,0 -1.1875,0.45313 -0.4375,0.4375 -0.4375,1.17187 0,0.71876 0.4375,1.14063 0.4375,0.40625 1.20313,0.40625 0.75,0 1.1875,-0.42188 0.4375,-0.42187 0.4375,-1.14062 z m -1.625,-5.4375 q -0.64063,0 -1.04688,0.40625 -0.39062,0.39063 -0.39062,1.07813 0,0.64062 0.39062,1.04687 0.39062,0.40625 1.03125,0.40625 0.65625,0 1.04687,-0.40625 0.39063,-0.40625 0.39063,-1.04687 0,-0.65626 -0.40625,-1.0625 -0.40625,-0.42188 -1.01562,-0.42188 z"
           fill-rule="nonzero"
           id="path186" />
        <path
           fill="#34a853"
           d="M 456.33437,248.99055 H 453.475 v -0.875 h 2.85937 z m 4.1875,3.1875 h -1.07813 v -7.21875 l -2.1875,0.79688 v -0.98438 l 3.10938,-1.17187 h 0.15625 z m 7,0 h -1.07813 v -7.21875 l -2.1875,0.79688 v -0.98438 l 3.10938,-1.17187 h 0.15625 z m 3.57813,-0.5625 q 0,-0.28125 0.15624,-0.46875 0.17188,-0.1875 0.5,-0.1875 0.34376,0 0.51563,0.1875 0.17187,0.1875 0.17187,0.46875 0,0.26563 -0.17187,0.45313 -0.17187,0.17187 -0.51563,0.17187 -0.32812,0 -0.5,-0.17187 Q 471.1,251.88118 471.1,251.61555 Z m 4.4375,-4.23437 h 0.8125 q 0.78124,-0.0156 1.21874,-0.40625 0.4375,-0.39063 0.4375,-1.0625 0,-1.5 -1.5,-1.5 -0.70312,0 -1.125,0.40625 -0.40624,0.40625 -0.40624,1.0625 h -1.09376 q 0,-1.01563 0.73438,-1.6875 0.75,-0.67188 1.89062,-0.67188 1.20313,0 1.89063,0.64063 0.6875,0.64062 0.6875,1.78125 0,0.5625 -0.35937,1.07812 -0.35938,0.51563 -0.98438,0.78125 0.70312,0.21875 1.07812,0.73438 0.39063,0.51562 0.39063,1.26562 0,1.14063 -0.75,1.82813 -0.75,0.67187 -1.95313,0.67187 -1.1875,0 -1.95312,-0.65625 -0.75,-0.65625 -0.75,-1.71875 h 1.09375 q 0,0.67188 0.4375,1.07813 0.4375,0.40625 1.1875,0.40625 0.78125,0 1.1875,-0.40625 0.42187,-0.42188 0.42187,-1.1875 0,-0.73438 -0.45312,-1.125 -0.45312,-0.40625 -1.32812,-0.42188 h -0.8125 z"
           fill-rule="nonzero"
           id="path190" />
        <path
           fill="#000000"
           d="m 111.50037,301.8719 v -1.0625 h 3.25 v 1.0625 z m 8.09374,2.5781 h -1.04687 v -6.71874 q -0.39063,0.35938 -1.01563,0.73438 -0.60937,0.35936 -1.09375,0.53126 v -1.01564 q 0.875,-0.42186 1.53125,-1 0.67188,-0.59376 0.95313,-1.15626 h 0.67187 z m 3.03125,-2.25 1.10937,-0.0937 q 0.125,0.8125 0.5625,1.21874 0.45313,0.40626 1.09375,0.40626 0.75,0 1.28125,-0.57812 0.53125,-0.57814 0.53125,-1.51564 0,-0.90624 -0.51562,-1.42186 -0.5,-0.53124 -1.32813,-0.53124 -0.5,0 -0.92187,0.23436 -0.40625,0.23438 -0.64063,0.59374 l -0.98437,-0.125 0.82812,-4.40624 h 4.28125 v 1 h -3.4375 l -0.45312,2.3125 q 0.76562,-0.54686 1.60937,-0.54686 1.125,0 1.89063,0.78124 0.78125,0.78126 0.78125,2.01562 0,1.15624 -0.67188,2.01564 -0.82812,1.03124 -2.25,1.03124 -1.17187,0 -1.92187,-0.65624 -0.73438,-0.6563 -0.84375,-1.73444 z"
           fill-rule="nonzero"
           id="path194" />
        <path
           fill="#000000"
           d="m 111.50037,231.14966 v -1.0625 h 3.25 v 1.0625 z m 8.09374,2.57812 h -1.04687 v -6.71875 q -0.39063,0.35938 -1.01563,0.73438 -0.60937,0.35937 -1.09375,0.53125 v -1.01563 q 0.875,-0.42187 1.53125,-1 0.67188,-0.59375 0.95313,-1.15625 h 0.67187 z m 3.03125,-4.23437 q 0,-1.53125 0.3125,-2.45313 0.3125,-0.9375 0.92187,-1.4375 0.625,-0.5 1.5625,-0.5 0.6875,0 1.20313,0.28125 0.53125,0.28125 0.875,0.8125 0.34375,0.51563 0.53125,1.26563 0.1875,0.75 0.1875,2.03125 0,1.51562 -0.3125,2.4375 -0.29688,0.92187 -0.92188,1.4375 -0.60937,0.5 -1.5625,0.5 -1.23437,0 -1.95312,-0.89063 -0.84375,-1.0625 -0.84375,-3.48437 z m 1.07812,0 q 0,2.10937 0.5,2.8125 0.5,0.70312 1.21875,0.70312 0.73438,0 1.21875,-0.70312 0.5,-0.70313 0.5,-2.8125 0,-2.125 -0.5,-2.8125 -0.48437,-0.70313 -1.23437,-0.70313 -0.71875,0 -1.15625,0.60938 -0.54688,0.78125 -0.54688,2.90625 z"
           fill-rule="nonzero"
           id="path196" />
        <path
           fill="#000000"
           d="m 118.50036,160.42743 v -1.0625 h 3.25 v 1.0625 z m 4.125,0.32812 1.10937,-0.0937 q 0.125,0.8125 0.5625,1.21875 0.45313,0.40625 1.09375,0.40625 0.75,0 1.28125,-0.57812 0.53125,-0.57813 0.53125,-1.51563 0,-0.90625 -0.51562,-1.42187 -0.5,-0.53125 -1.32813,-0.53125 -0.5,0 -0.92187,0.23437 -0.40625,0.23438 -0.64063,0.59375 l -0.98437,-0.125 0.82812,-4.40625 h 4.28125 v 1 h -3.4375 l -0.45312,2.3125 q 0.76562,-0.54687 1.60937,-0.54687 1.125,0 1.89063,0.78125 0.78125,0.78125 0.78125,2.01562 0,1.15625 -0.67188,2.01563 -0.82812,1.03125 -2.25,1.03125 -1.17187,0 -1.92187,-0.65625 -0.73438,-0.65625 -0.84375,-1.73438 z"
           fill-rule="nonzero"
           id="path198" />
        <path
           fill="#000000"
           d="m 122.62536,88.04896 q 0,-1.53125 0.3125,-2.45313 0.3125,-0.9375 0.92187,-1.4375 0.625,-0.5 1.5625,-0.5 0.6875,0 1.20313,0.28125 0.53125,0.28125 0.875,0.8125 0.34375,0.51563 0.53125,1.26563 0.1875,0.75 0.1875,2.03125 0,1.51562 -0.3125,2.4375 -0.29688,0.92187 -0.92188,1.4375 -0.60937,0.5 -1.5625,0.5 -1.23437,0 -1.95312,-0.89063 -0.84375,-1.0625 -0.84375,-3.48437 z m 1.07812,0 q 0,2.10937 0.5,2.8125 0.5,0.70312 1.21875,0.70312 0.73438,0 1.21875,-0.70312 0.5,-0.70313 0.5,-2.8125 0,-2.125 -0.5,-2.8125 -0.48437,-0.70313 -1.23437,-0.70313 -0.71875,0 -1.15625,0.60938 -0.54688,0.78125 -0.54688,2.90625 z"
           fill-rule="nonzero"
           id="path200" />
      </g>
      <g
         style="fill:none;stroke:none;stroke-linecap:square;stroke-miterlimit:10"
         id="g620"
         transform="translate(307.9032,-9.2562439)">
        <path
           stroke="#333333"
           stroke-width="0.801128"
           stroke-linecap="butt"
           d="M 51.5,300.5 H 391.65748"
           fill-rule="nonzero"
           id="path380" />
        <path
           stroke="#cccccc"
           stroke-width="0.801128"
           stroke-linecap="butt"
           d="M 51.5,246.5 H 391.65748"
           fill-rule="nonzero"
           id="path382" />
        <path
           stroke="#cccccc"
           stroke-width="0.801128"
           stroke-linecap="butt"
           d="M 51.5,193.5 H 391.65748"
           fill-rule="nonzero"
           id="path384" />
        <path
           stroke="#cccccc"
           stroke-width="0.801128"
           stroke-linecap="butt"
           d="M 51.5,139.5 H 391.65748"
           fill-rule="nonzero"
           id="path386" />
        <path
           stroke="#cccccc"
           stroke-width="0.801128"
           stroke-linecap="butt"
           d="M 51.5,86.5 H 391.65748"
           fill-rule="nonzero"
           id="path388" />
        <path
           stroke="#e6e6e6"
           stroke-width="0.801128"
           stroke-linecap="butt"
           d="M 51.5,282.5 H 391.65748"
           fill-rule="nonzero"
           id="path390" />
        <path
           stroke="#e6e6e6"
           stroke-width="0.801128"
           stroke-linecap="butt"
           d="M 51.5,264.5 H 391.65748"
           fill-rule="nonzero"
           id="path392" />
        <path
           stroke="#e6e6e6"
           stroke-width="0.801128"
           stroke-linecap="butt"
           d="M 51.5,229.5 H 391.65748"
           fill-rule="nonzero"
           id="path394" />
        <path
           stroke="#e6e6e6"
           stroke-width="0.801128"
           stroke-linecap="butt"
           d="M 51.5,211.5 H 391.65748"
           fill-rule="nonzero"
           id="path396" />
        <path
           stroke="#e6e6e6"
           stroke-width="0.801128"
           stroke-linecap="butt"
           d="M 51.5,175.5 H 391.65748"
           fill-rule="nonzero"
           id="path398" />
        <path
           stroke="#e6e6e6"
           stroke-width="0.801128"
           stroke-linecap="butt"
           d="M 51.5,157.5 H 391.65748"
           fill-rule="nonzero"
           id="path400" />
        <path
           stroke="#e6e6e6"
           stroke-width="0.801128"
           stroke-linecap="butt"
           d="M 51.5,121.5 H 391.65748"
           fill-rule="nonzero"
           id="path402" />
        <path
           stroke="#e6e6e6"
           stroke-width="0.801128"
           stroke-linecap="butt"
           d="M 51.5,104.5 H 391.65748"
           fill-rule="nonzero"
           id="path404" />
        <path
           stroke="#eeeeee"
           stroke-width="1"
           stroke-linecap="butt"
           d="m 91.047394,155.95 v 16"
           fill-rule="nonzero"
           id="path406" />
        <path
           stroke="#eeeeee"
           stroke-width="1"
           stroke-linecap="butt"
           d="m 355.99738,209.49167 v 16"
           fill-rule="nonzero"
           id="path408" />
        <path
           stroke="#eeeeee"
           stroke-width="1"
           stroke-linecap="butt"
           d="m 91.047394,214.84584 v 16"
           fill-rule="nonzero"
           id="path410" />
        <path
           stroke="#eeeeee"
           stroke-width="1"
           stroke-linecap="butt"
           d="m 355.99738,263.03333 v 16"
           fill-rule="nonzero"
           id="path412" />
        <path
           stroke="#eeeeee"
           stroke-width="1"
           stroke-linecap="butt"
           d="m 91.047394,220.2 v 16"
           fill-rule="nonzero"
           id="path414" />
        <path
           stroke="#eeeeee"
           stroke-width="1"
           stroke-linecap="butt"
           d="m 355.99738,246.97084 v 15.99999"
           fill-rule="nonzero"
           id="path416" />
        <path
           stroke="#eeeeee"
           stroke-width="1"
           stroke-linecap="butt"
           d="m 184.025,107.7625 v 16"
           fill-rule="nonzero"
           id="path418" />
        <path
           stroke="#eeeeee"
           stroke-width="1"
           stroke-linecap="butt"
           d="m 355.99738,225.55417 v 16"
           fill-rule="nonzero"
           id="path420" />
        <path
           stroke="#000000"
           stroke-width="1"
           stroke-linecap="butt"
           d="M 51.5,300.5 V 86.5"
           fill-rule="nonzero"
           id="path422" />
        <path
           stroke="#4285f4"
           stroke-width="0.91134"
           stroke-linecap="butt"
           stroke-opacity="0.4"
           clip-path="url(#id_0)"
           d="M 91.047394,171.95 355.99738,225.49167"
           fill-rule="nonzero"
           id="path427" />
        <path
           stroke="#ea4335"
           stroke-width="0.91134"
           stroke-linecap="butt"
           stroke-opacity="0.4"
           clip-path="url(#id_0)"
           d="M 91.047394,230.84584 355.99738,279.03333"
           fill-rule="nonzero"
           id="path429" />
        <path
           stroke="#fbbc04"
           stroke-width="0.912403"
           stroke-linecap="butt"
           stroke-opacity="0.4"
           clip-path="url(#id_0)"
           d="M 91.047394,236.2 355.99738,263.03333"
           fill-rule="nonzero"
           id="path431" />
        <path
           stroke="#34a853"
           stroke-width="0.91134"
           stroke-linecap="butt"
           stroke-opacity="0.4"
           clip-path="url(#id_0)"
           d="M 91.047394,123.7625 355.99738,241.55417"
           fill-rule="nonzero"
           id="path433" />
        <path
           fill="#4285f4"
           clip-path="url(#id_0)"
           d="m 95.54739,171.95 c 0,2.48529 -2.014708,4.5 -4.499996,4.5 -2.485293,0 -4.500013,-2.01471 -4.500013,-4.5 0,-2.48528 2.01472,-4.5 4.500013,-4.5 2.485288,0 4.499996,2.01472 4.499996,4.5 z"
           fill-rule="nonzero"
           id="path435" />
        <path
           fill="#4285f4"
           clip-path="url(#id_0)"
           d="m 360.49738,225.49167 c 0,2.48527 -2.0147,4.5 -4.5,4.5 -2.48528,0 -4.5,-2.01473 -4.5,-4.5 0,-2.48529 2.01472,-4.5 4.5,-4.5 2.4853,0 4.5,2.01471 4.5,4.5 z"
           fill-rule="nonzero"
           id="path437" />
        <path
           fill="#ea4335"
           clip-path="url(#id_0)"
           d="m 95.54739,230.84584 c 0,2.48528 -2.014708,4.5 -4.499996,4.5 -2.485293,0 -4.500013,-2.01472 -4.500013,-4.5 0,-2.48529 2.01472,-4.5 4.500013,-4.5 2.485288,0 4.499996,2.01471 4.499996,4.5 z"
           fill-rule="nonzero"
           id="path439" />
        <path
           fill="#ea4335"
           clip-path="url(#id_0)"
           d="m 360.49738,279.03333 c 0,2.48529 -2.0147,4.5 -4.5,4.5 -2.48528,0 -4.5,-2.01471 -4.5,-4.5 0,-2.48526 2.01472,-4.5 4.5,-4.5 2.4853,0 4.5,2.01474 4.5,4.5 z"
           fill-rule="nonzero"
           id="path441" />
        <path
           fill="#fbbc04"
           clip-path="url(#id_0)"
           d="m 95.54739,236.2 c 0,2.48529 -2.014708,4.5 -4.499996,4.5 -2.485293,0 -4.500013,-2.01471 -4.500013,-4.5 0,-2.48528 2.01472,-4.5 4.500013,-4.5 2.485288,0 4.499996,2.01472 4.499996,4.5 z"
           fill-rule="nonzero"
           id="path443" />
        <path
           fill="#fbbc04"
           clip-path="url(#id_0)"
           d="m 360.49738,262.97083 c 0,2.48529 -2.0147,4.5 -4.5,4.5 -2.48528,0 -4.5,-2.01471 -4.5,-4.5 0,-2.48526 2.01472,-4.5 4.5,-4.5 2.4853,0 4.5,2.01474 4.5,4.5 z"
           fill-rule="nonzero"
           id="path445" />
        <path
           fill="#34a853"
           clip-path="url(#id_0)"
           d="m 95.54739,123.7625 c 0,2.48528 -2.014708,4.5 -4.499996,4.5 -2.485293,0 -4.500013,-2.01472 -4.500013,-4.5 0,-2.48528 2.01472,-4.5 4.500013,-4.5 2.485288,0 4.499996,2.01472 4.499996,4.5 z"
           fill-rule="nonzero"
           id="path447" />
        <path
           fill="#34a853"
           clip-path="url(#id_0)"
           d="m 360.49738,241.55417 c 0,2.48527 -2.0147,4.5 -4.5,4.5 -2.48528,0 -4.5,-2.01473 -4.5,-4.5 0,-2.48529 2.01472,-4.5 4.5,-4.5 2.4853,0 4.5,2.01471 4.5,4.5 z"
           fill-rule="nonzero"
           id="path449" />
        <path
           stroke="#000000"
           stroke-width="1"
           stroke-linecap="butt"
           d="m 48.5,282.5 h 6"
           fill-rule="nonzero"
           id="path451" />
        <path
           stroke="#000000"
           stroke-width="1"
           stroke-linecap="butt"
           d="m 48.5,264.5 h 6"
           fill-rule="nonzero"
           id="path453" />
        <path
           stroke="#000000"
           stroke-width="1"
           stroke-linecap="butt"
           d="m 48.5,229.5 h 6"
           fill-rule="nonzero"
           id="path455" />
        <path
           stroke="#000000"
           stroke-width="1"
           stroke-linecap="butt"
           d="m 48.5,211.5 h 6"
           fill-rule="nonzero"
           id="path457" />
        <path
           stroke="#000000"
           stroke-width="1"
           stroke-linecap="butt"
           d="m 48.5,175.5 h 6"
           fill-rule="nonzero"
           id="path459" />
        <path
           stroke="#000000"
           stroke-width="1"
           stroke-linecap="butt"
           d="m 48.5,157.5 h 6"
           fill-rule="nonzero"
           id="path461" />
        <path
           stroke="#000000"
           stroke-width="1"
           stroke-linecap="butt"
           d="m 48.5,121.5 h 6"
           fill-rule="nonzero"
           id="path463" />
        <path
           stroke="#000000"
           stroke-width="1"
           stroke-linecap="butt"
           d="m 48.5,104.5 h 6"
           fill-rule="nonzero"
           id="path465" />
        <path
           stroke="#000000"
           stroke-width="1"
           stroke-linecap="butt"
           d="m 45.5,300.5 h 12"
           fill-rule="nonzero"
           id="path467" />
        <path
           stroke="#000000"
           stroke-width="1"
           stroke-linecap="butt"
           d="m 45.5,246.5 h 12"
           fill-rule="nonzero"
           id="path469" />
        <path
           stroke="#000000"
           stroke-width="1"
           stroke-linecap="butt"
           d="m 45.5,193.5 h 12"
           fill-rule="nonzero"
           id="path471" />
        <path
           stroke="#000000"
           stroke-width="1"
           stroke-linecap="butt"
           d="m 45.5,139.5 h 12"
           fill-rule="nonzero"
           id="path473" />
        <path
           stroke="#000000"
           stroke-width="1"
           stroke-linecap="butt"
           d="m 45.5,86.5 h 12"
           fill-rule="nonzero"
           id="path475" />
        <path
           fill="#4285f4"
           d="m 63.672894,172.99324 q 0,1.90625 -0.656259,2.84375 -0.64062,0.92188 -2.03124,0.92188 -1.359379,0 -2.015629,-0.90625 -0.65625,-0.90625 -0.6875,-2.71875 v -1.4375 q 0,-1.89063 0.64063,-2.79688 0.65624,-0.92187 2.046869,-0.92187 1.375,0 2.03125,0.89062 0.656249,0.875 0.671879,2.71875 z m -1.093759,-1.48437 q 0,-1.375 -0.39062,-2 -0.375,-0.64063 -1.21875,-0.64063 -0.828129,0 -1.218749,0.64063 -0.375,0.625 -0.375,1.92187 v 1.73438 q 0,1.375 0.39062,2.04687 0.40626,0.65625 1.218759,0.65625 0.79687,0 1.1875,-0.625 0.39062,-0.625 0.40624,-1.95312 z m 2.874999,4.5625 q 0,-0.28125 0.15626,-0.46875 0.17187,-0.1875 0.499999,-0.1875 0.34374,0 0.51562,0.1875 0.17188,0.1875 0.17188,0.46875 0,0.26562 -0.17188,0.45312 -0.17188,0.17188 -0.51562,0.17188 -0.328129,0 -0.499999,-0.17188 -0.15626,-0.1875 -0.15626,-0.45312 z m 8.453127,0.5625 h -5.593748 v -0.78125 l 2.953119,-3.28125 q 0.656259,-0.75 0.906259,-1.20313 0.25,-0.46875 0.25,-0.96875 0,-0.67187 -0.40626,-1.09375 -0.39062,-0.4375 -1.078119,-0.4375 -0.79688,0 -1.25,0.46875 -0.45312,0.45313 -0.45312,1.28125 h -1.078129 q 0,-1.1875 0.749999,-1.90625 0.76563,-0.73437 2.03125,-0.73437 1.203119,0 1.890619,0.625 0.6875,0.625 0.6875,1.67187 0,1.25 -1.60937,3 l -2.281249,2.46875 h 4.281249 z m 5.984374,-2.85938 h 1.187502 v 0.875 h -1.187502 v 1.98438 h -1.07812 v -1.98438 h -3.890622 v -0.64062 l 3.812502,-5.90625 h 1.15624 z m -3.734372,0 h 2.656252 v -4.1875 l -0.14062,0.23438 z"
           fill-rule="nonzero"
           id="path479" />
        <path
           stroke="#ffffff"
           stroke-width="3"
           stroke-linejoin="round"
           stroke-linecap="round"
           d="m 350.05988,203.85104 q 0,1.90626 -0.65624,2.84376 -0.64063,0.92187 -2.03126,0.92187 -1.35937,0 -2.01562,-0.90625 -0.65625,-0.90625 -0.6875,-2.71875 v -1.4375 q 0,-1.89063 0.64062,-2.79687 0.65626,-0.92188 2.04688,-0.92188 1.375,0 2.03125,0.89062 0.65625,0.875 0.67187,2.71876 z m -1.09374,-1.48437 q 0,-1.375 -0.39063,-2 -0.375,-0.64063 -1.21875,-0.64063 -0.82812,0 -1.21875,0.64063 -0.375,0.625 -0.375,1.92187 v 1.73438 q 0,1.375 0.39063,2.04688 0.40624,0.65624 1.21874,0.65624 0.79688,0 1.1875,-0.625 0.39063,-0.625 0.40626,-1.95312 z m 2.875,4.5625 q 0,-0.28125 0.15624,-0.46875 0.17188,-0.1875 0.5,-0.1875 0.34376,0 0.51563,0.1875 0.17187,0.1875 0.17187,0.46875 0,0.26563 -0.17187,0.45313 -0.17187,0.17187 -0.51563,0.17187 -0.32812,0 -0.5,-0.17187 -0.15624,-0.1875 -0.15624,-0.45313 z m 6.42187,0.5625 h -1.07813 v -7.21875 l -2.1875,0.79688 v -0.98438 l 3.10938,-1.17188 h 0.15625 z m 8.01563,-2.85937 h 1.1875 v 0.875 h -1.1875 v 1.98437 h -1.07813 v -1.98437 h -3.89063 v -0.64063 l 3.8125,-5.90625 h 1.15626 z m -3.73438,0 h 2.65625 v -4.1875 l -0.14063,0.23437 z"
           fill-rule="nonzero"
           id="path481" />
        <path
           fill="#4285f4"
           d="m 370.68671,224.3389 q 0,1.90626 -0.65624,2.84376 -0.64063,0.92187 -2.03126,0.92187 -1.35937,0 -2.01562,-0.90625 -0.65625,-0.90625 -0.6875,-2.71875 v -1.4375 q 0,-1.89063 0.64062,-2.79687 0.65626,-0.92188 2.04688,-0.92188 1.375,0 2.03125,0.89062 0.65625,0.875 0.67187,2.71876 z m -1.09374,-1.48437 q 0,-1.375 -0.39063,-2 -0.375,-0.64063 -1.21875,-0.64063 -0.82812,0 -1.21875,0.64063 -0.375,0.625 -0.375,1.92187 v 1.73438 q 0,1.375 0.39063,2.04688 0.40624,0.65624 1.21874,0.65624 0.79688,0 1.1875,-0.625 0.39063,-0.625 0.40626,-1.95312 z m 2.875,4.5625 q 0,-0.28125 0.15624,-0.46875 0.17188,-0.1875 0.5,-0.1875 0.34376,0 0.51563,0.1875 0.17187,0.1875 0.17187,0.46875 0,0.26563 -0.17187,0.45313 -0.17187,0.17187 -0.51563,0.17187 -0.32812,0 -0.5,-0.17187 -0.15624,-0.1875 -0.15624,-0.45313 z m 6.42187,0.5625 h -1.07813 v -7.21875 l -2.1875,0.79688 v -0.98438 l 3.10938,-1.17188 h 0.15625 z m 8.01563,-2.85937 h 1.1875 v 0.875 h -1.1875 v 1.98437 h -1.07813 v -1.98437 h -3.89063 v -0.64063 l 3.8125,-5.90625 h 1.15626 z m -3.73438,0 h 2.65625 v -4.1875 l -0.14063,0.23437 z"
           fill-rule="nonzero"
           id="path483" />
        <path
           fill="#ea4335"
           d="m 64.608484,222.11896 q 0,1.90625 -0.65626,2.84375 -0.640619,0.92187 -2.031239,0.92187 -1.359379,0 -2.015629,-0.90625 -0.65625,-0.90625 -0.6875,-2.71875 v -1.4375 q 0,-1.89062 0.64063,-2.79687 0.65624,-0.92188 2.046869,-0.92188 1.375,0 2.031249,0.89063 0.65625,0.875 0.67188,2.71875 z m -1.09376,-1.48438 q 0,-1.375 -0.390619,-2 -0.375,-0.64062 -1.21875,-0.64062 -0.82813,0 -1.218749,0.64062 -0.375,0.625 -0.375,1.92188 v 1.73437 q 0,1.375 0.390619,2.04688 0.40626,0.65625 1.21876,0.65625 0.79687,0 1.1875,-0.625 0.390619,-0.625 0.406239,-1.95313 z m 2.874999,4.5625 q 0,-0.28125 0.15626,-0.46875 0.17187,-0.1875 0.5,-0.1875 0.34374,0 0.51562,0.1875 0.17188,0.1875 0.17188,0.46875 0,0.26563 -0.17188,0.45313 -0.17188,0.17187 -0.51562,0.17187 -0.32813,0 -0.5,-0.17187 -0.15626,-0.1875 -0.15626,-0.45313 z m 6.421878,0.5625 h -1.07812 v -7.21875 l -2.187499,0.79688 v -0.98438 l 3.109369,-1.17187 h 0.15625 z m 5.015624,-4.79687 h 0.8125 q 0.78126,-0.0156 1.21876,-0.40625 0.4375,-0.39063 0.4375,-1.0625 0,-1.5 -1.5,-1.5 -0.70313,0 -1.125,0.40625 -0.406262,0.40625 -0.406262,1.0625 h -1.09374 q 0,-1.01563 0.73437,-1.6875 0.750002,-0.67188 1.890632,-0.67188 1.20312,0 1.890622,0.64063 0.6875,0.64062 0.6875,1.78125 0,0.5625 -0.35938,1.07812 -0.35937,0.51563 -0.984372,0.78125 0.703132,0.21875 1.078132,0.73438 0.39062,0.51562 0.39062,1.26562 0,1.14063 -0.75,1.82813 -0.750002,0.67187 -1.953122,0.67187 -1.1875,0 -1.953132,-0.65625 -0.75,-0.65625 -0.75,-1.71875 h 1.09375 q 0,0.67188 0.437502,1.07813 0.4375,0.40625 1.1875,0.40625 0.78125,0 1.1875,-0.40625 0.421882,-0.42188 0.421882,-1.1875 0,-0.73438 -0.453132,-1.125 -0.45313,-0.40625 -1.32813,-0.42188 h -0.8125 z"
           fill-rule="nonzero"
           id="path487" />
        <path
           fill="#ea4335"
           d="m 370.94069,280.16578 q 0,1.90625 -0.65624,2.84375 -0.64063,0.92188 -2.03126,0.92188 -1.35937,0 -2.01562,-0.90625 -0.65625,-0.90625 -0.6875,-2.71875 v -1.4375 q 0,-1.89063 0.64062,-2.79688 0.65626,-0.92187 2.04688,-0.92187 1.375,0 2.03125,0.89062 0.65625,0.875 0.67187,2.71875 z m -1.09374,-1.48437 q 0,-1.375 -0.39063,-2 -0.375,-0.64063 -1.21875,-0.64063 -0.82812,0 -1.21875,0.64063 -0.375,0.625 -0.375,1.92187 v 1.73438 q 0,1.375 0.39063,2.04687 0.40624,0.65625 1.21874,0.65625 0.79688,0 1.1875,-0.625 0.39063,-0.625 0.40626,-1.95312 z m 2.875,4.5625 q 0,-0.28125 0.15624,-0.46875 0.17188,-0.1875 0.5,-0.1875 0.34376,0 0.51563,0.1875 0.17187,0.1875 0.17187,0.46875 0,0.26562 -0.17187,0.45312 -0.17187,0.17188 -0.51563,0.17188 -0.32812,0 -0.5,-0.17188 -0.15624,-0.1875 -0.15624,-0.45312 z m 8.21874,-3.07813 q 0,1.90625 -0.65624,2.84375 -0.64063,0.92188 -2.03126,0.92188 -1.35937,0 -2.01562,-0.90625 -0.65625,-0.90625 -0.6875,-2.71875 v -1.4375 q 0,-1.89063 0.64062,-2.79688 0.65626,-0.92187 2.04688,-0.92187 1.375,0 2.03125,0.89062 0.65625,0.875 0.67187,2.71875 z m -1.09374,-1.48437 q 0,-1.375 -0.39063,-2 -0.375,-0.64063 -1.21875,-0.64063 -0.82812,0 -1.21875,0.64063 -0.375,0.625 -0.375,1.92187 v 1.73438 q 0,1.375 0.39063,2.04687 0.40624,0.65625 1.21874,0.65625 0.79688,0 1.1875,-0.625 0.39063,-0.625 0.40626,-1.95312 z m 7.3125,2.26562 h 1.1875 v 0.875 h -1.1875 v 1.98438 h -1.07813 v -1.98438 h -3.89063 v -0.64062 l 3.8125,-5.90625 h 1.15626 z m -3.73438,0 h 2.65625 v -4.1875 l -0.14063,0.23438 z"
           fill-rule="nonzero"
           id="path491" />
        <path
           fill="#fbbc04"
           d="m 65.041784,241.2812 q 0,1.90625 -0.65626,2.84375 -0.64062,0.92188 -2.031239,0.92188 -1.35938,0 -2.015629,-0.90625 -0.65625,-0.90625 -0.6875,-2.71875 v -1.4375 q 0,-1.89063 0.64063,-2.79688 0.656239,-0.92187 2.046869,-0.92187 1.374999,0 2.031249,0.89062 0.65625,0.875 0.67188,2.71875 z m -1.09376,-1.48437 q 0,-1.375 -0.39062,-2 -0.374999,-0.64063 -1.218749,-0.64063 -0.82813,0 -1.21875,0.64063 -0.375,0.625 -0.375,1.92187 v 1.73438 q 0,1.375 0.39062,2.04687 0.40626,0.65625 1.21876,0.65625 0.79687,0 1.187499,-0.625 0.39062,-0.625 0.40624,-1.95312 z m 2.874999,4.5625 q 0,-0.28125 0.15626,-0.46875 0.17187,-0.1875 0.5,-0.1875 0.34374,0 0.51562,0.1875 0.17188,0.1875 0.17188,0.46875 0,0.26562 -0.17188,0.45312 -0.17188,0.17188 -0.51562,0.17188 -0.32813,0 -0.5,-0.17188 -0.15626,-0.1875 -0.15626,-0.45312 z m 6.421878,0.5625 h -1.07812 v -7.21875 l -2.187499,0.79687 v -0.98437 l 3.109369,-1.17188 h 0.15625 z m 9.031256,0 h -5.593754 v -0.78125 l 2.953122,-3.28125 q 0.65626,-0.75 0.906262,-1.20313 0.25,-0.46875 0.25,-0.96875 0,-0.67187 -0.40626,-1.09375 -0.390622,-0.4375 -1.078122,-0.4375 -0.79688,0 -1.25,0.46875 -0.45312,0.45313 -0.45312,1.28125 h -1.078132 q 0,-1.1875 0.75,-1.90625 0.765632,-0.73437 2.031252,-0.73437 1.203122,0 1.890622,0.625 0.6875,0.625 0.6875,1.67187 0,1.25 -1.609372,3 l -2.28125,2.46875 h 4.281252 z"
           fill-rule="nonzero"
           id="path495" />
        <path
           fill="#fbbc04"
           d="m 370.49161,259.96784 q 0,1.90625 -0.65624,2.84375 -0.64063,0.92187 -2.03126,0.92187 -1.35937,0 -2.01562,-0.90625 -0.65625,-0.90625 -0.6875,-2.71875 v -1.4375 q 0,-1.89062 0.64062,-2.79687 0.65626,-0.92188 2.04688,-0.92188 1.375,0 2.03125,0.89063 0.65625,0.875 0.67187,2.71875 z m -1.09374,-1.48438 q 0,-1.375 -0.39063,-2 -0.375,-0.64062 -1.21875,-0.64062 -0.82812,0 -1.21875,0.64062 -0.375,0.625 -0.375,1.92188 v 1.73437 q 0,1.375 0.39063,2.04688 0.40624,0.65625 1.21874,0.65625 0.79688,0 1.1875,-0.625 0.39063,-0.625 0.40626,-1.95313 z m 2.875,4.5625 q 0,-0.28125 0.15624,-0.46875 0.17188,-0.1875 0.5,-0.1875 0.34376,0 0.51563,0.1875 0.17187,0.1875 0.17187,0.46875 0,0.26563 -0.17187,0.45313 -0.17187,0.17187 -0.51563,0.17187 -0.32812,0 -0.5,-0.17187 -0.15624,-0.1875 -0.15624,-0.45313 z m 8.21874,-3.07812 q 0,1.90625 -0.65624,2.84375 -0.64063,0.92187 -2.03126,0.92187 -1.35937,0 -2.01562,-0.90625 -0.65625,-0.90625 -0.6875,-2.71875 v -1.4375 q 0,-1.89062 0.64062,-2.79687 0.65626,-0.92188 2.04688,-0.92188 1.375,0 2.03125,0.89063 0.65625,0.875 0.67187,2.71875 z m -1.09374,-1.48438 q 0,-1.375 -0.39063,-2 -0.375,-0.64062 -1.21875,-0.64062 -0.82812,0 -1.21875,0.64062 -0.375,0.625 -0.375,1.92188 v 1.73437 q 0,1.375 0.39063,2.04688 0.40624,0.65625 1.21874,0.65625 0.79688,0 1.1875,-0.625 0.39063,-0.625 0.40626,-1.95313 z m 8.25,-2.79687 -3.53126,7.92187 h -1.14062 l 3.51562,-7.64062 h -4.60937 v -0.89063 h 5.76563 z"
           fill-rule="nonzero"
           id="path499" />
        <path
           fill="#34a853"
           d="m 64.157134,126.69644 q 0,1.90625 -0.65626,2.84375 -0.640619,0.92188 -2.031239,0.92188 -1.359379,0 -2.015629,-0.90625 -0.65625,-0.90625 -0.6875,-2.71875 v -1.4375 q 0,-1.89063 0.64063,-2.79688 0.65624,-0.92187 2.046869,-0.92187 1.375,0 2.031249,0.89062 0.65625,0.875 0.67188,2.71875 z m -1.093759,-1.48437 q 0,-1.375 -0.39062,-2 -0.375,-0.64063 -1.21875,-0.64063 -0.828129,0 -1.218749,0.64063 -0.375,0.625 -0.375,1.92187 v 1.73438 q 0,1.375 0.39062,2.04687 0.40626,0.65625 1.218759,0.65625 0.79687,0 1.1875,-0.625 0.39062,-0.625 0.40624,-1.95312 z m 2.874999,4.5625 q 0,-0.28125 0.156259,-0.46875 0.17187,-0.1875 0.5,-0.1875 0.34374,0 0.51562,0.1875 0.17188,0.1875 0.17188,0.46875 0,0.26562 -0.17188,0.45312 -0.17188,0.17188 -0.51562,0.17188 -0.32813,0 -0.5,-0.17188 -0.156259,-0.1875 -0.156259,-0.45312 z m 4.437498,-4.23438 h 0.8125 q 0.781259,-0.0156 1.218759,-0.40625 0.4375,-0.39062 0.4375,-1.0625 0,-1.5 -1.5,-1.5 -0.703129,0 -1.124999,0.40625 -0.40626,0.40625 -0.40626,1.0625 h -1.09374 q 0,-1.01562 0.73437,-1.6875 0.75,-0.67187 1.890629,-0.67187 1.20312,0 1.89062,0.64062 0.6875,0.64063 0.6875,1.78125 0,0.5625 -0.35938,1.07813 -0.35937,0.51562 -0.98437,0.78125 0.70313,0.21875 1.07813,0.73437 0.39062,0.51563 0.39062,1.26563 0,1.14062 -0.75,1.82812 -0.75,0.67188 -1.95312,0.67188 -1.187499,0 -1.953129,-0.65625 -0.75,-0.65625 -0.75,-1.71875 h 1.09375 q 0,0.67187 0.4375,1.07812 0.4375,0.40625 1.187499,0.40625 0.78125,0 1.1875,-0.40625 0.42188,-0.42187 0.42188,-1.1875 0,-0.73437 -0.45313,-1.125 -0.45313,-0.40625 -1.328129,-0.42187 h -0.8125 z m 7.000003,0 h 0.8125 q 0.78126,-0.0156 1.21876,-0.40625 0.4375,-0.39062 0.4375,-1.0625 0,-1.5 -1.5,-1.5 -0.70313,0 -1.125002,0.40625 -0.40626,0.40625 -0.40626,1.0625 h -1.09374 q 0,-1.01562 0.73437,-1.6875 0.75,-0.67187 1.890632,-0.67187 1.20312,0 1.89062,0.64062 0.687502,0.64063 0.687502,1.78125 0,0.5625 -0.35938,1.07813 -0.359372,0.51562 -0.984372,0.78125 0.70313,0.21875 1.078132,0.73437 0.39062,0.51563 0.39062,1.26563 0,1.14062 -0.750002,1.82812 -0.75,0.67188 -1.95312,0.67188 -1.187502,0 -1.953132,-0.65625 -0.75,-0.65625 -0.75,-1.71875 h 1.09375 q 0,0.67187 0.4375,1.07812 0.437502,0.40625 1.187502,0.40625 0.78125,0 1.1875,-0.40625 0.42188,-0.42187 0.42188,-1.1875 0,-0.73437 -0.45313,-1.125 -0.45313,-0.40625 -1.32813,-0.42187 h -0.8125 z"
           fill-rule="nonzero"
           id="path503" />
        <path
           fill="#34a853"
           d="m 371.12212,242.24848 q 0,1.90626 -0.65624,2.84376 -0.64063,0.92187 -2.03126,0.92187 -1.35937,0 -2.01562,-0.90625 -0.65625,-0.90625 -0.6875,-2.71875 v -1.4375 q 0,-1.89063 0.64062,-2.79687 0.65626,-0.92188 2.04688,-0.92188 1.375,0 2.03125,0.89062 0.65625,0.875 0.67187,2.71876 z m -1.09374,-1.48437 q 0,-1.375 -0.39063,-2 -0.375,-0.64063 -1.21875,-0.64063 -0.82812,0 -1.21875,0.64063 -0.375,0.625 -0.375,1.92187 v 1.73438 q 0,1.375 0.39063,2.04688 0.40624,0.65624 1.21874,0.65624 0.79688,0 1.1875,-0.625 0.39063,-0.625 0.40626,-1.95312 z m 2.875,4.5625 q 0,-0.28125 0.15624,-0.46875 0.17188,-0.1875 0.5,-0.1875 0.34376,0 0.51563,0.1875 0.17187,0.1875 0.17187,0.46875 0,0.26563 -0.17187,0.45313 -0.17187,0.17187 -0.51563,0.17187 -0.32812,0 -0.5,-0.17187 -0.15624,-0.1875 -0.15624,-0.45313 z m 6.42187,0.5625 h -1.07813 v -7.21875 l -2.1875,0.79688 v -0.98438 l 3.10938,-1.17188 h 0.15625 z m 7,0 h -1.07813 v -7.21875 l -2.1875,0.79688 v -0.98438 l 3.10938,-1.17188 h 0.15625 z"
           fill-rule="nonzero"
           id="path507" />
        <path
           fill="#000000"
           d="m 23.05,300.21564 q 0,-1.53124 0.3125,-2.45314 0.3125,-0.9375 0.921874,-1.4375 0.625,-0.5 1.5625,-0.5 0.6875,0 1.203126,0.28126 0.53125,0.28124 0.875,0.8125 0.34375,0.51564 0.53125,1.26564 0.1875,0.75 0.1875,2.03124 0,1.51562 -0.3125,2.4375 -0.296876,0.92186 -0.921876,1.4375 -0.609374,0.5 -1.5625,0.5 -1.234374,0 -1.953124,-0.89064 Q 23.05,302.6375 23.05,300.21564 Z m 1.078124,0 q 0,2.10936 0.5,2.8125 0.5,0.70312 1.21875,0.70312 0.734376,0 1.21875,-0.70312 0.5,-0.70314 0.5,-2.8125 0,-2.125 -0.5,-2.8125 Q 26.58125,296.7 25.83125,296.7 q -0.71875,0 -1.15625,0.6094 -0.546876,0.78124 -0.546876,2.90624 z M 30.64375,304.45 v -1.2031 h 1.203124 V 304.45 Z M 33.05,300.21564 q 0,-1.53124 0.3125,-2.45314 0.3125,-0.9375 0.921874,-1.4375 0.625,-0.5 1.5625,-0.5 0.6875,0 1.203126,0.28126 0.53125,0.28124 0.875,0.8125 0.34375,0.51564 0.53125,1.26564 0.1875,0.75 0.1875,2.03124 0,1.51562 -0.3125,2.4375 -0.296876,0.92186 -0.921876,1.4375 -0.609374,0.5 -1.5625,0.5 -1.234374,0 -1.953124,-0.89064 Q 33.05,302.6375 33.05,300.21564 Z m 1.078124,0 q 0,2.10936 0.5,2.8125 0.5,0.70312 1.21875,0.70312 0.734376,0 1.21875,-0.70312 0.5,-0.70314 0.5,-2.8125 0,-2.125 -0.5,-2.8125 Q 36.58125,296.7 35.83125,296.7 q -0.71875,0 -1.15625,0.6094 -0.546876,0.78124 -0.546876,2.90624 z"
           fill-rule="nonzero"
           id="path511" />
        <path
           fill="#000000"
           d="m 23.05,246.67397 q 0,-1.53125 0.3125,-2.45313 0.3125,-0.9375 0.921874,-1.4375 0.625,-0.5 1.5625,-0.5 0.6875,0 1.203126,0.28125 0.53125,0.28125 0.875,0.8125 0.34375,0.51563 0.53125,1.26563 0.1875,0.75 0.1875,2.03125 0,1.51562 -0.3125,2.4375 -0.296876,0.92187 -0.921876,1.4375 -0.609374,0.5 -1.5625,0.5 -1.234374,0 -1.953124,-0.89063 Q 23.05,249.09584 23.05,246.67397 Z m 1.078124,0 q 0,2.10937 0.5,2.8125 0.5,0.70312 1.21875,0.70312 0.734376,0 1.21875,-0.70312 0.5,-0.70313 0.5,-2.8125 0,-2.125 -0.5,-2.8125 -0.484374,-0.70313 -1.234374,-0.70313 -0.71875,0 -1.15625,0.60938 -0.546876,0.78125 -0.546876,2.90625 z m 6.515626,4.23437 v -1.20312 h 1.203124 v 1.20312 z m 6.375,0 h -1.046876 v -6.71875 q -0.390624,0.35938 -1.015624,0.73438 -0.609376,0.35937 -1.09375,0.53125 v -1.01563 q 0.875,-0.42187 1.53125,-1 0.671874,-0.59375 0.953124,-1.15625 h 0.671876 z"
           fill-rule="nonzero"
           id="path513" />
        <path
           fill="#000000"
           d="m 23.05,193.1323 q 0,-1.53126 0.3125,-2.45313 0.3125,-0.9375 0.921874,-1.4375 0.625,-0.5 1.5625,-0.5 0.6875,0 1.203126,0.28125 0.53125,0.28125 0.875,0.8125 0.34375,0.51562 0.53125,1.26562 0.1875,0.75 0.1875,2.03126 0,1.51562 -0.3125,2.4375 -0.296876,0.92187 -0.921876,1.4375 -0.609374,0.5 -1.5625,0.5 -1.234374,0 -1.953124,-0.89063 Q 23.05,195.55417 23.05,193.1323 Z m 1.078124,0 q 0,2.10937 0.5,2.8125 0.5,0.70312 1.21875,0.70312 0.734376,0 1.21875,-0.70312 0.5,-0.70313 0.5,-2.8125 0,-2.125 -0.5,-2.8125 -0.484374,-0.70313 -1.234374,-0.70313 -0.71875,0 -1.15625,0.60937 -0.546876,0.78126 -0.546876,2.90626 z m 6.515626,4.23437 v -1.20313 h 1.203124 v 1.20313 z m 7.953124,-1.01563 v 1.01563 h -5.6875 q 0,-0.375 0.125,-0.73437 0.21875,-0.57813 0.6875,-1.14063 0.484376,-0.5625 1.390626,-1.29687 1.40625,-1.15626 1.890624,-1.82813 0.5,-0.67187 0.5,-1.26563 0,-0.625 -0.453124,-1.04687 -0.453126,-0.4375 -1.171876,-0.4375 -0.765624,0 -1.21875,0.45313 -0.453124,0.45312 -0.46875,1.26562 L 33.1125,191.22604 q 0.109374,-1.21874 0.828124,-1.84374 0.734376,-0.64063 1.96875,-0.64063 1.234376,0 1.953126,0.6875 0.71875,0.6875 0.71875,1.70313 0,0.51562 -0.21875,1.01562 -0.203126,0.48438 -0.703126,1.04688 -0.484374,0.54687 -1.609374,1.5 -0.953126,0.79687 -1.234376,1.09374 -0.265624,0.28126 -0.4375,0.5625 z"
           fill-rule="nonzero"
           id="path515" />
        <path
           fill="#000000"
           d="m 23.05,139.59062 q 0,-1.53125 0.3125,-2.45312 0.3125,-0.9375 0.921874,-1.4375 0.625,-0.5 1.5625,-0.5 0.6875,0 1.203126,0.28125 0.53125,0.28125 0.875,0.8125 0.34375,0.51562 0.53125,1.26562 0.1875,0.75 0.1875,2.03125 0,1.51563 -0.3125,2.4375 -0.296876,0.92188 -0.921876,1.4375 -0.609374,0.5 -1.5625,0.5 -1.234374,0 -1.953124,-0.89062 Q 23.05,142.0125 23.05,139.59062 Z m 1.078124,0 q 0,2.10938 0.5,2.8125 0.5,0.70313 1.21875,0.70313 0.734376,0 1.21875,-0.70313 0.5,-0.70312 0.5,-2.8125 0,-2.125 -0.5,-2.8125 -0.484374,-0.70312 -1.234374,-0.70312 -0.71875,0 -1.15625,0.60937 -0.546876,0.78125 -0.546876,2.90625 z m 6.515626,4.23438 v -1.20313 h 1.203124 v 1.20313 z m 2.40625,-2.26563 1.0625,-0.14062 q 0.171874,0.89062 0.609374,1.29687 0.4375,0.39063 1.0625,0.39063 0.75,0 1.265626,-0.51563 0.515624,-0.51562 0.515624,-1.28125 0,-0.71875 -0.484374,-1.1875 -0.46875,-0.48437 -1.203126,-0.48437 -0.296874,0 -0.75,0.125 l 0.125,-0.9375 q 0.109376,0.0156 0.171876,0.0156 0.671874,0 1.203124,-0.34375 0.546876,-0.35937 0.546876,-1.09375 0,-0.57812 -0.390626,-0.95312 -0.390624,-0.39063 -1.015624,-0.39063 -0.609376,0 -1.03125,0.39063 -0.40625,0.39062 -0.515626,1.15625 l -1.0625,-0.1875 q 0.1875,-1.04688 0.875,-1.625 0.6875,-0.59375 1.703126,-0.59375 0.703124,0 1.296874,0.3125 0.59375,0.29687 0.90625,0.8125 0.3125,0.51562 0.3125,1.10937 0,0.54688 -0.296874,1.01563 -0.296876,0.45312 -0.875,0.71875 0.75,0.17187 1.171874,0.73437 0.421876,0.54688 0.421876,1.39063 0,1.125 -0.828126,1.90625 -0.8125,0.78125 -2.0625,0.78125 -1.125,0 -1.875,-0.67188 -0.75,-0.6875 -0.859374,-1.75 z"
           fill-rule="nonzero"
           id="path517" />
        <path
           fill="#000000"
           d="m 23.05,86.04896 q 0,-1.53125 0.3125,-2.45313 0.3125,-0.9375 0.921874,-1.4375 0.625,-0.5 1.5625,-0.5 0.6875,0 1.203126,0.28125 0.53125,0.28125 0.875,0.8125 0.34375,0.51563 0.53125,1.26563 0.1875,0.75 0.1875,2.03125 0,1.51562 -0.3125,2.4375 -0.296876,0.92187 -0.921876,1.4375 -0.609374,0.5 -1.5625,0.5 -1.234374,0 -1.953124,-0.89063 Q 23.05,88.47083 23.05,86.04896 Z m 1.078124,0 q 0,2.10937 0.5,2.8125 0.5,0.70312 1.21875,0.70312 0.734376,0 1.21875,-0.70312 0.5,-0.70313 0.5,-2.8125 0,-2.125 -0.5,-2.8125 -0.484374,-0.70313 -1.234374,-0.70313 -0.71875,0 -1.15625,0.60938 -0.546876,0.78125 -0.546876,2.90625 z m 6.515626,4.23437 v -1.20312 h 1.203124 v 1.20312 z m 5.78125,0 v -2.0625 h -3.71875 v -0.96875 l 3.921874,-5.5625 H 37.4875 v 5.5625 h 1.15625 v 0.96875 H 37.4875 v 2.0625 z m 0,-3.03125 v -3.85937 l -2.6875,3.85937 z"
           fill-rule="nonzero"
           id="path519" />
        <text
           xml:space="preserve"
           style="font-size:21.3333px;line-height:1.25;font-family:sans-serif;word-spacing:0px;fill:#333333"
           x="-307.84125"
           y="10.87988"
           id="text624"
           transform="rotate(-90)"><tspan
             sodipodi:role="line"
             id="tspan622"
             x="-307.84125"
             y="10.87988">Correlation coefficient</tspan></text>
        <text
           xml:space="preserve"
           style="font-size:21.3333px;line-height:1.25;font-family:sans-serif;word-spacing:0px;fill:#333333"
           x="-373.21979"
           y="73.882339"
           id="text153"><tspan
             sodipodi:role="line"
             id="tspan151"
             x="-373.21979"
             y="73.882339">(dB)</tspan></text>
      </g>
      <text
         xml:space="preserve"
         style="font-size:26.6667px;line-height:1.25;font-family:sans-serif;word-spacing:0px;fill:#4d4d4d;stroke:none;stroke-linecap:square;stroke-miterlimit:10"
         x="375.18137"
         y="313.25034"
         id="text196-7"
         inkscape:transform-center-x="18.970179"
         inkscape:transform-center-y="-2.9595585"><tspan
           sodipodi:role="line"
           id="tspan194-0"
           x="375.18137"
           y="313.25034">Raw</tspan></text>
      <text
         xml:space="preserve"
         style="font-size:26.6667px;line-height:1.25;font-family:sans-serif;word-spacing:0px;fill:#4d4d4d;stroke:none;stroke-linecap:square;stroke-miterlimit:10"
         x="632.57233"
         y="315.46463"
         id="text200-9"><tspan
           sodipodi:role="line"
           id="tspan198-3"
           x="632.57233"
           y="315.46463">DNF</tspan></text>
    </g>
    <text
       xml:space="preserve"
       style="font-size:5.64444px;line-height:1.25;font-family:sans-serif;word-spacing:0px;fill:#333333;stroke-width:0.264583"
       x="-119.52316"
       y="0.18127503"
       id="text204"
       transform="rotate(-90)"><tspan
         sodipodi:role="line"
         id="tspan202"
         x="-119.52316"
         y="0.18127503"
         style="font-size:5.64444px;fill:#333333;stroke-width:0.264583">Signal to Noise Ratio (SNR)</tspan></text>
  </g>
</svg>
