<?xml version="1.0" encoding="UTF-8" standalone="no"?>
<svg
   xmlns:dc="http://purl.org/dc/elements/1.1/"
   xmlns:cc="http://creativecommons.org/ns#"
   xmlns:rdf="http://www.w3.org/1999/02/22-rdf-syntax-ns#"
   xmlns:svg="http://www.w3.org/2000/svg"
   xmlns="http://www.w3.org/2000/svg"
   xmlns:sodipodi="http://sodipodi.sourceforge.net/DTD/sodipodi-0.dtd"
   xmlns:inkscape="http://www.inkscape.org/namespaces/inkscape"
   width="210mm"
   height="297mm"
   viewBox="0 0 210 297"
   version="1.1"
   id="svg680"
   inkscape:export-filename="/home/natalia/disertation/datarecordings/plots/SNRLMS.png"
   inkscape:export-xdpi="96"
   inkscape:export-ydpi="96"
   inkscape:version="1.0.2 (1.0.2+r75+1)"
   sodipodi:docname="SNRLMS.svg">
  <defs
     id="defs674" />
  <sodipodi:namedview
     id="base"
     pagecolor="#ffffff"
     bordercolor="#666666"
     borderopacity="1.0"
     inkscape:pageopacity="0.0"
     inkscape:pageshadow="2"
     inkscape:zoom="2.1299299"
     inkscape:cx="-35.707469"
     inkscape:cy="654.49866"
     inkscape:document-units="mm"
     inkscape:current-layer="g1494"
     inkscape:document-rotation="0"
     showgrid="false"
     inkscape:window-width="1920"
     inkscape:window-height="1043"
     inkscape:window-x="1366"
     inkscape:window-y="0"
     inkscape:window-maximized="1" />
  <metadata
     id="metadata677">
    <rdf:RDF>
      <cc:Work
         rdf:about="">
        <dc:format>image/svg+xml</dc:format>
        <dc:type
           rdf:resource="http://purl.org/dc/dcmitype/StillImage" />
        <dc:title></dc:title>
      </cc:Work>
    </rdf:RDF>
  </metadata>
  <g
     inkscape:label="Layer 1"
     inkscape:groupmode="layer"
     id="layer1">
    <g
       style="fill:none;stroke:none;stroke-linecap:square;stroke-miterlimit:10"
       id="g1259"
       transform="matrix(0.26458333,0,0,0.26458333,75.523804,124.03796)">
      <path
         stroke="#333333"
         stroke-width="0.801128"
         stroke-linecap="butt"
         d="M 51.5,300.5 H 391.65748"
         fill-rule="nonzero"
         id="path1019" />
      <path
         stroke="#cccccc"
         stroke-width="0.801128"
         stroke-linecap="butt"
         d="M 51.5,246.5 H 391.65748"
         fill-rule="nonzero"
         id="path1021" />
      <path
         stroke="#cccccc"
         stroke-width="0.801128"
         stroke-linecap="butt"
         d="M 51.5,193.5 H 391.65748"
         fill-rule="nonzero"
         id="path1023" />
      <path
         stroke="#cccccc"
         stroke-width="0.801128"
         stroke-linecap="butt"
         d="M 51.5,139.5 H 391.65748"
         fill-rule="nonzero"
         id="path1025" />
      <path
         stroke="#cccccc"
         stroke-width="0.801128"
         stroke-linecap="butt"
         d="M 51.5,86.5 H 391.65748"
         fill-rule="nonzero"
         id="path1027" />
      <path
         stroke="#e6e6e6"
         stroke-width="0.801128"
         stroke-linecap="butt"
         d="M 51.5,282.5 H 391.65748"
         fill-rule="nonzero"
         id="path1029" />
      <path
         stroke="#e6e6e6"
         stroke-width="0.801128"
         stroke-linecap="butt"
         d="M 51.5,264.5 H 391.65748"
         fill-rule="nonzero"
         id="path1031" />
      <path
         stroke="#e6e6e6"
         stroke-width="0.801128"
         stroke-linecap="butt"
         d="M 51.5,229.5 H 391.65748"
         fill-rule="nonzero"
         id="path1033" />
      <path
         stroke="#e6e6e6"
         stroke-width="0.801128"
         stroke-linecap="butt"
         d="M 51.5,211.5 H 391.65748"
         fill-rule="nonzero"
         id="path1035" />
      <path
         stroke="#e6e6e6"
         stroke-width="0.801128"
         stroke-linecap="butt"
         d="M 51.5,175.5 H 391.65748"
         fill-rule="nonzero"
         id="path1037" />
      <path
         stroke="#e6e6e6"
         stroke-width="0.801128"
         stroke-linecap="butt"
         d="M 51.5,157.5 H 391.65748"
         fill-rule="nonzero"
         id="path1039" />
      <path
         stroke="#e6e6e6"
         stroke-width="0.801128"
         stroke-linecap="butt"
         d="M 51.5,121.5 H 391.65748"
         fill-rule="nonzero"
         id="path1041" />
      <path
         stroke="#e6e6e6"
         stroke-width="0.801128"
         stroke-linecap="butt"
         d="M 51.5,104.5 H 391.65748"
         fill-rule="nonzero"
         id="path1043" />
      <path
         stroke="#eeeeee"
         stroke-width="1"
         stroke-linecap="butt"
         d="m 94.451679,155.95 v 16"
         fill-rule="nonzero"
         id="path1045" />
      <path
         stroke="#eeeeee"
         stroke-width="1"
         stroke-linecap="butt"
         d="m 359.40172,161.30417 v 16"
         fill-rule="nonzero"
         id="path1047" />
      <path
         stroke="#eeeeee"
         stroke-width="1"
         stroke-linecap="butt"
         d="m 94.451679,214.84584 v 16"
         fill-rule="nonzero"
         id="path1049" />
      <path
         stroke="#eeeeee"
         stroke-width="1"
         stroke-linecap="butt"
         d="m 359.40172,225.55417 v 16"
         fill-rule="nonzero"
         id="path1051" />
      <path
         stroke="#eeeeee"
         stroke-width="1"
         stroke-linecap="butt"
         d="m 94.451679,220.2 v 16"
         fill-rule="nonzero"
         id="path1053" />
      <path
         stroke="#eeeeee"
         stroke-width="1"
         stroke-linecap="butt"
         d="m 359.40172,198.78334 v 16"
         fill-rule="nonzero"
         id="path1055" />
      <path
         stroke="#eeeeee"
         stroke-width="1"
         stroke-linecap="butt"
         d="m 94.451679,107.7625 v 16"
         fill-rule="nonzero"
         id="path1057" />
      <path
         stroke="#eeeeee"
         stroke-width="1"
         stroke-linecap="butt"
         d="m 359.40172,172.0125 v 16"
         fill-rule="nonzero"
         id="path1059" />
      <path
         stroke="#000000"
         stroke-width="1"
         stroke-linecap="butt"
         d="M 51.5,300.5 V 86.5"
         fill-rule="nonzero"
         id="path1061" />
      <path
         stroke="#4285f4"
         stroke-width="0.91134"
         stroke-linecap="butt"
         stroke-opacity="0.4"
         clip-path="url(#id_0)"
         d="m 94.451679,171.95 264.950041,5.35417"
         fill-rule="nonzero"
         id="path1066" />
      <path
         stroke="#ea4335"
         stroke-width="0.91134"
         stroke-linecap="butt"
         stroke-opacity="0.4"
         clip-path="url(#id_0)"
         d="M 94.451679,230.84584 359.40172,241.55417"
         fill-rule="nonzero"
         id="path1068" />
      <path
         stroke="#fbbc04"
         stroke-width="0.858289"
         stroke-linecap="butt"
         stroke-opacity="0.4"
         clip-path="url(#id_0)"
         d="M 94.451679,236.2 358.40172,217.1323"
         fill-rule="nonzero"
         id="path1070" />
      <path
         stroke="#34a853"
         stroke-width="0.91134"
         stroke-linecap="butt"
         stroke-opacity="0.4"
         clip-path="url(#id_0)"
         d="m 94.451679,123.7625 264.950041,64.25"
         fill-rule="nonzero"
         id="path1072" />
      <path
         fill="#4285f4"
         clip-path="url(#id_0)"
         d="m 98.951712,171.95 c 0,2.48529 -2.014737,4.5 -4.500033,4.5 -2.485289,0 -4.500009,-2.01471 -4.500009,-4.5 0,-2.48528 2.01472,-4.5 4.500009,-4.5 2.485296,0 4.500033,2.01472 4.500033,4.5 z"
         fill-rule="nonzero"
         id="path1074" />
      <path
         fill="#4285f4"
         clip-path="url(#id_0)"
         d="m 363.90172,177.30417 c 0,2.48527 -2.0147,4.5 -4.5,4.5 -2.48528,0 -4.5,-2.01473 -4.5,-4.5 0,-2.48529 2.01472,-4.5 4.5,-4.5 2.4853,0 4.5,2.01471 4.5,4.5 z"
         fill-rule="nonzero"
         id="path1076" />
      <path
         fill="#ea4335"
         clip-path="url(#id_0)"
         d="m 98.951712,230.84584 c 0,2.48528 -2.014737,4.5 -4.500033,4.5 -2.485289,0 -4.500009,-2.01472 -4.500009,-4.5 0,-2.48529 2.01472,-4.5 4.500009,-4.5 2.485296,0 4.500033,2.01471 4.500033,4.5 z"
         fill-rule="nonzero"
         id="path1078" />
      <path
         fill="#ea4335"
         clip-path="url(#id_0)"
         d="m 363.90172,241.55417 c 0,2.48527 -2.0147,4.5 -4.5,4.5 -2.48528,0 -4.5,-2.01473 -4.5,-4.5 0,-2.48529 2.01472,-4.5 4.5,-4.5 2.4853,0 4.5,2.01471 4.5,4.5 z"
         fill-rule="nonzero"
         id="path1080" />
      <path
         fill="#fbbc04"
         clip-path="url(#id_0)"
         d="m 98.951712,236.2 c 0,2.48529 -2.014737,4.5 -4.500033,4.5 -2.485289,0 -4.500009,-2.01471 -4.500009,-4.5 0,-2.48528 2.01472,-4.5 4.500009,-4.5 2.485296,0 4.500033,2.01472 4.500033,4.5 z"
         fill-rule="nonzero"
         id="path1082" />
      <path
         fill="#fbbc04"
         clip-path="url(#id_0)"
         d="m 363.90172,214.78334 c 0,2.48528 -2.0147,4.5 -4.5,4.5 -2.48528,0 -4.5,-2.01472 -4.5,-4.5 0,-2.48529 2.01472,-4.5 4.5,-4.5 2.4853,0 4.5,2.01471 4.5,4.5 z"
         fill-rule="nonzero"
         id="path1084" />
      <path
         fill="#34a853"
         clip-path="url(#id_0)"
         d="m 98.951712,123.7625 c 0,2.48528 -2.014737,4.5 -4.500033,4.5 -2.485289,0 -4.500009,-2.01472 -4.500009,-4.5 0,-2.48528 2.01472,-4.5 4.500009,-4.5 2.485296,0 4.500033,2.01472 4.500033,4.5 z"
         fill-rule="nonzero"
         id="path1086" />
      <path
         fill="#34a853"
         clip-path="url(#id_0)"
         d="m 363.90172,188.0125 c 0,2.48529 -2.0147,4.5 -4.5,4.5 -2.48528,0 -4.5,-2.01471 -4.5,-4.5 0,-2.48528 2.01472,-4.5 4.5,-4.5 2.4853,0 4.5,2.01472 4.5,4.5 z"
         fill-rule="nonzero"
         id="path1088" />
      <path
         stroke="#000000"
         stroke-width="1"
         stroke-linecap="butt"
         d="m 48.5,282.5 h 6"
         fill-rule="nonzero"
         id="path1090" />
      <path
         stroke="#000000"
         stroke-width="1"
         stroke-linecap="butt"
         d="m 48.5,264.5 h 6"
         fill-rule="nonzero"
         id="path1092" />
      <path
         stroke="#000000"
         stroke-width="1"
         stroke-linecap="butt"
         d="m 48.5,229.5 h 6"
         fill-rule="nonzero"
         id="path1094" />
      <path
         stroke="#000000"
         stroke-width="1"
         stroke-linecap="butt"
         d="m 48.5,211.5 h 6"
         fill-rule="nonzero"
         id="path1096" />
      <path
         stroke="#000000"
         stroke-width="1"
         stroke-linecap="butt"
         d="m 48.5,175.5 h 6"
         fill-rule="nonzero"
         id="path1098" />
      <path
         stroke="#000000"
         stroke-width="1"
         stroke-linecap="butt"
         d="m 48.5,157.5 h 6"
         fill-rule="nonzero"
         id="path1100" />
      <path
         stroke="#000000"
         stroke-width="1"
         stroke-linecap="butt"
         d="m 48.5,121.5 h 6"
         fill-rule="nonzero"
         id="path1102" />
      <path
         stroke="#000000"
         stroke-width="1"
         stroke-linecap="butt"
         d="m 48.5,104.5 h 6"
         fill-rule="nonzero"
         id="path1104" />
      <path
         stroke="#000000"
         stroke-width="1"
         stroke-linecap="butt"
         d="m 45.5,300.5 h 12"
         fill-rule="nonzero"
         id="path1106" />
      <path
         stroke="#000000"
         stroke-width="1"
         stroke-linecap="butt"
         d="m 45.5,246.5 h 12"
         fill-rule="nonzero"
         id="path1108" />
      <path
         stroke="#000000"
         stroke-width="1"
         stroke-linecap="butt"
         d="m 45.5,193.5 h 12"
         fill-rule="nonzero"
         id="path1110" />
      <path
         stroke="#000000"
         stroke-width="1"
         stroke-linecap="butt"
         d="m 45.5,139.5 h 12"
         fill-rule="nonzero"
         id="path1112" />
      <path
         stroke="#000000"
         stroke-width="1"
         stroke-linecap="butt"
         d="m 45.5,86.5 h 12"
         fill-rule="nonzero"
         id="path1114" />
      <path
         fill="#4285f4"
         d="m 65.432154,170.07768 q 0,1.90625 -0.65626,2.84375 -0.64062,0.92188 -2.031239,0.92188 -1.359379,0 -2.015629,-0.90625 -0.65625,-0.90625 -0.6875,-2.71875 v -1.4375 q 0,-1.89063 0.64063,-2.79688 0.65624,-0.92187 2.046869,-0.92187 1.374999,0 2.031249,0.89062 0.65625,0.875 0.67188,2.71875 z m -1.09376,-1.48437 q 0,-1.375 -0.390619,-2 -0.375,-0.64063 -1.21875,-0.64063 -0.82813,0 -1.21875,0.64063 -0.374999,0.625 -0.374999,1.92187 v 1.73438 q 0,1.375 0.390619,2.04687 0.40626,0.65625 1.21876,0.65625 0.79687,0 1.1875,-0.625 0.390619,-0.625 0.406239,-1.95312 z m 2.874999,4.5625 q 0,-0.28125 0.15626,-0.46875 0.17187,-0.1875 0.5,-0.1875 0.34374,0 0.51562,0.1875 0.17188,0.1875 0.17188,0.46875 0,0.26562 -0.17188,0.45312 -0.17188,0.17188 -0.51562,0.17188 -0.32813,0 -0.5,-0.17188 -0.15626,-0.1875 -0.15626,-0.45312 z m 8.453127,0.5625 h -5.593748 v -0.78125 l 2.953119,-3.28125 q 0.65626,-0.75 0.90626,-1.20313 0.25,-0.46875 0.25,-0.96875 0,-0.67187 -0.40626,-1.09375 -0.39062,-0.4375 -1.07812,-0.4375 -0.796879,0 -1.249999,0.46875 -0.45312,0.45313 -0.45312,1.28125 h -1.07813 q 0,-1.1875 0.75,-1.90625 0.76563,-0.73437 2.031249,-0.73437 1.20312,0 1.89062,0.625 0.687499,0.625 0.687499,1.67187 0,1.25 -1.609369,3 l -2.281249,2.46875 h 4.281248 z m 5.984374,-2.85938 h 1.1875 v 0.875 h -1.1875 v 1.98438 h -1.078122 v -1.98438 H 76.68215 v -0.64062 l 3.812502,-5.90625 h 1.156242 z m -3.734372,0 h 2.65625 v -4.1875 l -0.14062,0.23438 z"
         fill-rule="nonzero"
         id="path1118" />
      <path
         fill="#4285f4"
         d="m 376.51463,171.7876 q 0,1.90626 -0.65624,2.84376 -0.64063,0.92187 -2.03126,0.92187 -1.35937,0 -2.01562,-0.90625 -0.65625,-0.90625 -0.6875,-2.71875 v -1.4375 q 0,-1.89063 0.64062,-2.79687 0.65626,-0.92188 2.04688,-0.92188 1.375,0 2.03125,0.89062 0.65625,0.875 0.67187,2.71876 z m -1.09374,-1.48437 q 0,-1.375 -0.39063,-2 -0.375,-0.64063 -1.21875,-0.64063 -0.82812,0 -1.21875,0.64063 -0.375,0.625 -0.375,1.92187 v 1.73438 q 0,1.375 0.39063,2.04688 0.40624,0.65624 1.21874,0.65624 0.79688,0 1.1875,-0.625 0.39063,-0.625 0.40626,-1.95312 z m 2.875,4.5625 q 0,-0.28125 0.15624,-0.46875 0.17188,-0.1875 0.5,-0.1875 0.34376,0 0.51563,0.1875 0.17187,0.1875 0.17187,0.46875 0,0.26563 -0.17187,0.45313 -0.17187,0.17187 -0.51563,0.17187 -0.32812,0 -0.5,-0.17187 -0.15624,-0.1875 -0.15624,-0.45313 z m 8.45312,0.5625 h -5.59375 v -0.78125 l 2.95313,-3.28125 q 0.65624,-0.75 0.90624,-1.20313 0.25,-0.46874 0.25,-0.96874 0,-0.67188 -0.40624,-1.09376 -0.39063,-0.4375 -1.07813,-0.4375 -0.79687,0 -1.25,0.46876 -0.45313,0.45312 -0.45313,1.28124 h -1.07812 q 0,-1.1875 0.75,-1.90624 0.76562,-0.73438 2.03125,-0.73438 1.20313,0 1.89063,0.625 0.6875,0.625 0.6875,1.67188 0,1.25 -1.60938,3 l -2.28125,2.46874 h 4.28125 z m 2.98438,-4.79687 h 0.8125 q 0.78124,-0.0156 1.21874,-0.40626 0.4375,-0.39062 0.4375,-1.0625 0,-1.5 -1.5,-1.5 -0.70312,0 -1.125,0.40626 -0.40624,0.40624 -0.40624,1.0625 h -1.09376 q 0,-1.01563 0.73438,-1.6875 0.75,-0.67188 1.89062,-0.67188 1.20313,0 1.89063,0.64062 0.6875,0.64063 0.6875,1.78126 0,0.5625 -0.35937,1.07812 -0.35938,0.51562 -0.98438,0.78125 0.70312,0.21875 1.07812,0.73437 0.39063,0.51563 0.39063,1.26563 0,1.14063 -0.75,1.82813 -0.75,0.67187 -1.95313,0.67187 -1.1875,0 -1.95312,-0.65625 -0.75,-0.65625 -0.75,-1.71875 h 1.09375 q 0,0.67187 0.4375,1.07813 0.4375,0.40624 1.1875,0.40624 0.78125,0 1.1875,-0.40624 0.42187,-0.42188 0.42187,-1.1875 0,-0.73438 -0.45312,-1.125 -0.45312,-0.40626 -1.32812,-0.42188 h -0.8125 z"
         fill-rule="nonzero"
         id="path1122" />
      <path
         fill="#ea4335"
         d="m 61.868845,217.64653 q 0,1.90625 -0.656259,2.84375 -0.64062,0.92187 -2.03124,0.92187 -1.359377,0 -2.015627,-0.90625 -0.656247,-0.90625 -0.687497,-2.71875 v -1.4375 q 0,-1.89062 0.640627,-2.79687 0.65624,-0.92188 2.046867,-0.92188 1.375,0 2.03125,0.89063 0.656249,0.875 0.671879,2.71875 z m -1.093759,-1.48438 q 0,-1.375 -0.39062,-2 -0.375,-0.64062 -1.21875,-0.64062 -0.828127,0 -1.218747,0.64062 -0.375,0.625 -0.375,1.92188 v 1.73437 q 0,1.375 0.39062,2.04688 0.40626,0.65625 1.218757,0.65625 0.79687,0 1.1875,-0.625 0.39062,-0.625 0.40624,-1.95313 z m 2.874999,4.5625 q 0,-0.28125 0.15626,-0.46875 0.17187,-0.1875 0.499999,-0.1875 0.34374,0 0.51562,0.1875 0.17188,0.1875 0.17188,0.46875 0,0.26563 -0.17188,0.45313 -0.17188,0.17187 -0.51562,0.17187 -0.328129,0 -0.499999,-0.17187 -0.15626,-0.1875 -0.15626,-0.45313 z m 6.421877,0.5625 h -1.078119 v -7.21875 l -2.1875,0.79688 v -0.98438 l 3.109369,-1.17187 h 0.15625 z m 5.015618,-4.79687 h 0.8125 q 0.78126,-0.0156 1.21876,-0.40625 0.4375,-0.39063 0.4375,-1.0625 0,-1.5 -1.5,-1.5 -0.70313,0 -1.125,0.40625 -0.406259,0.40625 -0.406259,1.0625 h -1.09374 q 0,-1.01563 0.73437,-1.6875 0.749999,-0.67188 1.890629,-0.67188 1.20312,0 1.890622,0.64063 0.6875,0.64062 0.6875,1.78125 0,0.5625 -0.35938,1.07812 -0.35937,0.51563 -0.984372,0.78125 0.703132,0.21875 1.078132,0.73438 0.39062,0.51562 0.39062,1.26562 0,1.14063 -0.75,1.82813 -0.750002,0.67187 -1.953122,0.67187 -1.1875,0 -1.953129,-0.65625 -0.75,-0.65625 -0.75,-1.71875 h 1.09375 q 0,0.67188 0.437499,1.07813 0.4375,0.40625 1.1875,0.40625 0.78125,0 1.1875,-0.40625 0.42188,-0.42188 0.42188,-1.1875 0,-0.73438 -0.45313,-1.125 -0.45313,-0.40625 -1.32813,-0.42188 h -0.8125 z"
         fill-rule="nonzero"
         id="path1126" />
      <path
         fill="#ea4335"
         d="m 374.88422,238.76522 q 0,1.90626 -0.65624,2.84376 -0.64063,0.92187 -2.03126,0.92187 -1.35937,0 -2.01562,-0.90625 -0.65625,-0.90625 -0.6875,-2.71875 v -1.4375 q 0,-1.89063 0.64062,-2.79687 0.65626,-0.92188 2.04688,-0.92188 1.375,0 2.03125,0.89062 0.65625,0.875 0.67187,2.71876 z m -1.09374,-1.48437 q 0,-1.375 -0.39063,-2 -0.375,-0.64063 -1.21875,-0.64063 -0.82812,0 -1.21875,0.64063 -0.375,0.625 -0.375,1.92187 v 1.73438 q 0,1.375 0.39063,2.04688 0.40624,0.65624 1.21874,0.65624 0.79688,0 1.1875,-0.625 0.39063,-0.625 0.40626,-1.95312 z m 2.875,4.5625 q 0,-0.28125 0.15624,-0.46875 0.17188,-0.1875 0.5,-0.1875 0.34376,0 0.51563,0.1875 0.17187,0.1875 0.17187,0.46875 0,0.26563 -0.17187,0.45313 -0.17187,0.17187 -0.51563,0.17187 -0.32812,0 -0.5,-0.17187 -0.15624,-0.1875 -0.15624,-0.45313 z m 6.42187,0.5625 h -1.07813 v -7.21875 l -2.1875,0.79688 v -0.98438 l 3.10938,-1.17188 h 0.15625 z m 7,0 h -1.07813 v -7.21875 l -2.1875,0.79688 v -0.98438 l 3.10938,-1.17188 h 0.15625 z"
         fill-rule="nonzero"
         id="path1130" />
      <path
         fill="#fbbc04"
         d="m 64.838894,236.20303 q 0,1.90625 -0.65626,2.84375 -0.640619,0.92188 -2.031239,0.92188 -1.359379,0 -2.015629,-0.90625 -0.65625,-0.90625 -0.6875,-2.71875 v -1.4375 q 0,-1.89063 0.64063,-2.79688 0.65624,-0.92187 2.046869,-0.92187 1.375,0 2.031249,0.89062 0.65625,0.875 0.67188,2.71875 z m -1.093759,-1.48437 q 0,-1.375 -0.39062,-2 -0.375,-0.64063 -1.21875,-0.64063 -0.828129,0 -1.218749,0.64063 -0.375,0.625 -0.375,1.92187 v 1.73438 q 0,1.375 0.39062,2.04687 0.40626,0.65625 1.218759,0.65625 0.79687,0 1.1875,-0.625 0.39062,-0.625 0.40624,-1.95312 z m 2.874999,4.5625 q 0,-0.28125 0.156259,-0.46875 0.17187,-0.1875 0.5,-0.1875 0.34374,0 0.51562,0.1875 0.17188,0.1875 0.17188,0.46875 0,0.26562 -0.17188,0.45312 -0.17188,0.17188 -0.51562,0.17188 -0.32813,0 -0.5,-0.17188 -0.156259,-0.1875 -0.156259,-0.45312 z m 6.421877,0.5625 h -1.078119 v -7.21875 l -2.1875,0.79687 v -0.98437 l 3.109369,-1.17188 h 0.15625 z m 9.031253,0 H 76.47951 v -0.78125 l 2.953122,-3.28125 q 0.65626,-0.75 0.90626,-1.20313 0.25,-0.46875 0.25,-0.96875 0,-0.67187 -0.40626,-1.09375 -0.39062,-0.4375 -1.07812,-0.4375 -0.79688,0 -1.25,0.46875 -0.453122,0.45313 -0.453122,1.28125 h -1.07813 q 0,-1.1875 0.75,-1.90625 0.765632,-0.73437 2.031252,-0.73437 1.20312,0 1.890622,0.625 0.6875,0.625 0.6875,1.67187 0,1.25 -1.609372,3 l -2.28125,2.46875 h 4.281252 z"
         fill-rule="nonzero"
         id="path1134" />
      <path
         fill="#fbbc04"
         d="m 374.87405,215.93564 q 0,1.90625 -0.65624,2.84375 -0.64063,0.92187 -2.03126,0.92187 -1.35937,0 -2.01562,-0.90625 -0.65625,-0.90625 -0.6875,-2.71875 v -1.4375 q 0,-1.89062 0.64062,-2.79687 0.65626,-0.92188 2.04688,-0.92188 1.375,0 2.03125,0.89063 0.65625,0.875 0.67187,2.71875 z m -1.09374,-1.48438 q 0,-1.375 -0.39063,-2 -0.375,-0.64062 -1.21875,-0.64062 -0.82812,0 -1.21875,0.64062 -0.375,0.625 -0.375,1.92188 v 1.73437 q 0,1.375 0.39063,2.04688 0.40624,0.65625 1.21874,0.65625 0.79688,0 1.1875,-0.625 0.39063,-0.625 0.40626,-1.95313 z m 2.875,4.5625 q 0,-0.28125 0.15624,-0.46875 0.17188,-0.1875 0.5,-0.1875 0.34376,0 0.51563,0.1875 0.17187,0.1875 0.17187,0.46875 0,0.26563 -0.17187,0.45313 -0.17187,0.17187 -0.51563,0.17187 -0.32812,0 -0.5,-0.17187 -0.15624,-0.1875 -0.15624,-0.45313 z m 6.42187,0.5625 h -1.07813 v -7.21875 l -2.1875,0.79688 v -0.98438 l 3.10938,-1.17187 h 0.15625 z m 7.70313,-8.53125 v 0.90625 h -0.20313 q -1.26563,0.0312 -2.01563,0.76563 -0.75,0.71875 -0.875,2.03125 0.6875,-0.76563 1.84376,-0.76563 1.10937,0 1.78124,0.78125 0.67188,0.78125 0.67188,2.03125 0,1.3125 -0.71875,2.10938 -0.71875,0.79687 -1.9375,0.79687 -1.21875,0 -1.98437,-0.9375 -0.75,-0.95312 -0.75,-2.4375 v -0.40625 q 0,-2.35937 1,-3.60937 1,-1.25 2.98437,-1.26563 z m -1.42188,3.84375 q -0.5625,0 -1.03125,0.32813 -0.46875,0.32812 -0.65625,0.84375 v 0.39062 q 0,1.0625 0.46875,1.70313 0.48437,0.64062 1.1875,0.64062 0.73437,0 1.15625,-0.53125 0.42188,-0.54687 0.42188,-1.42187 0,-0.875 -0.42188,-1.40625 -0.42188,-0.54688 -1.125,-0.54688 z"
         fill-rule="nonzero"
         id="path1138" />
      <path
         fill="#34a853"
         d="m 67.207163,124.13763 q 0,1.90625 -0.656259,2.84375 -0.64062,0.92188 -2.03124,0.92188 -1.359379,0 -2.015629,-0.90625 -0.65625,-0.90625 -0.6875,-2.71875 v -1.4375 q 0,-1.89063 0.64063,-2.79688 0.65624,-0.92187 2.046869,-0.92187 1.375,0 2.03125,0.89062 0.656249,0.875 0.671879,2.71875 z m -1.093759,-1.48437 q 0,-1.375 -0.39062,-2 -0.375,-0.64063 -1.21875,-0.64063 -0.828129,0 -1.218749,0.64063 -0.375,0.625 -0.375,1.92187 v 1.73438 q 0,1.375 0.39062,2.04687 0.40626,0.65625 1.218759,0.65625 0.79687,0 1.1875,-0.625 0.39062,-0.625 0.40624,-1.95312 z m 2.874999,4.5625 q 0,-0.28125 0.15626,-0.46875 0.17187,-0.1875 0.499999,-0.1875 0.34374,0 0.51562,0.1875 0.17188,0.1875 0.17188,0.46875 0,0.26562 -0.17188,0.45312 -0.17188,0.17188 -0.51562,0.17188 -0.328129,0 -0.499999,-0.17188 -0.15626,-0.1875 -0.15626,-0.45312 z m 4.437498,-4.23438 h 0.8125 q 0.781259,-0.0156 1.218759,-0.40625 0.4375,-0.39062 0.4375,-1.0625 0,-1.5 -1.499999,-1.5 -0.70313,0 -1.125,0.40625 -0.40626,0.40625 -0.40626,1.0625 h -1.093739 q 0,-1.01562 0.734369,-1.6875 0.75,-0.67187 1.89063,-0.67187 1.203119,0 1.890619,0.64062 0.6875,0.64063 0.6875,1.78125 0,0.5625 -0.35938,1.07813 -0.35937,0.51562 -0.98437,0.78125 0.70313,0.21875 1.07813,0.73437 0.39062,0.51563 0.39062,1.26563 0,1.14062 -0.75,1.82812 -0.75,0.67188 -1.953119,0.67188 -1.1875,0 -1.95313,-0.65625 -0.749999,-0.65625 -0.749999,-1.71875 h 1.093749 q 0,0.67187 0.4375,1.07812 0.4375,0.40625 1.1875,0.40625 0.781249,0 1.187499,-0.40625 0.42188,-0.42187 0.42188,-1.1875 0,-0.73437 -0.45313,-1.125 -0.45313,-0.40625 -1.328129,-0.42187 h -0.8125 z m 7.000001,0 h 0.812502 q 0.78126,-0.0156 1.21876,-0.40625 0.4375,-0.39062 0.4375,-1.0625 0,-1.5 -1.5,-1.5 -0.703132,0 -1.125002,0.40625 -0.40626,0.40625 -0.40626,1.0625 h -1.09374 q 0,-1.01562 0.73437,-1.6875 0.75,-0.67187 1.890632,-0.67187 1.20312,0 1.89062,0.64062 0.687502,0.64063 0.687502,1.78125 0,0.5625 -0.359382,1.07813 -0.35937,0.51562 -0.98437,0.78125 0.70313,0.21875 1.07813,0.73437 0.390622,0.51563 0.390622,1.26563 0,1.14062 -0.750002,1.82812 -0.75,0.67188 -1.95312,0.67188 -1.187502,0 -1.953132,-0.65625 -0.75,-0.65625 -0.75,-1.71875 h 1.09375 q 0,0.67187 0.4375,1.07812 0.4375,0.40625 1.187502,0.40625 0.78125,0 1.1875,-0.40625 0.42188,-0.42187 0.42188,-1.1875 0,-0.73437 -0.45313,-1.125 -0.45313,-0.40625 -1.32813,-0.42187 h -0.812502 z"
         fill-rule="nonzero"
         id="path1142" />
      <path
         fill="#34a853"
         d="m 376.54238,188.85818 q 0,1.90625 -0.65624,2.84375 -0.64063,0.92188 -2.03126,0.92188 -1.35937,0 -2.01562,-0.90625 -0.65625,-0.90625 -0.6875,-2.71875 v -1.4375 q 0,-1.89063 0.64062,-2.79688 0.65626,-0.92187 2.04688,-0.92187 1.375,0 2.03125,0.89062 0.65625,0.875 0.67187,2.71875 z m -1.09374,-1.48437 q 0,-1.375 -0.39063,-2 -0.375,-0.64063 -1.21875,-0.64063 -0.82812,0 -1.21875,0.64063 -0.375,0.625 -0.375,1.92187 v 1.73438 q 0,1.375 0.39063,2.04687 0.40624,0.65625 1.21874,0.65625 0.79688,0 1.1875,-0.625 0.39063,-0.625 0.40626,-1.95312 z m 2.875,4.5625 q 0,-0.28125 0.15624,-0.46875 0.17188,-0.1875 0.5,-0.1875 0.34376,0 0.51563,0.1875 0.17187,0.1875 0.17187,0.46875 0,0.26562 -0.17187,0.45312 -0.17187,0.17188 -0.51563,0.17188 -0.32812,0 -0.5,-0.17188 -0.15624,-0.1875 -0.15624,-0.45312 z m 8.45312,0.5625 h -5.59375 v -0.78125 l 2.95313,-3.28125 q 0.65624,-0.75 0.90624,-1.20313 0.25,-0.46875 0.25,-0.96875 0,-0.67187 -0.40624,-1.09375 -0.39063,-0.4375 -1.07813,-0.4375 -0.79687,0 -1.25,0.46875 -0.45313,0.45313 -0.45313,1.28125 h -1.07812 q 0,-1.1875 0.75,-1.90625 0.76562,-0.73437 2.03125,-0.73437 1.20313,0 1.89063,0.625 0.6875,0.625 0.6875,1.67187 0,1.25 -1.60938,3 l -2.28125,2.46875 h 4.28125 z m 4.96875,0 h -1.07813 v -7.21875 l -2.1875,0.79687 v -0.98437 l 3.10938,-1.17188 h 0.15625 z"
         fill-rule="nonzero"
         id="path1146" />
      <path
         fill="#000000"
         d="m 23.05,300.21564 q 0,-1.53124 0.3125,-2.45314 0.3125,-0.9375 0.921874,-1.4375 0.625,-0.5 1.5625,-0.5 0.6875,0 1.203126,0.28126 0.53125,0.28124 0.875,0.8125 0.34375,0.51564 0.53125,1.26564 0.1875,0.75 0.1875,2.03124 0,1.51562 -0.3125,2.4375 -0.296876,0.92186 -0.921876,1.4375 -0.609374,0.5 -1.5625,0.5 -1.234374,0 -1.953124,-0.89064 Q 23.05,302.6375 23.05,300.21564 Z m 1.078124,0 q 0,2.10936 0.5,2.8125 0.5,0.70312 1.21875,0.70312 0.734376,0 1.21875,-0.70312 0.5,-0.70314 0.5,-2.8125 0,-2.125 -0.5,-2.8125 Q 26.58125,296.7 25.83125,296.7 q -0.71875,0 -1.15625,0.6094 -0.546876,0.78124 -0.546876,2.90624 z M 30.64375,304.45 v -1.2031 h 1.203124 V 304.45 Z M 33.05,300.21564 q 0,-1.53124 0.3125,-2.45314 0.3125,-0.9375 0.921874,-1.4375 0.625,-0.5 1.5625,-0.5 0.6875,0 1.203126,0.28126 0.53125,0.28124 0.875,0.8125 0.34375,0.51564 0.53125,1.26564 0.1875,0.75 0.1875,2.03124 0,1.51562 -0.3125,2.4375 -0.296876,0.92186 -0.921876,1.4375 -0.609374,0.5 -1.5625,0.5 -1.234374,0 -1.953124,-0.89064 Q 33.05,302.6375 33.05,300.21564 Z m 1.078124,0 q 0,2.10936 0.5,2.8125 0.5,0.70312 1.21875,0.70312 0.734376,0 1.21875,-0.70312 0.5,-0.70314 0.5,-2.8125 0,-2.125 -0.5,-2.8125 Q 36.58125,296.7 35.83125,296.7 q -0.71875,0 -1.15625,0.6094 -0.546876,0.78124 -0.546876,2.90624 z"
         fill-rule="nonzero"
         id="path1150" />
      <path
         fill="#000000"
         d="m 23.05,246.67397 q 0,-1.53125 0.3125,-2.45313 0.3125,-0.9375 0.921874,-1.4375 0.625,-0.5 1.5625,-0.5 0.6875,0 1.203126,0.28125 0.53125,0.28125 0.875,0.8125 0.34375,0.51563 0.53125,1.26563 0.1875,0.75 0.1875,2.03125 0,1.51562 -0.3125,2.4375 -0.296876,0.92187 -0.921876,1.4375 -0.609374,0.5 -1.5625,0.5 -1.234374,0 -1.953124,-0.89063 Q 23.05,249.09584 23.05,246.67397 Z m 1.078124,0 q 0,2.10937 0.5,2.8125 0.5,0.70312 1.21875,0.70312 0.734376,0 1.21875,-0.70312 0.5,-0.70313 0.5,-2.8125 0,-2.125 -0.5,-2.8125 -0.484374,-0.70313 -1.234374,-0.70313 -0.71875,0 -1.15625,0.60938 -0.546876,0.78125 -0.546876,2.90625 z m 6.515626,4.23437 v -1.20312 h 1.203124 v 1.20312 z m 6.375,0 h -1.046876 v -6.71875 q -0.390624,0.35938 -1.015624,0.73438 -0.609376,0.35937 -1.09375,0.53125 v -1.01563 q 0.875,-0.42187 1.53125,-1 0.671874,-0.59375 0.953124,-1.15625 h 0.671876 z"
         fill-rule="nonzero"
         id="path1152" />
      <path
         fill="#000000"
         d="m 23.05,193.1323 q 0,-1.53126 0.3125,-2.45313 0.3125,-0.9375 0.921874,-1.4375 0.625,-0.5 1.5625,-0.5 0.6875,0 1.203126,0.28125 0.53125,0.28125 0.875,0.8125 0.34375,0.51562 0.53125,1.26562 0.1875,0.75 0.1875,2.03126 0,1.51562 -0.3125,2.4375 -0.296876,0.92187 -0.921876,1.4375 -0.609374,0.5 -1.5625,0.5 -1.234374,0 -1.953124,-0.89063 Q 23.05,195.55417 23.05,193.1323 Z m 1.078124,0 q 0,2.10937 0.5,2.8125 0.5,0.70312 1.21875,0.70312 0.734376,0 1.21875,-0.70312 0.5,-0.70313 0.5,-2.8125 0,-2.125 -0.5,-2.8125 -0.484374,-0.70313 -1.234374,-0.70313 -0.71875,0 -1.15625,0.60937 -0.546876,0.78126 -0.546876,2.90626 z m 6.515626,4.23437 v -1.20313 h 1.203124 v 1.20313 z m 7.953124,-1.01563 v 1.01563 h -5.6875 q 0,-0.375 0.125,-0.73437 0.21875,-0.57813 0.6875,-1.14063 0.484376,-0.5625 1.390626,-1.29687 1.40625,-1.15626 1.890624,-1.82813 0.5,-0.67187 0.5,-1.26563 0,-0.625 -0.453124,-1.04687 -0.453126,-0.4375 -1.171876,-0.4375 -0.765624,0 -1.21875,0.45313 -0.453124,0.45312 -0.46875,1.26562 L 33.1125,191.22604 q 0.109374,-1.21874 0.828124,-1.84374 0.734376,-0.64063 1.96875,-0.64063 1.234376,0 1.953126,0.6875 0.71875,0.6875 0.71875,1.70313 0,0.51562 -0.21875,1.01562 -0.203126,0.48438 -0.703126,1.04688 -0.484374,0.54687 -1.609374,1.5 -0.953126,0.79687 -1.234376,1.09374 -0.265624,0.28126 -0.4375,0.5625 z"
         fill-rule="nonzero"
         id="path1154" />
      <path
         fill="#000000"
         d="m 23.05,139.59062 q 0,-1.53125 0.3125,-2.45312 0.3125,-0.9375 0.921874,-1.4375 0.625,-0.5 1.5625,-0.5 0.6875,0 1.203126,0.28125 0.53125,0.28125 0.875,0.8125 0.34375,0.51562 0.53125,1.26562 0.1875,0.75 0.1875,2.03125 0,1.51563 -0.3125,2.4375 -0.296876,0.92188 -0.921876,1.4375 -0.609374,0.5 -1.5625,0.5 -1.234374,0 -1.953124,-0.89062 Q 23.05,142.0125 23.05,139.59062 Z m 1.078124,0 q 0,2.10938 0.5,2.8125 0.5,0.70313 1.21875,0.70313 0.734376,0 1.21875,-0.70313 0.5,-0.70312 0.5,-2.8125 0,-2.125 -0.5,-2.8125 -0.484374,-0.70312 -1.234374,-0.70312 -0.71875,0 -1.15625,0.60937 -0.546876,0.78125 -0.546876,2.90625 z m 6.515626,4.23438 v -1.20313 h 1.203124 v 1.20313 z m 2.40625,-2.26563 1.0625,-0.14062 q 0.171874,0.89062 0.609374,1.29687 0.4375,0.39063 1.0625,0.39063 0.75,0 1.265626,-0.51563 0.515624,-0.51562 0.515624,-1.28125 0,-0.71875 -0.484374,-1.1875 -0.46875,-0.48437 -1.203126,-0.48437 -0.296874,0 -0.75,0.125 l 0.125,-0.9375 q 0.109376,0.0156 0.171876,0.0156 0.671874,0 1.203124,-0.34375 0.546876,-0.35937 0.546876,-1.09375 0,-0.57812 -0.390626,-0.95312 -0.390624,-0.39063 -1.015624,-0.39063 -0.609376,0 -1.03125,0.39063 -0.40625,0.39062 -0.515626,1.15625 l -1.0625,-0.1875 q 0.1875,-1.04688 0.875,-1.625 0.6875,-0.59375 1.703126,-0.59375 0.703124,0 1.296874,0.3125 0.59375,0.29687 0.90625,0.8125 0.3125,0.51562 0.3125,1.10937 0,0.54688 -0.296874,1.01563 -0.296876,0.45312 -0.875,0.71875 0.75,0.17187 1.171874,0.73437 0.421876,0.54688 0.421876,1.39063 0,1.125 -0.828126,1.90625 -0.8125,0.78125 -2.0625,0.78125 -1.125,0 -1.875,-0.67188 -0.75,-0.6875 -0.859374,-1.75 z"
         fill-rule="nonzero"
         id="path1156" />
      <path
         fill="#000000"
         d="m 23.05,86.04896 q 0,-1.53125 0.3125,-2.45313 0.3125,-0.9375 0.921874,-1.4375 0.625,-0.5 1.5625,-0.5 0.6875,0 1.203126,0.28125 0.53125,0.28125 0.875,0.8125 0.34375,0.51563 0.53125,1.26563 0.1875,0.75 0.1875,2.03125 0,1.51562 -0.3125,2.4375 -0.296876,0.92187 -0.921876,1.4375 -0.609374,0.5 -1.5625,0.5 -1.234374,0 -1.953124,-0.89063 Q 23.05,88.47083 23.05,86.04896 Z m 1.078124,0 q 0,2.10937 0.5,2.8125 0.5,0.70312 1.21875,0.70312 0.734376,0 1.21875,-0.70312 0.5,-0.70313 0.5,-2.8125 0,-2.125 -0.5,-2.8125 -0.484374,-0.70313 -1.234374,-0.70313 -0.71875,0 -1.15625,0.60938 -0.546876,0.78125 -0.546876,2.90625 z m 6.515626,4.23437 v -1.20312 h 1.203124 v 1.20312 z m 5.78125,0 v -2.0625 h -3.71875 v -0.96875 l 3.921874,-5.5625 H 37.4875 v 5.5625 h 1.15625 v 0.96875 H 37.4875 v 2.0625 z m 0,-3.03125 v -3.85937 l -2.6875,3.85937 z"
         fill-rule="nonzero"
         id="path1158" />
      <text
         xml:space="preserve"
         style="font-size:26.6667px;line-height:1.25;font-family:sans-serif;word-spacing:0px;fill:#4d4d4d"
         x="63.829666"
         y="325.16211"
         id="text1526"><tspan
           sodipodi:role="line"
           id="tspan1524"
           x="63.829666"
           y="325.16211">RAW</tspan></text>
      <text
         xml:space="preserve"
         style="font-size:26.6667px;line-height:1.25;font-family:sans-serif;word-spacing:0px;fill:#4d4d4d"
         x="328.76962"
         y="326.11792"
         id="text1530"><tspan
           sodipodi:role="line"
           id="tspan1528"
           x="328.76962"
           y="326.11792">LMS</tspan></text>
      <text
         xml:space="preserve"
         style="font-size:21.3333px;line-height:1.25;font-family:sans-serif;word-spacing:0px;fill:#4d4d4d"
         x="-305.32687"
         y="14.138829"
         id="text1534"
         transform="rotate(-90)"><tspan
           sodipodi:role="line"
           id="tspan1532"
           x="-305.32687"
           y="14.138829">Correlation coefficient</tspan></text>
    </g>
    <g
       style="fill:none;stroke:none;stroke-linecap:square;stroke-miterlimit:10"
       id="g1494"
       transform="matrix(0.26458333,0,0,0.26458333,-38.963137,124.08923)">
      <path
         stroke="#cccccc"
         stroke-width="0.801128"
         stroke-linecap="butt"
         d="M 51.5,300.5 H 391.65748"
         fill-rule="nonzero"
         id="path1263" />
      <path
         stroke="#cccccc"
         stroke-width="0.801128"
         stroke-linecap="butt"
         d="M 51.5,229.5 H 391.65748"
         fill-rule="nonzero"
         id="path1265" />
      <path
         stroke="#cccccc"
         stroke-width="0.801128"
         stroke-linecap="butt"
         d="M 51.5,159.5 H 391.65748"
         fill-rule="nonzero"
         id="path1267" />
      <path
         stroke="#333333"
         stroke-width="0.801128"
         stroke-linecap="butt"
         d="M 51.5,88.5 H 391.65748"
         fill-rule="nonzero"
         id="path1269" />
      <path
         stroke="#e6e6e6"
         stroke-width="0.801128"
         stroke-linecap="butt"
         d="M 51.5,276.5 H 391.65748"
         fill-rule="nonzero"
         id="path1271" />
      <path
         stroke="#e6e6e6"
         stroke-width="0.801128"
         stroke-linecap="butt"
         d="M 51.5,253.5 H 391.65748"
         fill-rule="nonzero"
         id="path1273" />
      <path
         stroke="#e6e6e6"
         stroke-width="0.801128"
         stroke-linecap="butt"
         d="M 51.5,206.5 H 391.65748"
         fill-rule="nonzero"
         id="path1275" />
      <path
         stroke="#e6e6e6"
         stroke-width="0.801128"
         stroke-linecap="butt"
         d="M 51.5,182.5 H 391.65748"
         fill-rule="nonzero"
         id="path1277" />
      <path
         stroke="#e6e6e6"
         stroke-width="0.801128"
         stroke-linecap="butt"
         d="M 51.5,135.5 H 391.65748"
         fill-rule="nonzero"
         id="path1279" />
      <path
         stroke="#e6e6e6"
         stroke-width="0.801128"
         stroke-linecap="butt"
         d="M 51.5,111.5 H 391.65748"
         fill-rule="nonzero"
         id="path1281" />
      <path
         stroke="#eeeeee"
         stroke-width="1"
         stroke-linecap="butt"
         d="m 105.03194,219.95134 v 16"
         fill-rule="nonzero"
         id="path1283" />
      <path
         stroke="#eeeeee"
         stroke-width="1"
         stroke-linecap="butt"
         d="m 369.98194,219.66844 v 16"
         fill-rule="nonzero"
         id="path1285" />
      <path
         stroke="#eeeeee"
         stroke-width="1"
         stroke-linecap="butt"
         d="m 105.03194,223.91177 v 16"
         fill-rule="nonzero"
         id="path1287" />
      <path
         stroke="#eeeeee"
         stroke-width="1"
         stroke-linecap="butt"
         d="m 369.98194,223.48744 v 16"
         fill-rule="nonzero"
         id="path1289" />
      <path
         stroke="#eeeeee"
         stroke-width="1"
         stroke-linecap="butt"
         d="m 105.03194,252.20067 v 15.99998"
         fill-rule="nonzero"
         id="path1291" />
      <path
         stroke="#eeeeee"
         stroke-width="1"
         stroke-linecap="butt"
         d="m 369.98194,250.079 v 16"
         fill-rule="nonzero"
         id="path1293" />
      <path
         stroke="#eeeeee"
         stroke-width="1"
         stroke-linecap="butt"
         d="m 105.03194,250.22044 v 16.00002"
         fill-rule="nonzero"
         id="path1295" />
      <path
         stroke="#eeeeee"
         stroke-width="1"
         stroke-linecap="butt"
         d="m 369.98194,244.987 v 16"
         fill-rule="nonzero"
         id="path1297" />
      <path
         stroke="#000000"
         stroke-width="1"
         stroke-linecap="butt"
         d="M 51.5,300.5 V 88.5"
         fill-rule="nonzero"
         id="path1299" />
      <path
         stroke="#4285f4"
         stroke-width="0.455683"
         stroke-linecap="butt"
         stroke-opacity="0.4"
         clip-path="url(#id_0)"
         d="m 105.03194,235.95134 264.95,-0.2829"
         fill-rule="nonzero"
         id="path1304" />
      <path
         stroke="#ea4335"
         stroke-width="0.455668"
         stroke-linecap="butt"
         stroke-opacity="0.4"
         clip-path="url(#id_0)"
         d="m 105.03194,239.91177 264.95,-0.42433"
         fill-rule="nonzero"
         id="path1306" />
      <path
         stroke="#fbbc04"
         stroke-width="0.455668"
         stroke-linecap="butt"
         stroke-opacity="0.4"
         clip-path="url(#id_0)"
         d="m 105.03194,268.20065 264.95,-2.12165"
         fill-rule="nonzero"
         id="path1308"
         style="fill:#ffcc00" />
      <path
         stroke="#34a853"
         stroke-width="0.911345"
         stroke-linecap="butt"
         stroke-opacity="0.4"
         clip-path="url(#id_0)"
         d="m 105.03194,266.22046 264.95,-5.23346"
         fill-rule="nonzero"
         id="path1310" />
      <path
         fill="#4285f4"
         clip-path="url(#id_0)"
         d="m 109.53194,235.95134 c 0,2.48527 -2.01472,4.5 -4.5,4.5 -2.48528,0 -4.5,-2.01473 -4.5,-4.5 0,-2.48529 2.01472,-4.5 4.5,-4.5 2.48528,0 4.5,2.01471 4.5,4.5 z"
         fill-rule="nonzero"
         id="path1312" />
      <path
         fill="#4285f4"
         clip-path="url(#id_0)"
         d="m 374.48194,235.66844 c 0,2.48529 -2.0147,4.5 -4.5,4.5 -2.48528,0 -4.5,-2.01471 -4.5,-4.5 0,-2.48527 2.01472,-4.5 4.5,-4.5 2.4853,0 4.5,2.01473 4.5,4.5 z"
         fill-rule="nonzero"
         id="path1314" />
      <path
         fill="#ea4335"
         clip-path="url(#id_0)"
         d="m 109.53194,239.91177 c 0,2.48529 -2.01472,4.5 -4.5,4.5 -2.48528,0 -4.5,-2.01471 -4.5,-4.5 0,-2.48527 2.01472,-4.5 4.5,-4.5 2.48528,0 4.5,2.01473 4.5,4.5 z"
         fill-rule="nonzero"
         id="path1316" />
      <path
         fill="#ea4335"
         clip-path="url(#id_0)"
         d="m 374.48194,239.48744 c 0,2.48529 -2.0147,4.5 -4.5,4.5 -2.48528,0 -4.5,-2.01471 -4.5,-4.5 0,-2.48527 2.01472,-4.5 4.5,-4.5 2.4853,0 4.5,2.01473 4.5,4.5 z"
         fill-rule="nonzero"
         id="path1318" />
      <path
         fill="#fbbc04"
         clip-path="url(#id_0)"
         d="m 109.53194,268.20065 c 0,2.48529 -2.01472,4.5 -4.5,4.5 -2.48528,0 -4.5,-2.01471 -4.5,-4.5 0,-2.48525 2.01472,-4.5 4.5,-4.5 2.48528,0 4.5,2.01475 4.5,4.5 z"
         fill-rule="nonzero"
         id="path1320" />
      <path
         fill="#fbbc04"
         clip-path="url(#id_0)"
         d="m 374.48194,266.079 c 0,2.48527 -2.0147,4.5 -4.5,4.5 -2.48528,0 -4.5,-2.01473 -4.5,-4.5 0,-2.48528 2.01472,-4.5 4.5,-4.5 2.4853,0 4.5,2.01472 4.5,4.5 z"
         fill-rule="nonzero"
         id="path1322" />
      <path
         fill="#34a853"
         clip-path="url(#id_0)"
         d="m 109.53194,266.22046 c 0,2.48526 -2.01472,4.5 -4.5,4.5 -2.48528,0 -4.5,-2.01474 -4.5,-4.5 0,-2.48529 2.01472,-4.5 4.5,-4.5 2.48528,0 4.5,2.01471 4.5,4.5 z"
         fill-rule="nonzero"
         id="path1324" />
      <path
         fill="#34a853"
         clip-path="url(#id_0)"
         d="m 374.48194,260.987 c 0,2.4853 -2.0147,4.5 -4.5,4.5 -2.48528,0 -4.5,-2.0147 -4.5,-4.5 0,-2.4853 2.01472,-4.5 4.5,-4.5 2.4853,0 4.5,2.0147 4.5,4.5 z"
         fill-rule="nonzero"
         id="path1326" />
      <path
         stroke="#000000"
         stroke-width="1"
         stroke-linecap="butt"
         d="m 48.5,276.5 h 6"
         fill-rule="nonzero"
         id="path1328" />
      <path
         stroke="#000000"
         stroke-width="1"
         stroke-linecap="butt"
         d="m 48.5,253.5 h 6"
         fill-rule="nonzero"
         id="path1330" />
      <path
         stroke="#000000"
         stroke-width="1"
         stroke-linecap="butt"
         d="m 48.5,206.5 h 6"
         fill-rule="nonzero"
         id="path1332" />
      <path
         stroke="#000000"
         stroke-width="1"
         stroke-linecap="butt"
         d="m 48.5,182.5 h 6"
         fill-rule="nonzero"
         id="path1334" />
      <path
         stroke="#000000"
         stroke-width="1"
         stroke-linecap="butt"
         d="m 48.5,135.5 h 6"
         fill-rule="nonzero"
         id="path1336" />
      <path
         stroke="#000000"
         stroke-width="1"
         stroke-linecap="butt"
         d="m 48.5,111.5 h 6"
         fill-rule="nonzero"
         id="path1338" />
      <path
         stroke="#000000"
         stroke-width="1"
         stroke-linecap="butt"
         d="m 45.5,300.5 h 12"
         fill-rule="nonzero"
         id="path1340" />
      <path
         stroke="#000000"
         stroke-width="1"
         stroke-linecap="butt"
         d="m 45.5,229.5 h 12"
         fill-rule="nonzero"
         id="path1342" />
      <path
         stroke="#000000"
         stroke-width="1"
         stroke-linecap="butt"
         d="m 45.5,159.5 h 12"
         fill-rule="nonzero"
         id="path1344" />
      <path
         stroke="#000000"
         stroke-width="1"
         stroke-linecap="butt"
         d="m 45.5,88.5 h 12"
         fill-rule="nonzero"
         id="path1346" />
      <path
         fill="#4285f4"
         d="m 63.918163,222.80919 h -2.859377 v -0.875 h 2.859377 z m 4.187494,3.1875 H 67.02754 v -7.21875 l -2.187497,0.79687 v -0.98437 l 3.109364,-1.17188 h 0.15625 z m 8.796875,-3.64063 q 0,1.90625 -0.65626,2.84375 -0.64062,0.92188 -2.031239,0.92188 -1.35938,0 -2.01563,-0.90625 -0.656249,-0.90625 -0.687499,-2.71875 v -1.4375 q 0,-1.89063 0.640629,-2.79688 0.65624,-0.92187 2.04687,-0.92187 1.374999,0 2.031249,0.89062 0.65625,0.875 0.67188,2.71875 z m -1.09376,-1.48437 q 0,-1.375 -0.39062,-2 -0.375,-0.64063 -1.218749,-0.64063 -0.82813,0 -1.21875,0.64063 -0.375,0.625 -0.375,1.92187 v 1.73438 q 0,1.375 0.39062,2.04687 0.40626,0.65625 1.21876,0.65625 0.796869,0 1.187499,-0.625 0.39062,-0.625 0.40624,-1.95312 z m 2.874999,4.5625 q 0,-0.28125 0.15626,-0.46875 0.17187,-0.1875 0.5,-0.1875 0.34374,0 0.51562,0.1875 0.171879,0.1875 0.171879,0.46875 0,0.26562 -0.171879,0.45312 -0.17188,0.17188 -0.51562,0.17188 -0.32813,0 -0.5,-0.17188 -0.15626,-0.1875 -0.15626,-0.45312 z m 7.437497,-2.29688 h 1.1875 v 0.875 h -1.1875 v 1.98438 h -1.078119 v -1.98438 H 81.15253 v -0.64062 l 3.812499,-5.90625 h 1.156239 z m -3.734368,0 h 2.656249 v -4.1875 l -0.14062,0.23438 z m 10.734378,0 h 1.187509 v 0.875 h -1.187509 v 1.98438 h -1.078129 v -1.98438 h -3.890621 v -0.64062 l 3.812501,-5.90625 h 1.156249 z m -3.734378,0 h 2.656249 v -4.1875 l -0.14062,0.23438 z"
         fill-rule="nonzero"
         id="path1350" />
      <path
         fill="#4285f4"
         d="m 384.20399,221.13178 h -2.85937 v -0.875 h 2.85937 z m 4.1875,3.1875 h -1.07813 v -7.21875 l -2.1875,0.79688 v -0.98438 l 3.10938,-1.17187 h 0.15625 z m 8.79687,-3.64062 q 0,1.90625 -0.65624,2.84375 -0.64063,0.92187 -2.03126,0.92187 -1.35937,0 -2.01562,-0.90625 -0.65625,-0.90625 -0.6875,-2.71875 v -1.4375 q 0,-1.89062 0.64062,-2.79687 0.65626,-0.92188 2.04688,-0.92188 1.375,0 2.03125,0.89063 0.65625,0.875 0.67187,2.71875 z m -1.09374,-1.48438 q 0,-1.375 -0.39063,-2 -0.375,-0.64062 -1.21875,-0.64062 -0.82812,0 -1.21875,0.64062 -0.375,0.625 -0.375,1.92188 v 1.73437 q 0,1.375 0.39063,2.04688 0.40624,0.65625 1.21874,0.65625 0.79688,0 1.1875,-0.625 0.39063,-0.625 0.40626,-1.95313 z m 2.875,4.5625 q 0,-0.28125 0.15624,-0.46875 0.17188,-0.1875 0.5,-0.1875 0.34376,0 0.51563,0.1875 0.17187,0.1875 0.17187,0.46875 0,0.26563 -0.17187,0.45313 -0.17187,0.17187 -0.51563,0.17187 -0.32812,0 -0.5,-0.17187 -0.15624,-0.1875 -0.15624,-0.45313 z m 7.4375,-2.29687 h 1.1875 v 0.875 h -1.1875 v 1.98437 h -1.07813 v -1.98437 h -3.89063 v -0.64063 l 3.8125,-5.90625 h 1.15626 z m -3.73438,0 h 2.65625 v -4.1875 l -0.14063,0.23437 z m 11.75,2.85937 h -5.59375 v -0.78125 l 2.95313,-3.28125 q 0.65624,-0.75 0.90624,-1.20312 0.25,-0.46875 0.25,-0.96875 0,-0.67188 -0.40624,-1.09375 -0.39063,-0.4375 -1.07813,-0.4375 -0.79687,0 -1.25,0.46875 -0.45313,0.45312 -0.45313,1.28125 h -1.07812 q 0,-1.1875 0.75,-1.90625 0.76562,-0.73438 2.03125,-0.73438 1.20313,0 1.89063,0.625 0.6875,0.625 0.6875,1.67188 0,1.25 -1.60938,3 l -2.28125,2.46875 h 4.28125 z"
         fill-rule="nonzero"
         id="path1354" />
      <path
         fill="#ea4335"
         d="m 66.14724,241.92312 h -2.859377 v -0.875 h 2.859377 z m 4.187494,3.1875 h -1.078117 v -7.21875 l -2.187497,0.79688 v -0.98438 l 3.109364,-1.17187 h 0.15625 z M 79.131611,241.47 q 0,1.90625 -0.65626,2.84375 -0.64062,0.92187 -2.031239,0.92187 -1.35938,0 -2.015629,-0.90625 -0.65625,-0.90625 -0.6875,-2.71875 v -1.4375 q 0,-1.89062 0.64063,-2.79687 0.656239,-0.92188 2.046869,-0.92188 1.374999,0 2.031249,0.89063 0.65625,0.875 0.67188,2.71875 z m -1.09376,-1.48438 q 0,-1.375 -0.39062,-2 -0.374999,-0.64062 -1.218749,-0.64062 -0.82813,0 -1.21875,0.64062 -0.375,0.625 -0.375,1.92188 v 1.73437 q 0,1.375 0.39062,2.04688 0.40626,0.65625 1.21876,0.65625 0.79687,0 1.187499,-0.625 0.39062,-0.625 0.40624,-1.95313 z m 2.874999,4.5625 q 0,-0.28125 0.15626,-0.46875 0.17187,-0.1875 0.5,-0.1875 0.34374,0 0.51562,0.1875 0.17188,0.1875 0.17188,0.46875 0,0.26563 -0.17188,0.45313 -0.17188,0.17187 -0.51562,0.17187 -0.32813,0 -0.5,-0.17187 -0.15626,-0.1875 -0.15626,-0.45313 z m 8.375,-7.35937 -3.531242,7.92187 H 84.615979 L 88.131608,237.47 h -4.609379 v -0.89063 h 5.765621 z m 7.078145,7.92187 H 90.77223 v -0.78125 l 2.953134,-3.28125 q 0.656266,-0.75 0.906266,-1.20312 0.250003,-0.46875 0.250003,-0.96875 0,-0.67188 -0.406263,-1.09375 -0.390623,-0.4375 -1.078129,-0.4375 -0.796886,0 -1.250009,0.46875 -0.453123,0.45312 -0.453123,1.28125 H 90.61598 q 0,-1.1875 0.750002,-1.90625 0.76563,-0.73438 2.031259,-0.73438 1.203129,0 1.890632,0.625 0.687496,0.625 0.687496,1.67188 0,1.25 -1.609369,3 L 92.084732,244.22 h 4.281263 z"
         fill-rule="nonzero"
         id="path1358" />
      <path
         fill="#ea4335"
         d="m 386.00117,242.59026 h -2.85937 v -0.97732 h 2.85937 z m 4.1875,3.56023 h -1.07813 v -8.06288 l -2.1875,0.89007 v -1.09949 l 3.10938,-1.3089 h 0.15625 z m 8.79687,-4.06633 q 0,2.12915 -0.65624,3.17628 -0.64063,1.02967 -2.03126,1.02967 -1.35937,0 -2.01562,-1.01222 -0.65625,-1.01223 -0.6875,-3.03667 v -1.6056 q 0,-2.1117 0.64062,-3.12392 0.65626,-1.02968 2.04688,-1.02968 1.375,0 2.03125,0.99478 0.65625,0.97731 0.67187,3.03666 z m -1.09374,-1.65796 q 0,-1.53579 -0.39063,-2.23387 -0.375,-0.71553 -1.21875,-0.71553 -0.82812,0 -1.21875,0.71553 -0.375,0.69808 -0.375,2.14661 v 1.93718 q 0,1.53579 0.39063,2.28624 0.40624,0.73298 1.21874,0.73298 0.79688,0 1.1875,-0.69808 0.39063,-0.69808 0.40626,-2.18152 z m 2.875,5.09602 q 0,-0.31414 0.15624,-0.52357 0.17188,-0.20942 0.5,-0.20942 0.34376,0 0.51563,0.20942 0.17187,0.20943 0.17187,0.52357 0,0.29669 -0.17187,0.50611 -0.17187,0.19197 -0.51563,0.19197 -0.32812,0 -0.5,-0.19197 -0.15624,-0.20942 -0.15624,-0.50611 z m 7.125,-8.90058 v 1.01222 h -0.20313 q -1.26563,0.0349 -2.01563,0.85516 -0.75,0.8028 -0.875,2.26877 0.6875,-0.85516 1.84376,-0.85516 1.10937,0 1.78124,0.87261 0.67188,0.87261 0.67188,2.26878 0,1.46597 -0.71875,2.35604 -0.71875,0.89005 -1.9375,0.89005 -1.21875,0 -1.98437,-1.04713 -0.75,-1.06457 -0.75,-2.72253 v -0.45375 q 0,-2.63527 1,-4.03144 1,-1.39617 2.98437,-1.41362 z m -1.42188,4.29322 q -0.5625,0 -1.03125,0.3665 -0.46875,0.36649 -0.65625,0.94241 v 0.4363 q 0,1.18674 0.46875,1.90229 0.48437,0.71553 1.1875,0.71553 0.73437,0 1.15625,-0.59338 0.42188,-0.61081 0.42188,-1.58813 0,-0.97732 -0.42188,-1.57069 -0.42188,-0.61083 -1.125,-0.61083 z m 8.3125,1.04712 q -0.32812,0.45376 -0.8125,0.73299 -0.46875,0.26179 -1.03125,0.26179 -0.73437,0 -1.28125,-0.4014 -0.54688,-0.4014 -0.84375,-1.13439 -0.29687,-0.75044 -0.29687,-1.64049 0,-0.94242 0.3125,-1.71031 0.32812,-0.76789 0.92187,-1.1693 0.60937,-0.41885 1.40625,-0.41885 1.26562,0 1.98438,1.06458 0.73437,1.06458 0.73437,2.8796 v 0.34904 q 0,2.79234 -0.98437,4.06635 -0.98438,1.274 -2.96876,1.3089 h -0.21874 v -1.01222 h 0.23437 q 1.34375,-0.0349 2.0625,-0.78534 0.71875,-0.75045 0.78125,-2.39095 z m -1.67188,0 q 0.54688,0 1,-0.36648 0.46876,-0.38395 0.6875,-0.92497 v -0.48866 q 0,-1.18675 -0.46874,-1.93718 -0.46876,-0.75045 -1.17188,-0.75045 -0.71875,0 -1.15625,0.61083 -0.42187,0.61082 -0.42187,1.62304 0,0.97732 0.40624,1.6056 0.42188,0.62827 1.125,0.62827 z"
         fill-rule="nonzero"
         id="path1362"
         style="stroke-width:1.05685" />
      <path
         fill="#fbbc04"
         d="m 66.28095,282.89692 h -2.859377 v -0.875 h 2.859377 z m 4.187494,3.1875 h -1.07812 v -7.21875 l -2.187497,0.79688 v -0.98438 l 3.109367,-1.17188 h 0.15625 z m 9.031247,0 h -5.593748 v -0.78125 l 2.953119,-3.28125 q 0.656259,-0.75 0.906259,-1.20313 0.25,-0.46874 0.25,-0.96874 0,-0.67188 -0.40626,-1.09376 -0.390619,-0.4375 -1.078119,-0.4375 -0.79688,0 -1.25,0.46876 -0.45312,0.45312 -0.45312,1.28124 h -1.078129 q 0,-1.1875 0.75,-1.90624 0.765629,-0.73438 2.031249,-0.73438 1.203119,0 1.890619,0.625 0.6875,0.625 0.6875,1.67188 0,1.25 -1.60937,3 l -2.281249,2.46874 h 4.281249 z m 1.546869,-0.5625 q 0,-0.28125 0.15626,-0.46875 0.17187,-0.1875 0.5,-0.1875 0.34374,0 0.51562,0.1875 0.17188,0.1875 0.17188,0.46875 0,0.26563 -0.17188,0.45313 -0.17188,0.17187 -0.51562,0.17187 -0.32813,0 -0.5,-0.17187 -0.15626,-0.1875 -0.15626,-0.45313 z m 8.375,-7.35937 -3.531242,7.92187 h -1.140629 l 3.515629,-7.64063 h -4.609379 v -0.89062 h 5.765621 z m 7.078145,7.92187 H 90.90594 v -0.78125 l 2.953134,-3.28125 q 0.656266,-0.75 0.906269,-1.20313 0.25,-0.46874 0.25,-0.96874 0,-0.67188 -0.406263,-1.09376 -0.390623,-0.4375 -1.078129,-0.4375 -0.796886,0 -1.250009,0.46876 -0.453123,0.45312 -0.453123,1.28124 H 90.74969 q 0,-1.1875 0.750002,-1.90624 0.76563,-0.73438 2.031259,-0.73438 1.203132,0 1.890632,0.625 0.687496,0.625 0.687496,1.67188 0,1.25 -1.609369,3 l -2.281268,2.46874 h 4.281263 z"
         fill-rule="nonzero"
         id="path1366" />
      <path
         fill="#fbbc04"
         d="m 386.23692,281.33227 h -2.85937 v -0.875 h 2.85937 z m 4.1875,3.1875 h -1.07813 v -7.21876 l -2.1875,0.79688 v -0.98438 l 3.10938,-1.17187 h 0.15625 z m 9.03125,0 h -5.59375 v -0.78126 l 2.95313,-3.28124 q 0.65624,-0.75 0.90624,-1.20313 0.25,-0.46875 0.25,-0.96875 0,-0.67188 -0.40624,-1.09375 -0.39063,-0.4375 -1.07813,-0.4375 -0.79687,0 -1.25,0.46875 -0.45313,0.45312 -0.45313,1.28125 h -1.07812 q 0,-1.1875 0.75,-1.90625 0.76562,-0.73438 2.03125,-0.73438 1.20313,0 1.89063,0.625 0.6875,0.625 0.6875,1.67188 0,1.25 -1.60938,3 l -2.28125,2.46875 h 4.28125 z m 1.54688,-0.5625 q 0,-0.28126 0.15624,-0.46876 0.17188,-0.1875 0.5,-0.1875 0.34376,0 0.51563,0.1875 0.17187,0.1875 0.17187,0.46876 0,0.26562 -0.17187,0.45312 -0.17187,0.17188 -0.51563,0.17188 -0.32812,0 -0.5,-0.17188 -0.15624,-0.1875 -0.15624,-0.45312 z m 3.35937,-3.71876 0.4375,-4.25 h 4.375 v 1 h -3.45313 l -0.26562,2.32813 q 0.64062,-0.375 1.4375,-0.375 1.15625,0 1.84375,0.78125 0.6875,0.76562 0.6875,2.07812 0,1.3125 -0.71875,2.07813 -0.70312,0.76563 -1.98438,0.76563 -1.125,0 -1.84374,-0.625 -0.71876,-0.64063 -0.8125,-1.75 h 1.01562 q 0.10938,0.73437 0.53125,1.10937 0.42187,0.375 1.10937,0.375 0.75,0 1.1875,-0.51563 0.4375,-0.51562 0.4375,-1.42187 0,-0.85937 -0.46874,-1.375 -0.46876,-0.51563 -1.25,-0.51563 -0.70313,0 -1.10938,0.29688 l -0.28125,0.23438 z m 12.01563,-3.64062 -3.53126,7.92188 h -1.14062 l 3.51562,-7.64063 h -4.60937 v -0.89063 h 5.76563 z"
         fill-rule="nonzero"
         id="path1370" />
      <path
         fill="#34a853"
         d="m 65.86827,263.76219 h -2.859377 v -0.875 h 2.859377 z m 4.187494,3.1875 h -1.078117 v -7.21874 l -2.187497,0.79687 v -0.98437 l 3.109364,-1.17188 h 0.15625 z m 9.031247,0 h -5.593748 v -0.78124 l 2.953119,-3.28126 q 0.65626,-0.75 0.906259,-1.20312 0.25,-0.46875 0.25,-0.96875 0,-0.67187 -0.406259,-1.09375 -0.39062,-0.4375 -1.07812,-0.4375 -0.79688,0 -1.25,0.46875 -0.453119,0.45313 -0.453119,1.28125 h -1.07813 q 0,-1.1875 0.75,-1.90625 0.765629,-0.73437 2.031249,-0.73437 1.20312,0 1.890619,0.625 0.6875,0.625 0.6875,1.67187 0,1.25 -1.609369,3 l -2.28125,2.46875 h 4.281249 z m 1.546869,-0.5625 q 0,-0.28124 0.15626,-0.46874 0.17187,-0.1875 0.5,-0.1875 0.34374,0 0.51562,0.1875 0.17188,0.1875 0.17188,0.46874 0,0.26563 -0.17188,0.45313 -0.17188,0.17187 -0.51562,0.17187 -0.32813,0 -0.5,-0.17187 -0.15626,-0.1875 -0.15626,-0.45313 z m 3.359379,-3.71874 0.4375,-4.25 h 4.375001 v 1 h -3.453122 l -0.265629,2.32812 q 0.640629,-0.375 1.437499,-0.375 1.15625,0 1.843752,0.78125 0.6875,0.76563 0.6875,2.07813 0,1.3125 -0.71875,2.07812 -0.703132,0.76562 -1.984372,0.76562 -1.124999,0 -1.843759,-0.625 -0.71874,-0.64062 -0.8125,-1.75 h 1.01563 q 0.10937,0.73438 0.53125,1.10938 0.421879,0.375 1.109379,0.375 0.75,0 1.1875,-0.51562 0.4375,-0.51563 0.4375,-1.42188 0,-0.85938 -0.46876,-1.375 -0.46874,-0.51562 -1.25,-0.51562 -0.70312,0 -1.109369,0.29687 l -0.28125,0.23437 z m 11.68752,-2.03126 q 0,0.64063 -0.343746,1.14063 -0.34375,0.5 -0.906253,0.78125 0.656253,0.28125 1.046879,0.84375 0.39062,0.54687 0.39062,1.25 0,1.09375 -0.749996,1.76563 -0.734383,0.65624 -1.953135,0.65624 -1.234389,0 -1.984388,-0.65624 -0.73438,-0.67188 -0.73438,-1.76563 0,-0.70313 0.375,-1.25 0.375,-0.5625 1.046879,-0.84375 -0.562499,-0.28125 -0.890619,-0.78125 -0.32813,-0.5 -0.32813,-1.14063 0,-1.07812 0.687502,-1.70312 0.687497,-0.64062 1.828136,-0.64062 1.125009,0 1.812515,0.64062 0.703116,0.625 0.703116,1.70312 z m -0.890616,3.98438 q 0,-0.71875 -0.453133,-1.15625 -0.453136,-0.45313 -1.187512,-0.45313 -0.734376,0 -1.187509,0.45313 -0.437497,0.4375 -0.437497,1.17187 0,0.71876 0.437497,1.14063 0.437503,0.40625 1.203139,0.40625 0.750006,0 1.187512,-0.42188 0.437503,-0.42187 0.437503,-1.14062 z m -1.625015,-5.4375 q -0.640633,0 -1.046886,0.40625 -0.390623,0.39063 -0.390623,1.07813 0,0.64062 0.390623,1.04687 0.390623,0.40625 1.031256,0.40625 0.656256,0 1.046879,-0.40625 0.390633,-0.40625 0.390633,-1.04687 0,-0.65626 -0.406253,-1.0625 -0.406253,-0.42188 -1.015629,-0.42188 z"
         fill-rule="nonzero"
         id="path1374" />
      <path
         fill="#34a853"
         d="m 386.59131,260.987 h -2.85937 v -0.875 h 2.85937 z m 4.1875,3.1875 h -1.07813 v -7.21875 l -2.1875,0.79687 v -0.98437 l 3.10938,-1.17188 h 0.15625 z m 9.03125,0 h -5.59375 v -0.78125 l 2.95313,-3.28125 q 0.65624,-0.75 0.90624,-1.20313 0.25,-0.46875 0.25,-0.96875 0,-0.67187 -0.40624,-1.09375 -0.39063,-0.4375 -1.07813,-0.4375 -0.79687,0 -1.25,0.46875 -0.45313,0.45313 -0.45313,1.28125 h -1.07812 q 0,-1.1875 0.75,-1.90625 0.76562,-0.73437 2.03125,-0.73437 1.20313,0 1.89063,0.625 0.6875,0.625 0.6875,1.67187 0,1.25 -1.60938,3 l -2.28125,2.46875 h 4.28125 z m 1.54688,-0.5625 q 0,-0.28125 0.15624,-0.46875 0.17188,-0.1875 0.5,-0.1875 0.34376,0 0.51563,0.1875 0.17187,0.1875 0.17187,0.46875 0,0.26562 -0.17187,0.45312 -0.17187,0.17188 -0.51563,0.17188 -0.32812,0 -0.5,-0.17188 -0.15624,-0.1875 -0.15624,-0.45312 z m 8.45312,0.5625 h -5.59375 v -0.78125 l 2.95313,-3.28125 q 0.65624,-0.75 0.90624,-1.20313 0.25,-0.46875 0.25,-0.96875 0,-0.67187 -0.40624,-1.09375 -0.39063,-0.4375 -1.07813,-0.4375 -0.79687,0 -1.25,0.46875 -0.45313,0.45313 -0.45313,1.28125 h -1.07812 q 0,-1.1875 0.75,-1.90625 0.76562,-0.73437 2.03125,-0.73437 1.20313,0 1.89063,0.625 0.6875,0.625 0.6875,1.67187 0,1.25 -1.60938,3 l -2.28125,2.46875 h 4.28125 z m 4.96875,0 h -1.07813 v -7.21875 l -2.1875,0.79687 v -0.98437 l 3.10938,-1.17188 h 0.15625 z"
         fill-rule="nonzero"
         id="path1378" />
      <path
         fill="#000000"
         d="m 21.925,301.8719 v -1.0625 h 3.25 v 1.0625 z m 8.09375,2.5781 h -1.046876 v -6.71874 q -0.390624,0.35938 -1.015624,0.73438 -0.609376,0.35936 -1.09375,0.53126 v -1.01564 q 0.875,-0.42186 1.53125,-1 0.671874,-0.59376 0.953124,-1.15626 h 0.671876 z m 3.03125,-2.25 1.109374,-0.0937 q 0.125,0.8125 0.5625,1.21874 0.453126,0.40626 1.09375,0.40626 0.75,0 1.28125,-0.57812 0.53125,-0.57814 0.53125,-1.51564 0,-0.90624 -0.515624,-1.42186 -0.5,-0.53124 -1.328126,-0.53124 -0.5,0 -0.921874,0.23436 -0.40625,0.23438 -0.640626,0.59374 l -0.984374,-0.125 0.828124,-4.40624 h 4.28125 v 1 h -3.4375 l -0.453124,2.3125 q 0.765624,-0.54686 1.609374,-0.54686 1.125,0 1.890626,0.78124 0.78125,0.78126 0.78125,2.01562 0,1.15624 -0.671876,2.01564 -0.828124,1.03124 -2.25,1.03124 -1.171874,0 -1.921874,-0.65624 Q 33.159374,303.27814 33.05,302.2 Z"
         fill-rule="nonzero"
         id="path1382" />
      <path
         fill="#000000"
         d="m 21.925,231.14966 v -1.0625 h 3.25 v 1.0625 z m 8.09375,2.57812 h -1.046876 v -6.71875 q -0.390624,0.35938 -1.015624,0.73438 -0.609376,0.35937 -1.09375,0.53125 v -1.01563 q 0.875,-0.42187 1.53125,-1 0.671874,-0.59375 0.953124,-1.15625 H 30.01875 Z M 33.05,229.49341 q 0,-1.53125 0.3125,-2.45313 0.3125,-0.9375 0.921874,-1.4375 0.625,-0.5 1.5625,-0.5 0.6875,0 1.203126,0.28125 0.53125,0.28125 0.875,0.8125 0.34375,0.51563 0.53125,1.26563 0.1875,0.75 0.1875,2.03125 0,1.51562 -0.3125,2.4375 -0.296876,0.92187 -0.921876,1.4375 -0.609374,0.5 -1.5625,0.5 -1.234374,0 -1.953124,-0.89063 Q 33.05,231.91528 33.05,229.49341 Z m 1.078124,0 q 0,2.10937 0.5,2.8125 0.5,0.70312 1.21875,0.70312 0.734376,0 1.21875,-0.70312 0.5,-0.70313 0.5,-2.8125 0,-2.125 -0.5,-2.8125 -0.484374,-0.70313 -1.234374,-0.70313 -0.71875,0 -1.15625,0.60938 -0.546876,0.78125 -0.546876,2.90625 z"
         fill-rule="nonzero"
         id="path1384" />
      <path
         fill="#000000"
         d="m 28.925,160.42743 v -1.0625 h 3.25 v 1.0625 z m 4.125,0.32812 1.109374,-0.0937 q 0.125,0.8125 0.5625,1.21875 0.453126,0.40625 1.09375,0.40625 0.75,0 1.28125,-0.57812 0.53125,-0.57813 0.53125,-1.51563 0,-0.90625 -0.515624,-1.42187 -0.5,-0.53125 -1.328126,-0.53125 -0.5,0 -0.921874,0.23437 -0.40625,0.23438 -0.640626,0.59375 l -0.984374,-0.125 0.828124,-4.40625 h 4.28125 v 1 h -3.4375 l -0.453124,2.3125 q 0.765624,-0.54687 1.609374,-0.54687 1.125,0 1.890626,0.78125 0.78125,0.78125 0.78125,2.01562 0,1.15625 -0.671876,2.01563 -0.828124,1.03125 -2.25,1.03125 -1.171874,0 -1.921874,-0.65625 -0.734376,-0.65625 -0.84375,-1.73438 z"
         fill-rule="nonzero"
         id="path1386" />
      <path
         fill="#000000"
         d="m 33.05,88.04896 q 0,-1.53125 0.3125,-2.45313 0.3125,-0.9375 0.921874,-1.4375 0.625,-0.5 1.5625,-0.5 0.6875,0 1.203126,0.28125 0.53125,0.28125 0.875,0.8125 0.34375,0.51563 0.53125,1.26563 0.1875,0.75 0.1875,2.03125 0,1.51562 -0.3125,2.4375 -0.296876,0.92187 -0.921876,1.4375 -0.609374,0.5 -1.5625,0.5 -1.234374,0 -1.953124,-0.89063 Q 33.05,90.47083 33.05,88.04896 Z m 1.078124,0 q 0,2.10937 0.5,2.8125 0.5,0.70312 1.21875,0.70312 0.734376,0 1.21875,-0.70312 0.5,-0.70313 0.5,-2.8125 0,-2.125 -0.5,-2.8125 -0.484374,-0.70313 -1.234374,-0.70313 -0.71875,0 -1.15625,0.60938 -0.546876,0.78125 -0.546876,2.90625 z"
         fill-rule="nonzero"
         id="path1388" />
      <path
         fill="#4285f4"
         d="m 102.56934,100.55239 c 0,3.31371 -2.686302,5.99999 -6.000002,5.99999 -3.3137,0 -6,-2.68628 -6,-5.99999 0,-3.313707 2.6863,-5.999999 6,-5.999999 3.3137,0 6.000002,2.686292 6.000002,5.999999 z"
         fill-rule="nonzero"
         id="path1394" />
      <path
         fill="#ea4335"
         d="m 102.56934,122.00152 c 0,3.31371 -2.686302,6 -6.000002,6 -3.3137,0 -6,-2.68629 -6,-6 0,-3.31371 2.6863,-6 6,-6 3.3137,0 6.000002,2.68629 6.000002,6 z"
         fill-rule="nonzero"
         id="path1398" />
      <path
         fill="#fbbc04"
         d="m 102.56934,148.14946 c 0,3.31371 -2.686282,6 -6.000002,6 -3.31372,0 -6,-2.68629 -6,-6 0,-3.31371 2.68628,-6 6,-6 3.31372,0 6.000002,2.68629 6.000002,6 z"
         fill-rule="nonzero"
         id="path1402" />
      <path
         fill="#34a853"
         d="m 102.56934,171.11729 c 0,3.31371 -2.686282,5.99999 -6.000002,5.99999 -3.31372,0 -6,-2.68628 -6,-5.99999 0,-3.31371 2.68628,-6 6,-6 3.31372,0 6.000002,2.68629 6.000002,6 z"
         fill-rule="nonzero"
         id="path1406" />
      <text
         xml:space="preserve"
         style="font-size:21.3333336px;line-height:1.25;font-family:sans-serif;word-spacing:0px;fill:#000000;"
         x="108.30323"
         y="109.97196"
         id="text1498"><tspan
           sodipodi:role="line"
           id="tspan1496"
           x="108.30323"
           y="109.97196">Arm</tspan></text>
      <text
         xml:space="preserve"
         style="font-size:21.3333336px;line-height:1.25;font-family:sans-serif;word-spacing:0px;fill:#000000;"
         x="106.30345"
         y="132.91388"
         id="text1502"><tspan
           sodipodi:role="line"
           id="tspan1500"
           x="106.30345"
           y="132.91388">Arm weight</tspan></text>
      <text
         xml:space="preserve"
         style="font-size:21.3333336px;line-height:1.25;font-family:sans-serif;word-spacing:0px;fill:#000000;"
         x="105.33476"
         y="156.91638"
         id="text1506"><tspan
           sodipodi:role="line"
           id="tspan1504"
           x="105.33476"
           y="156.91638">Bicep Weight</tspan></text>
      <text
         xml:space="preserve"
         style="font-size:21.3333336px;line-height:1.25;font-family:sans-serif;word-spacing:0px;fill:#000000;"
         x="104.00183"
         y="180.99557"
         id="text1510"><tspan
           sodipodi:role="line"
           id="tspan1508"
           x="104.00183"
           y="180.99557">Bicep</tspan></text>
      <text
         xml:space="preserve"
         style="font-size:21.3333px;line-height:1.25;font-family:sans-serif;word-spacing:0px;fill:#000000"
         x="-340.38989"
         y="16.057444"
         id="text1514"
         transform="rotate(-90)"
         inkscape:export-xdpi="96"
         inkscape:export-ydpi="96"><tspan
           sodipodi:role="line"
           id="tspan1512"
           x="-340.38989"
           y="16.057444"
           style="fill:#4d4d4d">Signal to Noise Ration (SNR)</tspan></text>
      <text
         xml:space="preserve"
         style="font-size:26.6667px;line-height:1.25;font-family:sans-serif;word-spacing:0px;fill:#4d4d4d"
         x="77.541695"
         y="321.00269"
         id="text1518"><tspan
           sodipodi:role="line"
           id="tspan1516"
           x="77.541695"
           y="321.00269">RAW</tspan></text>
      <text
         xml:space="preserve"
         style="font-size:26.6667px;line-height:1.25;font-family:sans-serif;word-spacing:0px;fill:#4d4d4d"
         x="343.44269"
         y="321.6268"
         id="text1522"><tspan
           sodipodi:role="line"
           id="tspan1520"
           x="343.44269"
           y="321.6268">LMS</tspan></text>
    </g>
  </g>
</svg>
